<svg xmlns="http://www.w3.org/2000/svg" xmlns:xlink="http://www.w3.org/1999/xlink" width="39" height="39" viewBox="0 0 39 39"><defs><style>.a{fill:none;}.b{clip-path:url(#a);}.c{fill:#dd3a57;}.d{fill:#fff;}</style><clipPath id="a"><rect class="a" width="39" height="39"/></clipPath></defs><g transform="translate(19.5 19.5)"><g class="b" transform="translate(-19.5 -19.5)"><path class="c" d="M39,19.5A19.5,19.5,0,1,1,19.5,0,19.5,19.5,0,0,1,39,19.5"/><path class="d" d="M26.805,12.6A4.505,4.505,0,1,1,22.3,17.105,4.505,4.505,0,0,1,26.805,12.6" transform="translate(-7.305 -4.128)"/><path class="d" d="M24.634,39.536c-4.909,0-9.279-.874-8.943-3.026.941-5.716,3.9-9.01,8.943-9.01s8,3.362,8.943,9.01c.336,2.152-3.967,3.026-8.943,3.026" transform="translate(-5.134 -9.009)"/></g></g></svg>