<svg xmlns="http://www.w3.org/2000/svg" xmlns:xlink="http://www.w3.org/1999/xlink" width="45" height="45" viewBox="0 0 45 45"><defs><style>.a{fill:none;}.b{clip-path:url(#a);}.c{fill:#00acb3;fill-rule:evenodd;}.d{fill:#fff;}</style><clipPath id="a"><rect class="a" width="45" height="45"/></clipPath></defs><g transform="translate(22.5 22.5)"><g class="b" transform="translate(-22.5 -22.5)"><path class="c" d="M44,23A21,21,0,1,1,23,2,21,21,0,0,1,44,23" transform="translate(-0.5 -0.5)"/><path class="d" d="M26.887,24.127l-1.2,4.2a.952.952,0,0,0,.9,1.2h.225l4.275-1.2.375-.225,7.65-7.725a3,3,0,0,0,0-4.275h-.075a3,3,0,0,0-4.275,0l-7.65,7.65a.825.825,0,0,0-.225.375m1.65.75,7.5-7.5a1.178,1.178,0,0,1,1.725,0h.15a1.2,1.2,0,0,1,0,1.725l-7.5,7.5-2.475.675Z" transform="translate(-6.412 -3.802)"/><path class="d" d="M18.2,38.325H31.7a3,3,0,0,0,3-3v-6.45a.9.9,0,0,0-1.8,0V35.4a1.2,1.2,0,0,1-1.2,1.2H18.2A1.2,1.2,0,0,1,17,35.4V21.9a1.2,1.2,0,0,1,1.2-1.2h6.525a.9.9,0,1,0,0-1.8H18.2a3,3,0,0,0-3,3V35.4a3,3,0,0,0,3,3" transform="translate(-3.8 -4.725)"/></g></g></svg>