<svg xmlns="http://www.w3.org/2000/svg" xmlns:xlink="http://www.w3.org/1999/xlink" width="1113" height="191" viewBox="0 0 1113 191"><defs><style>.a,.i{fill:none;}.b{fill:#c20a2b;}.c{fill:#dd3a57;}.d,.g,.j{fill:#fff;}.d{font-size:32px;font-family:Calibri-Bold, Calibri;}.d,.j{font-weight:700;}.e{fill:#00acb3;}.f{clip-path:url(#g);}.h{fill:#0185b6;}.i{stroke:rgba(255,255,255,0.2);stroke-width:2px;}.j{font-size:42px;font-family:SegoeScript-Bold, Segoe Script;}.k{font-family:AgencyFB-Bold, Agency FB;}.l{stroke:none;}.m{filter:url(#l);}.n{filter:url(#j);}.o{filter:url(#h);}.p{filter:url(#e);}.q{filter:url(#c);}.r{filter:url(#a);}</style><filter id="a" x="8" y="93" width="745" height="98" filterUnits="userSpaceOnUse"><feOffset dy="3" input="SourceAlpha"/><feGaussianBlur stdDeviation="3" result="b"/><feFlood flood-opacity="0.161"/><feComposite operator="in" in2="b"/><feComposite in="SourceGraphic"/></filter><filter id="c" x="387" y="107" width="366" height="71" filterUnits="userSpaceOnUse"><feOffset dy="3" input="SourceAlpha"/><feGaussianBlur stdDeviation="3" result="d"/><feFlood flood-opacity="0.161"/><feComposite operator="in" in2="d"/><feComposite in="SourceGraphic"/></filter><filter id="e" x="735" y="93" width="98" height="98" filterUnits="userSpaceOnUse"><feOffset dy="3" input="SourceAlpha"/><feGaussianBlur stdDeviation="3" result="f"/><feFlood flood-opacity="0.161"/><feComposite operator="in" in2="f"/><feComposite in="SourceGraphic"/></filter><clipPath id="g"><rect class="a" width="60" height="60"/></clipPath><filter id="h" x="8" y="0" width="1105" height="111" filterUnits="userSpaceOnUse"><feOffset dy="3" input="SourceAlpha"/><feGaussianBlur stdDeviation="3" result="i"/><feFlood flood-opacity="0.161"/><feComposite operator="in" in2="i"/><feComposite in="SourceGraphic"/></filter><filter id="j" x="0" y="6" width="1107" height="99" filterUnits="userSpaceOnUse"><feOffset dy="3" input="SourceAlpha"/><feGaussianBlur stdDeviation="3" result="k"/><feFlood flood-opacity="0.161"/><feComposite operator="in" in2="k"/><feComposite in="SourceGraphic"/></filter><filter id="l" x="146" y="15" width="934" height="85" filterUnits="userSpaceOnUse"><feOffset dy="3" input="SourceAlpha"/><feGaussianBlur stdDeviation="3" result="m"/><feFlood flood-opacity="0.161"/><feComposite operator="in" in2="m"/><feComposite in="SourceGraphic"/></filter></defs><g transform="translate(17 -1104)"><g class="r" transform="matrix(1, 0, 0, 1, -17, 1104)"><rect class="b" width="727" height="80" transform="translate(17 99)"/></g><g class="q" transform="matrix(1, 0, 0, 1, -17, 1104)"><path class="c" d="M13,0H348a0,0,0,0,1,0,0V53a0,0,0,0,1,0,0H13A13,13,0,0,1,0,40V13A13,13,0,0,1,13,0Z" transform="translate(396 113)"/></g><text class="d" transform="translate(401 1253)"><tspan x="0" y="0">THIS IS HOW IT WORKS</tspan></text><g class="p" transform="matrix(1, 0, 0, 1, -17, 1104)"><path class="e" d="M0,0H80a0,0,0,0,1,0,0V67A13,13,0,0,1,67,80H0a0,0,0,0,1,0,0V0A0,0,0,0,1,0,0Z" transform="translate(744 99)"/></g><g transform="translate(737 1213)"><g transform="translate(30 30)"><g class="f" transform="translate(-30 -30)"><path class="g" d="M30,2.2A27.8,27.8,0,1,0,57.8,30,27.8,27.8,0,0,0,30,2.2m-.4,10.2a4.2,4.2,0,1,1-4.2,4.2,4.2,4.2,0,0,1,4.2-4.2m6.5,35.3H23.9v-5h2.7V28.3h-.2a2.5,2.5,0,0,1,0-4.9h7.1V42.7h2.7Z"/></g></g></g><g class="o" transform="matrix(1, 0, 0, 1, -17, 1104)"><path class="h" d="M0,0H1074a13,13,0,0,1,13,13V80a13,13,0,0,1-13,13H0a0,0,0,0,1,0,0V0A0,0,0,0,1,0,0Z" transform="translate(17 6)"/></g><g class="n" transform="matrix(1, 0, 0, 1, -17, 1104)"><g class="i" transform="translate(9 12)"><path class="l" d="M0,0H1079a10,10,0,0,1,10,10V71a10,10,0,0,1-10,10H0a0,0,0,0,1,0,0V0A0,0,0,0,1,0,0Z"/><path class="a" d="M2,1H1079a9,9,0,0,1,9,9V71a9,9,0,0,1-9,9H2a1,1,0,0,1-1-1V2A1,1,0,0,1,2,1Z"/></g></g><g class="m" transform="matrix(1, 0, 0, 1, -17, 1104)"><text class="j" transform="translate(155 67)"><tspan x="0" y="0">Becoming a </tspan><tspan class="k" y="0">HAPPYBOX</tspan><tspan y="0" xml:space="preserve"> partner is simple . . .</tspan></text></g></g></svg>