<svg xmlns="http://www.w3.org/2000/svg" xmlns:xlink="http://www.w3.org/1999/xlink" width="374" height="134" viewBox="0 0 374 134"><defs><style>.a,.i{fill:none;}.b{fill:#c20a2b;}.c{fill:#dd3a57;}.d,.g,.j{fill:#fff;}.d{font-size:14px;font-family:Calibri-Bold, Calibri;}.d,.j{font-weight:700;}.e{fill:#00acb3;}.f{clip-path:url(#g);}.h{fill:#0185b6;}.i{stroke:rgba(255,255,255,0.2);}.j{font-size:20px;font-family:SegoeScript-Bold, Segoe Script;}.k{font-family:AgencyFB-Bold, Agency FB;}.l{stroke:none;}.m{filter:url(#l);}.n{filter:url(#j);}.o{filter:url(#h);}.p{filter:url(#e);}.q{filter:url(#c);}.r{filter:url(#a);}</style><filter id="a" x="81" y="86" width="181" height="48" filterUnits="userSpaceOnUse"><feOffset dy="3" input="SourceAlpha"/><feGaussianBlur stdDeviation="3" result="b"/><feFlood flood-opacity="0.161"/><feComposite operator="in" in2="b"/><feComposite in="SourceGraphic"/></filter><filter id="c" x="94.5" y="95.5" width="163" height="29" filterUnits="userSpaceOnUse"><feOffset dy="3" input="SourceAlpha"/><feGaussianBlur stdDeviation="1.5" result="d"/><feFlood flood-opacity="0.161"/><feComposite operator="in" in2="d"/><feComposite in="SourceGraphic"/></filter><filter id="e" x="244" y="86" width="48" height="48" filterUnits="userSpaceOnUse"><feOffset dy="3" input="SourceAlpha"/><feGaussianBlur stdDeviation="3" result="f"/><feFlood flood-opacity="0.161"/><feComposite operator="in" in2="f"/><feComposite in="SourceGraphic"/></filter><clipPath id="g"><rect class="a" width="23" height="23" transform="translate(0 0)"/></clipPath><filter id="h" x="0" y="0" width="374" height="104" filterUnits="userSpaceOnUse"><feOffset dy="3" input="SourceAlpha"/><feGaussianBlur stdDeviation="3" result="i"/><feFlood flood-opacity="0.161"/><feComposite operator="in" in2="i"/><feComposite in="SourceGraphic"/></filter><filter id="j" x="2" y="2" width="370" height="100" filterUnits="userSpaceOnUse"><feOffset dy="3" input="SourceAlpha"/><feGaussianBlur stdDeviation="3" result="k"/><feFlood flood-opacity="0.161"/><feComposite operator="in" in2="k"/><feComposite in="SourceGraphic"/></filter><filter id="l" x="31" y="11" width="313" height="82" filterUnits="userSpaceOnUse"><feOffset dy="3" input="SourceAlpha"/><feGaussianBlur stdDeviation="3" result="m"/><feFlood flood-opacity="0.161"/><feComposite operator="in" in2="m"/><feComposite in="SourceGraphic"/></filter></defs><g transform="translate(-1 -745)"><g class="r" transform="matrix(1, 0, 0, 1, 1, 745)"><path class="b" d="M0,0H163a0,0,0,0,1,0,0V30a0,0,0,0,1,0,0H8a8,8,0,0,1-8-8V0A0,0,0,0,1,0,0Z" transform="translate(90 92)"/></g><g class="q" transform="matrix(1, 0, 0, 1, 1, 745)"><path class="c" d="M5,0H154a0,0,0,0,1,0,0V20a0,0,0,0,1,0,0H5a5,5,0,0,1-5-5V5A5,5,0,0,1,5,0Z" transform="translate(99 97)"/></g><text class="d" transform="translate(110 856)"><tspan x="0" y="0">THIS IS HOW IT WORKS</tspan></text><g class="p" transform="matrix(1, 0, 0, 1, 1, 745)"><path class="e" d="M0,0H30a0,0,0,0,1,0,0V22a8,8,0,0,1-8,8H0a0,0,0,0,1,0,0V0A0,0,0,0,1,0,0Z" transform="translate(253 92)"/></g><g transform="translate(269.5 852.5)"><g class="f" transform="translate(-11.5 -11.5)"><path class="g" d="M12.733,2.2A10.533,10.533,0,1,0,23.267,12.733,10.533,10.533,0,0,0,12.733,2.2m-.152,3.865A1.591,1.591,0,1,1,10.99,7.656a1.591,1.591,0,0,1,1.591-1.591M15.045,19.44H10.422V17.545h1.023V12.089h-.076a.947.947,0,0,1,0-1.857h2.69v7.313h1.023Z" transform="translate(-1.366 -1.366)"/></g></g><g transform="translate(0 -8)"><g class="o" transform="matrix(1, 0, 0, 1, 1, 753)"><rect class="h" width="356" height="86" rx="8" transform="translate(9 6)"/></g><g class="n" transform="matrix(1, 0, 0, 1, 1, 753)"><g class="i" transform="translate(11 8)"><rect class="l" width="352" height="82" rx="6"/><rect class="a" x="0.5" y="0.5" width="351" height="81" rx="5.5"/></g></g></g><g class="m" transform="matrix(1, 0, 0, 1, 1, 745)"><text class="j" transform="translate(187 39)"><tspan x="-146.992" y="0">Becoming a </tspan><tspan class="k" y="0">HAPPYBOX</tspan><tspan y="0" xml:space="preserve"> partner</tspan><tspan x="-67.007" y="32">is simple . . .</tspan></text></g></g></svg>