<svg xmlns="http://www.w3.org/2000/svg" xmlns:xlink="http://www.w3.org/1999/xlink" width="333" height="60" viewBox="0 0 333 60"><defs><style>.a{fill:none;}.b{fill:#0185b6;}.c{fill:#189ed0;}.d,.g{fill:#fff;}.d{font-size:28px;font-family:Calibri-Bold, Calibri;font-weight:700;}.e{fill:#00acb3;}.f{clip-path:url(#e);}.g{fill-rule:evenodd;}.h{filter:url(#c);}.i{filter:url(#a);}</style><filter id="a" x="10" y="4" width="274" height="56" filterUnits="userSpaceOnUse"><feOffset dy="3" input="SourceAlpha"/><feGaussianBlur stdDeviation="3" result="b"/><feFlood flood-opacity="0.161"/><feComposite operator="in" in2="b"/><feComposite in="SourceGraphic"/></filter><filter id="c" x="27" y="5" width="243" height="53" filterUnits="userSpaceOnUse"><feOffset dy="3" input="SourceAlpha"/><feGaussianBlur stdDeviation="3" result="d"/><feFlood flood-opacity="0.161"/><feComposite operator="in" in2="d"/><feComposite in="SourceGraphic"/></filter><clipPath id="e"><rect class="a" width="45" height="45"/></clipPath></defs><path class="b" d="M13,0H275a0,0,0,0,1,0,0V58a0,0,0,0,1,0,0H13A13,13,0,0,1,0,45V13A13,13,0,0,1,13,0Z"/><g class="i" transform="matrix(1, 0, 0, 1, 0, 0)"><path class="c" d="M10,0H256a0,0,0,0,1,0,0V38a0,0,0,0,1,0,0H10A10,10,0,0,1,0,28V10A10,10,0,0,1,10,0Z" transform="translate(19 10)"/></g><g class="h" transform="matrix(1, 0, 0, 1, 0, 0)"><text class="d" transform="translate(36 38)"><tspan x="0" y="0">SHIPPING METHOD</tspan></text></g><path class="e" d="M0,0H45A13,13,0,0,1,58,13V45A13,13,0,0,1,45,58H0a0,0,0,0,1,0,0V0A0,0,0,0,1,0,0Z" transform="translate(275)"/><g transform="translate(282 7)"><g class="f"><path class="g" d="M23,2A21,21,0,1,0,44,23,21,21,0,0,0,23,2M35.975,23v.075a2.1,2.1,0,0,1-.6,1.5l-8.55,8.55A2.1,2.1,0,0,1,23.9,30.2l5.025-5.025h-16.8a2.1,2.1,0,0,1,0-4.2h16.8L23.9,15.95h-.075a2.1,2.1,0,1,1,3-2.85l8.55,8.4a2.1,2.1,0,0,1,.6,1.5v.075" transform="translate(-0.5 -0.5)"/></g></g></svg>