<svg xmlns="http://www.w3.org/2000/svg" xmlns:xlink="http://www.w3.org/1999/xlink" width="261" height="56" viewBox="0 0 261 56"><defs><style>.a{fill:none;}.b{fill:#c20a2b;}.c{fill:#dd3a57;}.d,.g{fill:#fff;}.d{font-size:20px;font-family:Calibri-Bold, Calibri;font-weight:700;}.e{fill:#00acb3;}.f{clip-path:url(#e);}.h{filter:url(#c);}.i{filter:url(#a);}</style><filter id="a" x="0" y="2" width="219" height="54" filterUnits="userSpaceOnUse"><feOffset dy="3" input="SourceAlpha"/><feGaussianBlur stdDeviation="3" result="b"/><feFlood flood-opacity="0.161"/><feComposite operator="in" in2="b"/><feComposite in="SourceGraphic"/></filter><filter id="c" x="44" y="8" width="132" height="42" filterUnits="userSpaceOnUse"><feOffset dy="3" input="SourceAlpha"/><feGaussianBlur stdDeviation="3" result="d"/><feFlood flood-opacity="0.161"/><feComposite operator="in" in2="d"/><feComposite in="SourceGraphic"/></filter><clipPath id="e"><rect class="a" width="45" height="45"/></clipPath></defs><path class="b" d="M13,0H210a0,0,0,0,1,0,0V51a0,0,0,0,1,0,0H13A13,13,0,0,1,0,38V13A13,13,0,0,1,13,0Z"/><g class="i" transform="matrix(1, 0, 0, 1, 0, 0)"><path class="c" d="M10,0H201a0,0,0,0,1,0,0V36a0,0,0,0,1,0,0H10A10,10,0,0,1,0,26V10A10,10,0,0,1,10,0Z" transform="translate(9 8)"/></g><g class="h" transform="matrix(1, 0, 0, 1, 0, 0)"><text class="d" transform="translate(110 33)"><tspan x="-56.47" y="0">ADD TO CART</tspan></text></g><path class="e" d="M0,0H38A13,13,0,0,1,51,13V38A13,13,0,0,1,38,51H0a0,0,0,0,1,0,0V0A0,0,0,0,1,0,0Z" transform="translate(210)"/><g transform="translate(235.5 25.5)"><g class="f" transform="translate(-22.5 -22.5)"><path class="g" d="M23.5,4A19.5,19.5,0,1,0,43,23.5,19.5,19.5,0,0,0,23.5,4M19.9,34.15a1.5,1.5,0,1,1,1.425-1.5,1.5,1.5,0,0,1-1.425,1.5m10.125,0a1.5,1.5,0,1,1,1.5-1.5,1.425,1.425,0,0,1-1.5,1.5M34.3,18.25l-2.55,8.1a2.175,2.175,0,0,1-2.1,1.5H19.15V28a1.425,1.425,0,0,0,1.425,1.275h10.65a.75.75,0,0,1,.675.675.675.675,0,0,1-.675.675H20.575A2.775,2.775,0,0,1,17.8,28.3L15.7,15.625a1.5,1.5,0,0,0-1.275-1.275l-1.2-.15a.679.679,0,1,1,.15-1.35l1.2.15a2.925,2.925,0,0,1,2.475,2.4l.15,1.2H33.1a1.275,1.275,0,0,1,1.2,1.65" transform="translate(-1 -1)"/></g></g></svg>