<svg xmlns="http://www.w3.org/2000/svg" xmlns:xlink="http://www.w3.org/1999/xlink" width="39" height="39" viewBox="0 0 39 39"><defs><style>.a,.c{fill:none;}.b{clip-path:url(#a);}.c{stroke:#fff;stroke-miterlimit:10;stroke-width:0.65px;}.d{fill:#fff;}</style><clipPath id="a"><rect class="a" width="39" height="39"/></clipPath></defs><g transform="translate(19.5 19.5)"><g class="b" transform="translate(-19.5 -19.5)"><circle class="c" cx="18.85" cy="18.85" r="18.85" transform="translate(0.65 0.65)"/><path class="d" d="M36.07,30.225h0a1.95,1.95,0,0,0-.975-1.3l-5.07-2.99H29.83l-.845-.13a2.21,2.21,0,0,0-1.495.585l-1.43,1.5h-.195l-.78-.325-1.43-.91a16.965,16.965,0,0,1-2.015-1.82,16.51,16.51,0,0,1-1.82-2.015,11.05,11.05,0,0,1-.91-1.43,4.485,4.485,0,0,1-.39-.975l1.235-1.235A2.275,2.275,0,0,0,20.34,18a1.885,1.885,0,0,0-.195-1.3l-2.8-5.33h0a2.4,2.4,0,0,0-.585-.65,1.56,1.56,0,0,0-.975-.325,1.755,1.755,0,0,0-1.3.52l-3.445,3.445a2.6,2.6,0,0,0-.585.78,3.185,3.185,0,0,0-.26.91h0v.52A7.02,7.02,0,0,0,10.33,18a14.235,14.235,0,0,0,.52,2.08,17.16,17.16,0,0,0,1.17,2.665,25.481,25.481,0,0,0,1.82,2.99,29.51,29.51,0,0,0,3.12,3.51,28.08,28.08,0,0,0,4.485,3.77,23.66,23.66,0,0,0,3.77,2.08,12.87,12.87,0,0,0,2.86.91l1.69.195h.585l.91-.26a2.535,2.535,0,0,0,.78-.585l3.51-3.445a1.82,1.82,0,0,0,.52-1.56" transform="translate(-3.57 -3.64)"/></g></g></svg>