<svg xmlns="http://www.w3.org/2000/svg" xmlns:xlink="http://www.w3.org/1999/xlink" width="26" height="26" viewBox="0 0 26 26"><defs><style>.a{fill:none;}.b{fill:#00acb3;}.c{clip-path:url(#a);}.d{fill:#fff;}</style><clipPath id="a"><rect class="a" width="22" height="22"/></clipPath></defs><g transform="translate(-272 -841)"><circle class="b" cx="13" cy="13" r="13" transform="translate(272 841)"/><g transform="translate(285 854)"><g class="c" transform="translate(-11 -11)"><path class="d" d="M13.533,4a9.533,9.533,0,1,0,9.533,9.533A9.533,9.533,0,0,0,13.533,4m-1.76,14.74a.733.733,0,1,1,.7-.733.733.733,0,0,1-.7.733m4.95,0a.733.733,0,1,1,.733-.733.7.7,0,0,1-.733.733m2.09-7.773-1.247,3.96a1.063,1.063,0,0,1-1.027.733H11.407v.073a.7.7,0,0,0,.7.623H17.31a.367.367,0,0,1,.33.33.33.33,0,0,1-.33.33H12.1a1.357,1.357,0,0,1-1.357-1.137L9.72,9.683A.733.733,0,0,0,9.1,9.06L8.51,8.987a.332.332,0,1,1,.073-.66L9.17,8.4a1.43,1.43,0,0,1,1.21,1.173l.073.587h7.773a.623.623,0,0,1,.587.807" transform="translate(-2.533 -2.533)"/></g></g></g></svg>