<svg xmlns="http://www.w3.org/2000/svg" xmlns:xlink="http://www.w3.org/1999/xlink" width="230" height="63.619" viewBox="0 0 230 63.619"><defs><style>.a{fill:none;}.b{fill:#fff;}.c{clip-path:url(#a);}</style><clipPath id="a"><rect class="a" width="229.993" height="63.598"/></clipPath></defs><g transform="translate(114.996 31.799)"><g transform="translate(-114.996 -31.799)"><path class="b" d="M41.546.1V14.334H34.583V.1H29.4V34.6h5.183V19.131h6.962V34.6h5.261V.1Z" transform="translate(-6.656 -0.023)"/><path class="b" d="M68.961,8.045l2.553,15.549H66.485ZM66.33,0,59.6,34.5h5.106l1.006-6.576h6.5L73.215,34.5h5.106L71.746,0Z" transform="translate(-13.493)"/><g class="c"><path class="b" d="M108.41,18.9q0,3.249-3.172,3.249H96.883V34.6H91.7V.1h13.538q3.172,0,3.172,3.172ZM103.149,4.51H96.883V17.661h6.344Z" transform="translate(-20.76 -0.023)"/><path class="b" d="M138.81,18.9q0,3.249-3.172,3.249h-8.355V34.6H122.1V.1h13.538q3.172,0,3.172,3.172ZM133.549,4.51h-6.344V17.661h6.344Z" transform="translate(-27.643 -0.023)"/><path class="b" d="M169.4.232,164.834,14.7q-.851,2.166-2.243,7.195V34.58h-5.183V21.893a29.318,29.318,0,0,0-1.006-3.636L155.164,14.7,150.6.232V0h5.338l4.1,15.008,4.1-14.931H169.4Z" transform="translate(-34.095)"/><path class="b" d="M199.442,31.431q0,3.172-3.172,3.172H182.5V.1h13.693q3.094,0,3.094,3.172v8.9a3.481,3.481,0,0,1-1.083,2.708l-2.708,1.7,2.785,1.779a3.559,3.559,0,0,1,1.16,2.862ZM194.1,12.787V4.432h-6.5V14.566h3.945Zm.155,17.483V20.446l-2.553-1.7h-4.023V30.271Z" transform="translate(-41.317 -0.023)"/><path class="b" d="M231.106,31.431q0,3.172-3.172,3.172h-11.14q-3.094,0-3.094-3.172V3.272Q213.7.1,216.794.1h11.217q3.172,0,3.172,3.172ZM225.923,4.51h-7.117V30.193h7.117Z" transform="translate(-48.381 -0.023)"/><path class="b" d="M262.444,34.6h-5.57l-3.791-12.146L249.293,34.6H243.8v-.155l6.421-17.483Q244.109.177,244.187.1h5.493l3.481,11.217L256.564.1h5.493V.255L256.023,16.81Z" transform="translate(-55.195 -0.023)"/><path class="b" d="M62.238,67.217a1.161,1.161,0,0,0,0-.232V66.83l-.155-.155-.309-.155-.387.387-.464.464-.464.387-.387.309-1.006.774-1.16.851-1.315.774-1.392.619-1.315.464-1.238.155-1.006-.077L51.1,71.24a1.625,1.625,0,0,1-.309-.619,3.249,3.249,0,0,1-.077-.774A5.415,5.415,0,0,1,50.789,69a7.813,7.813,0,0,1,.155-.851l.309-.851.309-.774a7.891,7.891,0,0,1,1.083-1.857,12.224,12.224,0,0,1,1.47-1.47l.7-.464.851-.464.851-.309.7-.155h.464l-.155.309-.309.309-.542.7a1.006,1.006,0,0,0-.155.387.928.928,0,0,0,.232.7,1.006,1.006,0,0,0,.774.309,1.238,1.238,0,0,0,.928-.464l.155-.232.232-.387.232-.387.232-.387.155-.387v-.309a.928.928,0,0,0-.077-.387l-.232-.464-.309-.387-.309-.309-.619-.309h-.774l-.774.155-.928.309-.851.387-.7.387-.774.542-.851.7-.774.7-.619.7-.851,1.315a10.906,10.906,0,0,0-.7,1.47,9.593,9.593,0,0,0-.464,1.547,6.885,6.885,0,0,0-.155,1.47,5.26,5.26,0,0,0,.232,1.625,3.249,3.249,0,0,0,.7,1.238,3.1,3.1,0,0,0,1.16.774,4.719,4.719,0,0,0,1.7.309,6.422,6.422,0,0,0,1.7-.232l1.779-.7,1.779-.928,1.625-1.16,1.083-.851L61.387,69l.619-.774a1.315,1.315,0,0,0,.232-.7" transform="translate(-11.025 -13.606)"/><path class="b" d="M114.137,67.9h-.309l-.309.309-.928.928-1.006.7L110.5,70.3l-1.083.155H108.8l-.387-.309-.232-.387a1.16,1.16,0,0,1-.077-.387h.232l1.547-1.006,1.238-1.006a4.333,4.333,0,0,0,.774-1.083,2.708,2.708,0,0,0,.309-1.238,1.47,1.47,0,0,0-.155-.542l-.309-.542-.542-.387-.7-.155-.928.155-.774.387-.619.464-.542.542-.619.928a6.264,6.264,0,0,0-.464,1.006,6.731,6.731,0,0,0-.309,1.083,5.649,5.649,0,0,0-.077.928h0l-.155.155-.232.155-.619.387-.774.387-.774.387-.542.309a1.7,1.7,0,0,0-.077-.464l-.232-.464-.232-.464-.232-.387-.387-.542-.387-.619-.155-.464a3.019,3.019,0,0,1-.077-.464h.155a5.338,5.338,0,0,0,1.006-.928,1.238,1.238,0,0,0,.309-.774.928.928,0,0,0-1.083-1.083l-.542.155-.619.464-.542.7-.309.619H97.118l-.851-.232-.7-.232-.387-.232-.155-.232-.387-.387-.387-.309-.387-.155h-.542l-.774.155-.774.387-.7.542-.619.619-.851,1.083-.7,1.16-.232.542h-.619l-.928-.155-.619-.309-.387-.387-.155-.387v-.619l-.232-.619-.542-.851-.542-.309h-.077l-.155-.155-.155-.155-.232-.155h-.619l-.928.232-1.006.542-.928.7-.619.774-.387.7-.309.232-.7.619-.619.464-.619.464-.774.464-.387.155H74.838a.415.415,0,0,1-.309-.232L74.3,69.06l-.155-.851-.155-.928-.155-.928a4.486,4.486,0,0,0-.155-.774l-.077-.232-.232-.232-.309-.155h-.232l-.774.155-.774.387-.7.542-.619.542-.387.464-.387.542-.387.542-.309.464-.155.232-.232.387-.232.387-.232.309V66.043l.155-1.006.155-1.006V60.938a2.634,2.634,0,0,0,0-.309.928.928,0,0,0-.232-.7A.851.851,0,0,0,67.1,59.7h-.309l-.309.155-.232.232-.155.232-.155.464-.155.387v4.41a10.845,10.845,0,0,1-.077,1.16l-.155,1.315L65.4,69.37l.464,1.083v2.166a.851.851,0,0,0,.077.309l.232.309.309.232h.7l.232-.155.232-.232.309-.542.309-.619.387-.619.387-.542.928-1.315.928-1.083.774-.774.542-.387h-.155l.155.155v1.625l.155.774.155.7.155.464a1.47,1.47,0,0,0,.7.7,2.321,2.321,0,0,0,1.006.232l1.315-.232,1.238-.542,1.393-1.083.232-.232v.619a2.941,2.941,0,0,0,.077.774,2.553,2.553,0,0,0,.309.774,2.088,2.088,0,0,0,.619.619,1.624,1.624,0,0,0,.851.232h1.238l.928-.387.928-.619,1.006-1.006.619-.928.232-.387.155-.155h.232l.464.155.619.155h1.393a4.718,4.718,0,0,0,0,.542,1.934,1.934,0,0,0,.155.774,2.553,2.553,0,0,0,.464.7l.619.542.774.232h.928l.928-.155.851-.309.7-.387.851-.774.7-.928a5.029,5.029,0,0,0,.542-1.006,3.25,3.25,0,0,0,.155-1.083V66.74l.542.232.542.155h1.083l1.392-.155h.077a2.475,2.475,0,0,0,.077.387l.155.542.309.542.387.619.619.928a1.16,1.16,0,0,1,.232.619.773.773,0,0,1-.077.387l-.232.232-.542.232-.7.155-.851.232-.542.387-.309.464a1.315,1.315,0,0,0-.077.464.542.542,0,0,0,.077.309l.232.232.309.155h1.006l.387-.155.542-.232,1.083-.542,1.238-.7,1.006-.619,1.006-.619.928-.619.619-.542v.309a2.94,2.94,0,0,0,.619,1.083,2.476,2.476,0,0,0,.928.7,3.326,3.326,0,0,0,1.238.232l1.16-.155,1.238-.464,1.16-.7,1.006-.851.7-.851a1.392,1.392,0,0,0,.232-.7.7.7,0,0,0-.077-.464l-.232-.155m-30.48,1.006-.464.7-.464.542-.7.619-.7.464-.7.232H80.64l-.232-.155-.155-.232a.7.7,0,0,1-.077-.309,4.022,4.022,0,0,1,.155-1.083,7.037,7.037,0,0,1,.387-1.083l.542-1.006.7-.851.7-.619.619-.232h.155v.928l.155.387.155.309v.542a1.625,1.625,0,0,1-.155.774m10.444-1.315v1.083l-.232.387-.309.387-.309.309-.309.309-.542.387-.464.232-.464.155h-.928l-.155-.232v-.232a1.315,1.315,0,0,1,0-.309,4.331,4.331,0,0,1,.077-.774,2.476,2.476,0,0,1,.232-.7l.309-.542.309-.464.309-.464.309-.464.309-.387.309-.387.309-.309h.232l.155.155.309.155.464.155.309.232.155.309a1.857,1.857,0,0,1,.077.464v.464Zm14-.7a6.42,6.42,0,0,1,.464-1.006,2.941,2.941,0,0,1,.542-.774,1.006,1.006,0,0,1,.7-.309h.232v.155a.464.464,0,0,1,.077.232,1.238,1.238,0,0,1-.155.7l-.542.619-.774.619-.928.7.309-1.083" transform="translate(-14.806 -13.516)"/><path class="b" d="M147.276,65.432l-.309-.232h-.542a.851.851,0,0,0-.619.232,1.7,1.7,0,0,0-.387.7V68.6a1.934,1.934,0,0,1-.309.7l-.619.7-.774.542-.851.464-.774.309h-.851l-.155-.232-.155-.387a1.934,1.934,0,0,1-.077-.464,3.094,3.094,0,0,1,.155-1.006l.387-1.083.155-.309.232-.464.232-.464v-.309a3.4,3.4,0,0,0,0-.387,1,1,0,0,0-.155-.387l-.309-.309h-.928l-.387.232-.232.387-.232.542V66.9l-.155.464-.155.387v.232l-.155.619-.155.7V70a5.494,5.494,0,0,0-.077.619,3.169,3.169,0,0,0,.077.851,2.244,2.244,0,0,0,.309.7l.619.542.851.232h.7l.774-.232.774-.387.774-.464.7-.464.619-.464v.928q-.077.464-.155.851l-.155.774-.232.851-.309.774-.387.7-.464.464-.542.155h-.928l-.774-.232-.7-.387-.7-.619-.232-.155h-.542l-.155.232v.309a1.94,1.94,0,0,0,0,.309.774.774,0,0,0,.232.464l.542.542.7.464.774.387a5.647,5.647,0,0,0,2.089.387,2.862,2.862,0,0,0,2.553-1.392l.387-.7.387-.851.309-.851.232-.851.232-1.083.232-1.16.155-1.16a9.387,9.387,0,0,0,.077-1.16V66.36a3.475,3.475,0,0,0,0-.542.929.929,0,0,0-.155-.387" transform="translate(-31.467 -14.761)"/><path class="b" d="M183.72,65.628l-.542-.387-.851-.155a2.553,2.553,0,0,0-1.16.232l-.928.619-.774.851-.542.851-.155.309-.232.464-.232.464-.155.309a4.945,4.945,0,0,1,.077-.619l.155-.7.155-.7.155-.619v-.542a.929.929,0,0,0-.077-.387l-.232-.232-.309-.155h-.7l-.387.232-.309.387-.232.464v.309l-.309.387-.619.774-.619.774-.7.7-.7.619-.7.387-.619.155a.619.619,0,0,1-.619-.464,2.708,2.708,0,0,1-.232-1.16,8.347,8.347,0,0,1,.077-.928l.155-1.006.155-.851v-.542a.851.851,0,0,0-.232-.542.774.774,0,0,0-.619-.232h-.232l-.232.155-.232.155-.155.155v1.16l-.155.464-.232.464-.155.387-.387.619-.542.7-.619.7-.542.542-.464.387-.464.309-.542.232h-.542a.387.387,0,0,1-.309-.232,1.161,1.161,0,0,1-.155-.542A7.118,7.118,0,0,1,165,69.031l.232-1.083.232-.774a1.625,1.625,0,0,0,.077-.464,1.316,1.316,0,0,0-.077-.309l-.155-.309L165,65.86h-1.315l-.464.155-.619.155-.619.155-.464.155H159.2l-.155-.155.077.155-.232-.232-.542-.464-.542-.232h-.232l-.155-.155-.155-.155H156.8l-.928.232-.851.619-.774.851-.7.928-.542.928-.309.851v1.083a3,3,0,0,0,0,.309,4.254,4.254,0,0,0,.077,1.006,2.941,2.941,0,0,0,.309.851,1.857,1.857,0,0,0,.542.619,1.315,1.315,0,0,0,.774.232h.851l1.083-.309.851-.464.7-.464.542-.542.464-.7.155-.387.155-.464V69.96a2.631,2.631,0,0,0,0-.387v-.464a1.16,1.16,0,0,0-.077-.464h2.243l.774-.155.619-.155.309-.155.387-.232.309-.232-.155.774-.155.774v1.392a7.424,7.424,0,0,0,.077.928,2.321,2.321,0,0,0,.232.851,1.625,1.625,0,0,0,.619.619,2.166,2.166,0,0,0,1.083.232l1.006-.232.851-.387.7-.464.542-.464.464-.464.464-.542.387-.542.309-.464a4.177,4.177,0,0,0,.155,1.238,2.321,2.321,0,0,0,.464.851,1.7,1.7,0,0,0,.7.464l.851.155a2.4,2.4,0,0,0,1.006-.232l1.083-.7L175.52,70.5l1.006-1.16v2.63c0,.232.077.464.077.7a2.555,2.555,0,0,0,.077.7,1.083,1.083,0,0,0,.309.464,1.006,1.006,0,0,0,.7.232h.387l.232-.309.155-.464V71.894l.155-.542.232-.542.232-.464.309-.542.309-.542.387-.542.309-.464.387-.464.387-.387.387-.309h.619l.309.155.309.155h.387a.793.793,0,0,0,.774-.774,1.7,1.7,0,0,0-.077-.619,1.47,1.47,0,0,0-.309-.542M157.34,69.186a5.183,5.183,0,0,1-.541,1.393,3.1,3.1,0,0,1-.928,1.006,2.089,2.089,0,0,1-1.238.387H154.4l-.155-.155v-.232a.851.851,0,0,1-.077-.232,3.946,3.946,0,0,1,.077-.619l.155-.7.232-.774.309-.7.387-.619.387-.464.464-.309.464-.155h.309l.309.155.232.232.155.232a6.732,6.732,0,0,1-.232,1.625" transform="translate(-34.569 -14.647)"/><path class="b" d="M209.281,65.055l-.619-.155h-.619l-.774.155-.928.542-1.006.774-.928.928-.619,1.006-.542,1.238a11.139,11.139,0,0,0-.387,1.315,4.566,4.566,0,0,0-.155,1.083.542.542,0,0,0,.155.387l.387.232.464.155h1.315l1.006-.309.928-.542.774-.619a7.653,7.653,0,0,0-.077,1.083l-.155,1.16h0l-.155,1.006a4.178,4.178,0,0,1-.309.928,1.857,1.857,0,0,1-.542.7,1.238,1.238,0,0,1-.774.232h-.774l-.774-.232-.7-.387-.774-.542v-.155l-.155-.155-.155-.155h-.232a.464.464,0,0,0-.464.464,1.315,1.315,0,0,0,.155.542l.464.619.7.619.851.542,1.006.387,1.006.155,1.083-.232.851-.542.7-.774a4.949,4.949,0,0,0,.464-.928,9.745,9.745,0,0,0,.309-1.16l.232-1.392a8.524,8.524,0,0,0,.155-1.393l.155-1.238q.077-.851.077-1.47V65.906a.773.773,0,0,0-.232-.542l-.464-.309m-1.083,2.166V69l-.155.387-.309.464-.387.387-.464.309-.928.387-1.006.309v-.928l.155-.464.155-.387.774-1.238.774-1.006.7-.7.464-.232h.232v.928" transform="translate(-45.664 -14.693)"/><path class="b" d="M217.107,61.27v.542h0V62.2l.155.155h.619l.387-.155.387-.232.232-.232.155-.309.155-.387v-.619a.309.309,0,0,0-.155-.232l-.309-.232-.309-.155h-.774l-.464.309-.309.387a.7.7,0,0,0-.077.387.927.927,0,0,0,0,.232v.155" transform="translate(-49.08 -13.538)"/><path class="b" d="M234.627,64.774l-.309-.232h-1.7l-1.006.155-1.392.155.155-.7.232-.774V62.53q.007-.155,0-.309a1.241,1.241,0,0,0,0-.232v-.232l-.232-.155h-.7l-.387.155-.309.232-.232.464-.232.774-.232.851-.232.774-.155.542-1.16.155-1.16.155-1.006.155h-1.238V65.7a7.513,7.513,0,0,1,.077-.774l.155-.851.232-.928.232-.7.232-.387.232-.387.232-.309.232-.155.232.155.155.387v.851a4.639,4.639,0,0,1-.077.7l-.155.774h.155a1.16,1.16,0,0,0,.928-.619,4.951,4.951,0,0,0,.464-.928,2.476,2.476,0,0,0,.155-.851,1.624,1.624,0,0,0-.542-1.238,1.7,1.7,0,0,0-1.238-.542l-.7.155-.7.387-.541.542-.464.619-.464,1.006a7.113,7.113,0,0,0-.309,1.006v1.7a2.164,2.164,0,0,1-.077.387l-.155.387-.309.464-.387.542a.7.7,0,0,0-.155.309.387.387,0,0,0,.077.232l.155.232.155.155V69.8h0a1.083,1.083,0,0,0-.619.232l-.774.619-.464.309-.542.232-.619.155h-.619l-.464-.155a1.083,1.083,0,0,1-.232-.464,2.63,2.63,0,0,1-.077-.619c0-.232,0-.387,0-.619a5.885,5.885,0,0,1,.077-.774l.155-.774.155-.7.155-.619.155-.619a1.859,1.859,0,0,0,.077-.464.542.542,0,0,0-.077-.232l-.232-.232-.387-.232h-.542l-.464.155-.309.309-.155.464a2.164,2.164,0,0,0-.077.387v.851l-.155.7-.155.774v.851q-.058.385-.077.774a3.944,3.944,0,0,0,.155,1.083,2.863,2.863,0,0,0,.464.928,2.321,2.321,0,0,0,.774.7,2.4,2.4,0,0,0,1.16.232h1.006l.851-.232.619-.309.464-.309.619-.542.309-.387v.464l-.155,1.006-.232,1.083v.542l-.155.541-.155.464-.232.309h-.619l-.309.155-.232.309-.155.387a1.082,1.082,0,0,0-.077.309.542.542,0,0,0,.077.309l.309.232.387.155h.387l.851-.155.7-.542.542-.774.387-.851.155-.387V71.272l.155-.928.155-.928V67.791l.464-.155.774-.155.928-.155.928-.155h1.238l-.155.7-.155.928-.155.928a4.874,4.874,0,0,0-.077.774v.542a4.1,4.1,0,0,0,.077.619,3.016,3.016,0,0,0,.232.619l.387.542.619.387.928.155a2.631,2.631,0,0,0,1.083-.232l.928-.542.774-.619.464-.464.232-.309.155-.309v-.309a1.16,1.16,0,0,0,0-.309.309.309,0,0,0-.155-.309h-.387l-.464.155-.387.309a5.493,5.493,0,0,1-1.16.928,1.857,1.857,0,0,1-.851.309l-.309-.155-.232-.309v-.387a2.622,2.622,0,0,1,0-.387,4.024,4.024,0,0,1,.077-.7l.232-1.006.232-1.006.232-.928h.387l.851-.155,1.16-.155,1.238-.155h.309l.387-.232.309-.309a.541.541,0,0,0,.155-.387.387.387,0,0,0-.077-.309" transform="translate(-48.652 -13.561)"/><path class="b" d="M244.585,60.564l-.232-.232a.928.928,0,0,0-.619-.232h-.309l-.309.155-.309.232-.155.232v.619a3.252,3.252,0,0,0-.077.619,7.889,7.889,0,0,1-.155,1.315l-.309,1.47a10.674,10.674,0,0,0-.232,1.47,11.933,11.933,0,0,0-.077,1.315v.542l.542.232h.774l.155-.387v-.7a14.31,14.31,0,0,1,.387-1.779l.464-1.779.232-.851.155-.851.155-.7v-.387a.541.541,0,0,0-.077-.309" transform="translate(-54.742 -13.606)"/><path class="b" d="M242.557,73.332l-.387-.232h-.309l-.464.155-.387.387-.232.464a1.16,1.16,0,0,0-.077.387q0,1.006.928,1.006a1.393,1.393,0,0,0,.774-.309,1.722,1.722,0,0,0,.542-.619l.155-.774-.155-.232-.309-.232" transform="translate(-54.493 -16.549)"/><path class="b" d="M2.785,56.1V25.462H19.108V22.6H0V58.882H28.855V56.1Z" transform="translate(0 -5.117)"/><path class="b" d="M286.07,56.1V25.462H269.825V22.6h19.031V58.882H260V56.1Z" transform="translate(-58.863 -5.117)"/></g></g></g></svg>