<svg xmlns="http://www.w3.org/2000/svg" xmlns:xlink="http://www.w3.org/1999/xlink" width="35" height="35" viewBox="0 0 35 35"><defs><style>.a{fill:none;}.b{clip-path:url(#a);}.c{fill:#999;}</style><clipPath id="a"><rect class="a" width="35" height="35"/></clipPath></defs><g class="b"><path class="c" d="M47.217,43.075,40.042,35.9A13.825,13.825,0,0,1,35.9,40.042l7.175,7.175a2.929,2.929,0,0,0,4.142-4.142" transform="translate(-14.958 -14.958)"/><path class="c" d="M26.65,14.925A11.725,11.725,0,1,0,14.925,26.65,11.725,11.725,0,0,0,26.65,14.925M14.925,23.733a8.808,8.808,0,1,1,8.808-8.808,8.808,8.808,0,0,1-8.808,8.808" transform="translate(-1.333 -1.333)"/><path class="c" d="M11.6,18.425h1.983a4.9,4.9,0,0,1,4.9-4.9V11.6A6.825,6.825,0,0,0,11.6,18.425" transform="translate(-4.833 -4.833)"/></g></svg>