<svg xmlns="http://www.w3.org/2000/svg" xmlns:xlink="http://www.w3.org/1999/xlink" width="30" height="30" viewBox="0 0 30 30"><defs><style>.a{fill:none;}.b{clip-path:url(#a);}.c{fill:#00acb3;fill-rule:evenodd;}.d{fill:#fff;}</style><clipPath id="a"><rect class="a" width="30" height="30"/></clipPath></defs><g transform="translate(15 15)"><g class="b" transform="translate(-15 -15)"><path class="c" d="M30,16A14,14,0,1,1,16,2,14,14,0,0,1,30,16" transform="translate(-1 -1)"/><path class="d" d="M29.5,32.5A.5.5,0,0,0,30,32V23.6a.5.5,0,0,0-1,0V32a.5.5,0,0,0,.5.5" transform="translate(-14.5 -11.55)"/><path class="d" d="M24.3,32.474a.5.5,0,0,0,.5-.5l-.3-8.45a.5.5,0,0,0-1,.05l.25,8.4a.5.5,0,0,0,.5.5" transform="translate(-11.749 -11.524)"/><path class="d" d="M34.45,32.474a.5.5,0,0,0,.5-.5l.25-8.4a.5.5,0,0,0-1-.05l-.2,8.45a.5.5,0,0,0,.5.5" transform="translate(-17 -11.524)"/><path class="d" d="M29.375,15h-3.15l-.25-.8a1.85,1.85,0,0,0-1.7-1.3h-2.2a1.85,1.85,0,0,0-1.7,1.3l-.25.8h-3.15a.625.625,0,1,0,0,1.25h.15l.45,12.15a1.65,1.65,0,0,0,1.65,1.6h7.9a1.65,1.65,0,0,0,1.65-1.6l.45-12.15h.15a.625.625,0,0,0,0-1.25m-7.8-.5a.6.6,0,0,1,.5-.4h2.25a.6.6,0,0,1,.5.4l.15.5h-3.5Zm6,13.8a.4.4,0,0,1-.4.4h-7.95a.4.4,0,0,1-.4-.4l-.45-12.1h9.6Z" transform="translate(-8.175 -6.45)"/></g></g></svg>