<svg xmlns="http://www.w3.org/2000/svg" xmlns:xlink="http://www.w3.org/1999/xlink" width="35" height="35" viewBox="0 0 35 35"><defs><style>.a{fill:none;}.b{clip-path:url(#a);}.c{fill:#00acb3;fill-rule:evenodd;}.d{fill:#fff;}</style><clipPath id="a"><rect class="a" width="35" height="35"/></clipPath></defs><g transform="translate(35 35) rotate(180)"><g transform="translate(17.5 17.5)"><g class="b" transform="translate(-17.5 -17.5)"><path class="c" d="M34.667,18.333A16.333,16.333,0,1,1,18.333,2,16.333,16.333,0,0,1,34.667,18.333" transform="translate(-0.833 -0.833)"/><path class="d" d="M32.417,22.73l-6.65-6.65A1.633,1.633,0,1,0,23.433,18.3h.058L27.4,22.205H14.333a1.633,1.633,0,0,0,0,3.267H27.342L23.433,29.38a1.633,1.633,0,0,0,2.275,2.275l6.708-6.533a1.633,1.633,0,0,0,.467-1.167.233.233,0,0,0,0-.058.233.233,0,0,0,0-.058,1.633,1.633,0,0,0-.467-1.167" transform="translate(-5.292 -6.397)"/></g></g></g></svg>