<svg xmlns="http://www.w3.org/2000/svg" xmlns:xlink="http://www.w3.org/1999/xlink" width="331" height="85" viewBox="0 0 331 85"><defs><style>.a,.d{fill:none;}.b{fill:#c20a2b;}.c{fill:#0185b6;}.d{stroke:rgba(255,255,255,0.2);}.e{fill:#dd3a57;}.f,.i,.j{fill:#fff;}.f{font-size:14px;font-family:Calibri-Bold, Calibri;}.f,.j{font-weight:700;}.g{fill:#00acb3;}.h{clip-path:url(#k);}.j{font-size:20px;font-family:SegoeScript-Bold, Segoe Script;}.k{clip-path:url(#p);}.l{stroke:none;}.m{filter:url(#n);}.n{filter:url(#l);}.o{filter:url(#i);}.p{filter:url(#g);}.q{filter:url(#e);}.r{filter:url(#c);}.s{filter:url(#a);}</style><filter id="a" x="3" y="37" width="214" height="48" filterUnits="userSpaceOnUse"><feOffset dy="3" input="SourceAlpha"/><feGaussianBlur stdDeviation="3" result="b"/><feFlood flood-opacity="0.161"/><feComposite operator="in" in2="b"/><feComposite in="SourceGraphic"/></filter><filter id="c" x="3" y="0" width="328" height="55" filterUnits="userSpaceOnUse"><feOffset dy="3" input="SourceAlpha"/><feGaussianBlur stdDeviation="3" result="d"/><feFlood flood-opacity="0.161"/><feComposite operator="in" in2="d"/><feComposite in="SourceGraphic"/></filter><filter id="e" x="0" y="2" width="329" height="51" filterUnits="userSpaceOnUse"><feOffset dy="3" input="SourceAlpha"/><feGaussianBlur stdDeviation="3" result="f"/><feFlood flood-opacity="0.161"/><feComposite operator="in" in2="f"/><feComposite in="SourceGraphic"/></filter><filter id="g" x="45" y="42" width="172" height="38" filterUnits="userSpaceOnUse"><feOffset dy="3" input="SourceAlpha"/><feGaussianBlur stdDeviation="3" result="h"/><feFlood flood-opacity="0.161"/><feComposite operator="in" in2="h"/><feComposite in="SourceGraphic"/></filter><filter id="i" x="199" y="37" width="48" height="48" filterUnits="userSpaceOnUse"><feOffset dy="3" input="SourceAlpha"/><feGaussianBlur stdDeviation="3" result="j"/><feFlood flood-opacity="0.161"/><feComposite operator="in" in2="j"/><feComposite in="SourceGraphic"/></filter><clipPath id="k"><rect class="a" width="23" height="23" transform="translate(0 0)"/></clipPath><filter id="l" x="52" y="4" width="267" height="50" filterUnits="userSpaceOnUse"><feOffset dy="3" input="SourceAlpha"/><feGaussianBlur stdDeviation="3" result="m"/><feFlood flood-opacity="0.161"/><feComposite operator="in" in2="m"/><feComposite in="SourceGraphic"/></filter><filter id="n" x="3" y="0" width="56" height="55" filterUnits="userSpaceOnUse"><feOffset dy="3" input="SourceAlpha"/><feGaussianBlur stdDeviation="3" result="o"/><feFlood flood-opacity="0.161"/><feComposite operator="in" in2="o"/><feComposite in="SourceGraphic"/></filter><clipPath id="p"><rect class="a" width="25" height="25" transform="translate(0 0)"/></clipPath></defs><g transform="translate(12 -154)"><g transform="translate(-3 -276)"><g class="s" transform="matrix(1, 0, 0, 1, -9, 430)"><rect class="b" width="196" height="30" transform="translate(12 43)"/></g><g class="r" transform="matrix(1, 0, 0, 1, -9, 430)"><path class="c" d="M0,0H302a8,8,0,0,1,8,8V29a8,8,0,0,1-8,8H0a0,0,0,0,1,0,0V0A0,0,0,0,1,0,0Z" transform="translate(12 6)"/></g><g class="q" transform="matrix(1, 0, 0, 1, -9, 430)"><g class="d" transform="translate(9 8)"><path class="l" d="M0,0H305a6,6,0,0,1,6,6V27a6,6,0,0,1-6,6H0a0,0,0,0,1,0,0V0A0,0,0,0,1,0,0Z"/><path class="a" d="M1,.5H305A5.5,5.5,0,0,1,310.5,6V27a5.5,5.5,0,0,1-5.5,5.5H1A.5.5,0,0,1,.5,32V1A.5.5,0,0,1,1,.5Z"/></g></g><g class="p" transform="matrix(1, 0, 0, 1, -9, 430)"><path class="e" d="M5,0H154a0,0,0,0,1,0,0V20a0,0,0,0,1,0,0H5a5,5,0,0,1-5-5V5A5,5,0,0,1,5,0Z" transform="translate(54 48)"/></g><text class="f" transform="translate(55 493)"><tspan x="0" y="0">THIS IS HOW IT WORKS</tspan></text><g class="o" transform="matrix(1, 0, 0, 1, -9, 430)"><path class="g" d="M0,0H30a0,0,0,0,1,0,0V22a8,8,0,0,1-8,8H0a0,0,0,0,1,0,0V0A0,0,0,0,1,0,0Z" transform="translate(208 43)"/></g><g transform="translate(214.5 488.5)"><g class="h" transform="translate(-11.5 -11.5)"><path class="i" d="M12.733,2.2A10.533,10.533,0,1,0,23.267,12.733,10.533,10.533,0,0,0,12.733,2.2m-.152,3.865A1.591,1.591,0,1,1,10.99,7.656a1.591,1.591,0,0,1,1.591-1.591M15.045,19.44H10.422V17.545h1.023V12.089h-.076a.947.947,0,0,1,0-1.857h2.69v7.313h1.023Z" transform="translate(-1.366 -1.366)"/></g></g><g class="n" transform="matrix(1, 0, 0, 1, -9, 430)"><text class="j" transform="translate(61 32)"><tspan x="0" y="0">I want to use my box …</tspan></text></g><g class="m" transform="matrix(1, 0, 0, 1, -9, 430)"><rect class="g" width="38" height="37" transform="translate(50 43) rotate(180)"/></g><g transform="translate(9 442)"><g transform="translate(12.5 12.5)"><g class="k" transform="translate(-12.5 -12.5)"><path class="i" d="M17.914,7.737l.615-.287a3.117,3.117,0,0,0,1.025-4.307h-.041A2.912,2.912,0,0,0,17.053,2a3.445,3.445,0,0,0-1.928.574,5.578,5.578,0,0,0-1.6,2.5,5.824,5.824,0,0,0-1.641-2.543A3.445,3.445,0,0,0,9.957,2a2.912,2.912,0,0,0-2.42,1.148,3.117,3.117,0,0,0,.943,4.266h.041l.533.328H2v4.8H3.846v10.5A1.928,1.928,0,0,0,5.732,25H11.6V12.331H15.33V25H21.2a1.928,1.928,0,0,0,1.928-1.928v-10.5h1.846V7.737Zm-6.4-.984a4.594,4.594,0,0,1-2.3-.369,1.846,1.846,0,0,1-.656-2.5,1.641,1.641,0,0,1,1.395-.7,2.133,2.133,0,0,1,1.148.41,7.711,7.711,0,0,1,1.559,3.117l-1.148.082Zm4.307-3.158a2.133,2.133,0,0,1,1.148-.41,1.641,1.641,0,0,1,1.395.7,1.846,1.846,0,0,1-.656,2.5,4.471,4.471,0,0,1-2.3.369H14.264a6.932,6.932,0,0,1,1.559-3.2" transform="translate(-1.18 -1.175)"/></g></g></g></g></g></svg>