<svg xmlns="http://www.w3.org/2000/svg" xmlns:xlink="http://www.w3.org/1999/xlink" width="828" height="191" viewBox="0 0 828 191"><defs><style>.a,.j{fill:none;}.b{fill:#c20a2b;}.c{fill:#dd3a57;}.d,.g,.i{fill:#fff;}.d{font-size:32px;font-family:Calibri-Bold, Calibri;}.d,.i{font-weight:700;}.e{fill:#00acb3;}.f{clip-path:url(#g);}.h{fill:#0185b6;}.i{font-size:55px;font-family:SegoeScript-Bold, Segoe Script;}.j{stroke:rgba(255,255,255,0.2);stroke-width:2px;}.k{stroke:none;}.l{filter:url(#l);}.m{filter:url(#j);}.n{filter:url(#h);}.o{filter:url(#e);}.p{filter:url(#c);}.q{filter:url(#a);}</style><filter id="a" x="0" y="77" width="603" height="114" filterUnits="userSpaceOnUse"><feOffset dy="3" input="SourceAlpha"/><feGaussianBlur stdDeviation="3" result="b"/><feFlood flood-opacity="0.161"/><feComposite operator="in" in2="b"/><feComposite in="SourceGraphic"/></filter><filter id="c" x="237" y="107" width="366" height="71" filterUnits="userSpaceOnUse"><feOffset dy="3" input="SourceAlpha"/><feGaussianBlur stdDeviation="3" result="d"/><feFlood flood-opacity="0.161"/><feComposite operator="in" in2="d"/><feComposite in="SourceGraphic"/></filter><filter id="e" x="585" y="93" width="98" height="98" filterUnits="userSpaceOnUse"><feOffset dy="3" input="SourceAlpha"/><feGaussianBlur stdDeviation="3" result="f"/><feFlood flood-opacity="0.161"/><feComposite operator="in" in2="f"/><feComposite in="SourceGraphic"/></filter><clipPath id="g"><rect class="a" width="60" height="60"/></clipPath><filter id="h" x="0" y="0" width="828" height="111" filterUnits="userSpaceOnUse"><feOffset dy="3" input="SourceAlpha"/><feGaussianBlur stdDeviation="3" result="i"/><feFlood flood-opacity="0.161"/><feComposite operator="in" in2="i"/><feComposite in="SourceGraphic"/></filter><filter id="j" x="130" y="1" width="665" height="105" filterUnits="userSpaceOnUse"><feOffset dy="3" input="SourceAlpha"/><feGaussianBlur stdDeviation="3" result="k"/><feFlood flood-opacity="0.161"/><feComposite operator="in" in2="k"/><feComposite in="SourceGraphic"/></filter><filter id="l" x="8" y="6" width="814" height="99" filterUnits="userSpaceOnUse"><feOffset dy="3" input="SourceAlpha"/><feGaussianBlur stdDeviation="3" result="m"/><feFlood flood-opacity="0.161"/><feComposite operator="in" in2="m"/><feComposite in="SourceGraphic"/></filter></defs><g transform="translate(-132 -1772)"><g class="q" transform="matrix(1, 0, 0, 1, 132, 1772)"><path class="b" d="M0,0H585a0,0,0,0,1,0,0V96a0,0,0,0,1,0,0H13A13,13,0,0,1,0,83V0A0,0,0,0,1,0,0Z" transform="translate(9 83)"/></g><g class="p" transform="matrix(1, 0, 0, 1, 132, 1772)"><path class="c" d="M13,0H348a0,0,0,0,1,0,0V53a0,0,0,0,1,0,0H13A13,13,0,0,1,0,40V13A13,13,0,0,1,13,0Z" transform="translate(246 113)"/></g><text class="d" transform="translate(400 1921)"><tspan x="0" y="0">THIS IS HOW IT WORKS</tspan></text><g class="o" transform="matrix(1, 0, 0, 1, 132, 1772)"><path class="e" d="M0,0H80a0,0,0,0,1,0,0V67A13,13,0,0,1,67,80H0a0,0,0,0,1,0,0V0A0,0,0,0,1,0,0Z" transform="translate(594 99)"/></g><g transform="translate(736 1881)"><g transform="translate(30 30)"><g class="f" transform="translate(-30 -30)"><path class="g" d="M30,2.2A27.8,27.8,0,1,0,57.8,30,27.8,27.8,0,0,0,30,2.2m-.4,10.2a4.2,4.2,0,1,1-4.2,4.2,4.2,4.2,0,0,1,4.2-4.2m6.5,35.3H23.9v-5h2.7V28.3h-.2a2.5,2.5,0,0,1,0-4.9h7.1V42.7h2.7Z"/></g></g></g><g class="n" transform="matrix(1, 0, 0, 1, 132, 1772)"><rect class="h" width="810" height="93" rx="10" transform="translate(9 6)"/></g><g class="m" transform="matrix(1, 0, 0, 1, 132, 1772)"><text class="i" transform="translate(139 67)"><tspan x="0" y="0">I want to buy a box …</tspan></text></g><g class="l" transform="matrix(1, 0, 0, 1, 132, 1772)"><g class="j" transform="translate(17 12)"><rect class="k" width="796" height="81" rx="10"/><rect class="a" x="1" y="1" width="794" height="79" rx="9"/></g></g></g></svg>