<svg xmlns="http://www.w3.org/2000/svg" xmlns:xlink="http://www.w3.org/1999/xlink" width="298" height="83" viewBox="0 0 298 83"><defs><style>.a,.j{fill:none;}.b{fill:#c20a2b;}.c{fill:#dd3a57;}.d,.g,.i{fill:#fff;}.d{font-size:14px;font-family:Calibri-Bold, Calibri;}.d,.i{font-weight:700;}.e{fill:#00acb3;}.f{clip-path:url(#g);}.h{fill:#0185b6;}.i{font-size:20px;font-family:SegoeScript-Bold, Segoe Script;}.j{stroke:rgba(255,255,255,0.2);}.k{stroke:none;}.l{filter:url(#l);}.m{filter:url(#j);}.n{filter:url(#h);}.o{filter:url(#e);}.p{filter:url(#c);}.q{filter:url(#a);}</style><filter id="a" x="0" y="35" width="213" height="48" filterUnits="userSpaceOnUse"><feOffset dy="3" input="SourceAlpha"/><feGaussianBlur stdDeviation="3" result="b"/><feFlood flood-opacity="0.161"/><feComposite operator="in" in2="b"/><feComposite in="SourceGraphic"/></filter><filter id="c" x="41" y="40" width="172" height="38" filterUnits="userSpaceOnUse"><feOffset dy="3" input="SourceAlpha"/><feGaussianBlur stdDeviation="3" result="d"/><feFlood flood-opacity="0.161"/><feComposite operator="in" in2="d"/><feComposite in="SourceGraphic"/></filter><filter id="e" x="195" y="35" width="48" height="48" filterUnits="userSpaceOnUse"><feOffset dy="3" input="SourceAlpha"/><feGaussianBlur stdDeviation="3" result="f"/><feFlood flood-opacity="0.161"/><feComposite operator="in" in2="f"/><feComposite in="SourceGraphic"/></filter><clipPath id="g"><rect class="a" width="23" height="23" transform="translate(0 0)"/></clipPath><filter id="h" x="0" y="0" width="298" height="53" filterUnits="userSpaceOnUse"><feOffset dy="3" input="SourceAlpha"/><feGaussianBlur stdDeviation="3" result="i"/><feFlood flood-opacity="0.161"/><feComposite operator="in" in2="i"/><feComposite in="SourceGraphic"/></filter><filter id="j" x="33" y="2" width="254" height="50" filterUnits="userSpaceOnUse"><feOffset dy="3" input="SourceAlpha"/><feGaussianBlur stdDeviation="3" result="k"/><feFlood flood-opacity="0.161"/><feComposite operator="in" in2="k"/><feComposite in="SourceGraphic"/></filter><filter id="l" x="0" y="2" width="296" height="49" filterUnits="userSpaceOnUse"><feOffset dy="3" input="SourceAlpha"/><feGaussianBlur stdDeviation="3" result="m"/><feFlood flood-opacity="0.161"/><feComposite operator="in" in2="m"/><feComposite in="SourceGraphic"/></filter></defs><g transform="translate(9 -1446)"><g class="q" transform="matrix(1, 0, 0, 1, -9, 1446)"><rect class="b" width="195" height="30" transform="translate(9 41)"/></g><g class="p" transform="matrix(1, 0, 0, 1, -9, 1446)"><path class="c" d="M5,0H154a0,0,0,0,1,0,0V20a0,0,0,0,1,0,0H5a5,5,0,0,1-5-5V5A5,5,0,0,1,5,0Z" transform="translate(50 46)"/></g><text class="d" transform="translate(51 1507)"><tspan x="0" y="0">THIS IS HOW IT WORKS</tspan></text><g class="o" transform="matrix(1, 0, 0, 1, -9, 1446)"><path class="e" d="M0,0H30a0,0,0,0,1,0,0V22a8,8,0,0,1-8,8H0a0,0,0,0,1,0,0V0A0,0,0,0,1,0,0Z" transform="translate(204 41)"/></g><g transform="translate(210.5 1502.5)"><g class="f" transform="translate(-11.5 -11.5)"><path class="g" d="M12.733,2.2A10.533,10.533,0,1,0,23.267,12.733,10.533,10.533,0,0,0,12.733,2.2m-.152,3.865A1.591,1.591,0,1,1,10.99,7.656a1.591,1.591,0,0,1,1.591-1.591M15.045,19.44H10.422V17.545h1.023V12.089h-.076a.947.947,0,0,1,0-1.857h2.69v7.313h1.023Z" transform="translate(-1.366 -1.366)"/></g></g><g class="n" transform="matrix(1, 0, 0, 1, -9, 1446)"><path class="h" d="M0,0H272a8,8,0,0,1,8,8V27a8,8,0,0,1-8,8H0a0,0,0,0,1,0,0V0A0,0,0,0,1,0,0Z" transform="translate(9 6)"/></g><g class="m" transform="matrix(1, 0, 0, 1, -9, 1446)"><text class="i" transform="translate(42 30)"><tspan x="0" y="0">I want to buy a box …</tspan></text></g><g class="l" transform="matrix(1, 0, 0, 1, -9, 1446)"><g class="j" transform="translate(9 8)"><path class="k" d="M0,0H272a6,6,0,0,1,6,6V25a6,6,0,0,1-6,6H0a0,0,0,0,1,0,0V0A0,0,0,0,1,0,0Z"/><path class="a" d="M1,.5H272A5.5,5.5,0,0,1,277.5,6V25a5.5,5.5,0,0,1-5.5,5.5H1A.5.5,0,0,1,.5,30V1A.5.5,0,0,1,1,.5Z"/></g></g></g></svg>