<svg xmlns="http://www.w3.org/2000/svg" xmlns:xlink="http://www.w3.org/1999/xlink" width="30" height="30" viewBox="0 0 30 30"><defs><style>.a{fill:none;}.b{clip-path:url(#a);}.c{fill:#00acb3;}.d{fill:#fff;}</style><clipPath id="a"><rect class="a" width="30" height="30"/></clipPath></defs><g transform="translate(15 15)"><g class="b" transform="translate(-15 -15)"><path class="c" d="M30,15A15,15,0,1,1,15,0,15,15,0,0,1,30,15"/><path class="d" d="M25.766,12.6A3.466,3.466,0,1,1,22.3,16.066,3.466,3.466,0,0,1,25.766,12.6" transform="translate(-10.766 -6.083)"/><path class="d" d="M22.566,36.759c-3.776,0-7.138-.672-6.879-2.328.724-4.4,3-6.931,6.879-6.931s6.155,2.586,6.879,6.931c.259,1.655-3.052,2.328-6.879,2.328" transform="translate(-7.566 -13.276)"/></g></g></svg>