<svg xmlns="http://www.w3.org/2000/svg" xmlns:xlink="http://www.w3.org/1999/xlink" width="335" height="83" viewBox="0 0 335 83"><defs><style>.a,.d{fill:none;}.b{fill:#c20a2b;}.c,.e{fill:#fff;}.c{font-size:18px;font-family:Calibri-Bold, Calibri;font-weight:700;}.d{stroke:#fff;}.f{clip-path:url(#a);}.g{fill:#fa683d;}.h{stroke:none;}</style><clipPath id="a"><rect class="a" width="42" height="42"/></clipPath></defs><g transform="translate(-20 -566)"><g transform="translate(0 -305)"><rect class="b" width="335" height="51" rx="13" transform="translate(20 871)"/><text class="c" transform="translate(89 902)"><tspan x="0" y="0">DISCOVER OUR SELECTION</tspan></text><g class="d" transform="translate(22 873)"><rect class="h" width="331" height="47" rx="10"/><rect class="a" x="0.5" y="0.5" width="330" height="46" rx="9.5"/></g></g><circle class="e" cx="20" cy="20" r="20" transform="translate(168 608)"/><g transform="translate(188 628)"><g class="f" transform="translate(-21 -21)"><path class="g" d="M22.2,4A18.2,18.2,0,1,0,40.4,22.2,18.2,18.2,0,0,0,22.2,4M33.89,17.72,23.11,28.5a1.26,1.26,0,0,1-1.75,0L10.51,17.72a1.26,1.26,0,0,1,0-1.75h.07a1.26,1.26,0,0,1,1.75,0l8.96,8.89a1.26,1.26,0,0,0,1.75,0l9.03-8.96a1.26,1.26,0,0,1,1.75,0h.07a1.26,1.26,0,0,1,0,1.75" transform="translate(-1.2 -1.2)"/></g></g></g></svg>