<svg xmlns="http://www.w3.org/2000/svg" xmlns:xlink="http://www.w3.org/1999/xlink" width="243" height="50" viewBox="0 0 243 50"><defs><style>.a{fill:none;}.b{fill:#fa683d;}.c{fill:#fc7a54;}.d,.g{fill:#fff;}.d{font-size:15px;font-family:Calibri-Bold, Calibri;font-weight:700;}.e{fill:#00acb3;}.f{clip-path:url(#e);}.h{filter:url(#c);}.i{filter:url(#a);}</style><filter id="a" x="30" y="2" width="212" height="48" filterUnits="userSpaceOnUse"><feOffset dy="3" input="SourceAlpha"/><feGaussianBlur stdDeviation="3" result="b"/><feFlood flood-opacity="0.161"/><feComposite operator="in" in2="b"/><feComposite in="SourceGraphic"/></filter><filter id="c" x="49" y="7" width="182" height="36" filterUnits="userSpaceOnUse"><feOffset dy="3" input="SourceAlpha"/><feGaussianBlur stdDeviation="3" result="d"/><feFlood flood-opacity="0.161"/><feComposite operator="in" in2="d"/><feComposite in="SourceGraphic"/></filter><clipPath id="e"><rect class="a" width="30" height="30" transform="translate(0)"/></clipPath></defs><g transform="translate(-63 -70)"><rect class="b" width="243" height="46" rx="13" transform="translate(306 116) rotate(180)"/><g class="i" transform="matrix(1, 0, 0, 1, 63, 70)"><path class="c" d="M10,0H194a0,0,0,0,1,0,0V30a0,0,0,0,1,0,0H10A10,10,0,0,1,0,20V10A10,10,0,0,1,10,0Z" transform="translate(233 38) rotate(180)"/></g><g class="h" transform="matrix(1, 0, 0, 1, 63, 70)"><text class="d" transform="translate(58 27)"><tspan x="0" y="0">REGISTER YOUR VOUCHER</tspan></text></g><path class="e" d="M0,0H33A13,13,0,0,1,46,13V33A13,13,0,0,1,33,46H0a0,0,0,0,1,0,0V0A0,0,0,0,1,0,0Z" transform="translate(109 116) rotate(180)"/><g transform="translate(71 78)"><g transform="translate(15 15)"><g class="f" transform="translate(-15 -15)"><path class="g" d="M21.418,9l.751-.35A3.8,3.8,0,0,0,23.42,3.4h-.05a3.553,3.553,0,0,0-3-1.4,4.2,4.2,0,0,0-2.352.7,6.806,6.806,0,0,0-1.952,3.053,7.107,7.107,0,0,0-2-3.1A4.2,4.2,0,0,0,11.709,2,3.553,3.553,0,0,0,8.756,3.4,3.8,3.8,0,0,0,9.907,8.6h.05l.651.4H2v5.855H4.252V27.67a2.352,2.352,0,0,0,2.3,2.4h7.157V14.608h4.554V30.072h7.157a2.352,2.352,0,0,0,2.352-2.352V14.908h2.252V9ZM13.611,7.8a5.605,5.605,0,0,1-2.8-.45,2.252,2.252,0,0,1-.8-3.053,2,2,0,0,1,1.7-.851,2.6,2.6,0,0,1,1.4.5,9.409,9.409,0,0,1,1.9,3.8l-1.4.1Zm5.255-3.854a2.6,2.6,0,0,1,1.4-.5,2,2,0,0,1,1.7.851,2.252,2.252,0,0,1-.8,3.053,5.455,5.455,0,0,1-2.8.45h-1.4a8.458,8.458,0,0,1,1.9-3.9" transform="translate(-0.999 -0.995)"/></g></g></g></g></svg>