<svg xmlns="http://www.w3.org/2000/svg" xmlns:xlink="http://www.w3.org/1999/xlink" width="830" height="191" viewBox="0 0 830 191"><defs><style>.a,.k{fill:none;}.b{fill:#c20a2b;}.c{fill:#dd3a57;}.d,.g,.j{fill:#fff;}.d{font-size:32px;font-family:Calibri-Bold, Calibri;}.d,.g{font-weight:700;}.e{fill:#00acb3;}.f{fill:#0185b6;}.g{font-size:53px;font-family:SegoeScript-Bold, Segoe Script;}.h{font-family:AgencyFB-Bold, Agency FB;}.i{clip-path:url(#k);}.j{fill-rule:evenodd;}.k{stroke:rgba(255,255,255,0.2);stroke-width:2px;}.l{stroke:none;}.m{filter:url(#l);}.n{filter:url(#i);}.o{filter:url(#g);}.p{filter:url(#e);}.q{filter:url(#c);}.r{filter:url(#a);}</style><filter id="a" x="225" y="78" width="605" height="113" filterUnits="userSpaceOnUse"><feOffset dy="3" input="SourceAlpha"/><feGaussianBlur stdDeviation="3" result="b"/><feFlood flood-opacity="0.161"/><feComposite operator="in" in2="b"/><feComposite in="SourceGraphic"/></filter><filter id="c" x="225" y="107" width="426" height="71" filterUnits="userSpaceOnUse"><feOffset dy="3" input="SourceAlpha"/><feGaussianBlur stdDeviation="3" result="d"/><feFlood flood-opacity="0.161"/><feComposite operator="in" in2="d"/><feComposite in="SourceGraphic"/></filter><filter id="e" x="145" y="93" width="98" height="98" filterUnits="userSpaceOnUse"><feOffset dy="3" input="SourceAlpha"/><feGaussianBlur stdDeviation="3" result="f"/><feFlood flood-opacity="0.161"/><feComposite operator="in" in2="f"/><feComposite in="SourceGraphic"/></filter><filter id="g" x="0" y="0" width="830" height="111" filterUnits="userSpaceOnUse"><feOffset dy="3" input="SourceAlpha"/><feGaussianBlur stdDeviation="3" result="h"/><feFlood flood-opacity="0.161"/><feComposite operator="in" in2="h"/><feComposite in="SourceGraphic"/></filter><filter id="i" x="56" y="5" width="587" height="102" filterUnits="userSpaceOnUse"><feOffset dy="3" input="SourceAlpha"/><feGaussianBlur stdDeviation="3" result="j"/><feFlood flood-opacity="0.161"/><feComposite operator="in" in2="j"/><feComposite in="SourceGraphic"/></filter><clipPath id="k"><rect class="a" width="60" height="60"/></clipPath><filter id="l" x="8" y="6" width="814" height="99" filterUnits="userSpaceOnUse"><feOffset dy="3" input="SourceAlpha"/><feGaussianBlur stdDeviation="3" result="m"/><feFlood flood-opacity="0.161"/><feComposite operator="in" in2="m"/><feComposite in="SourceGraphic"/></filter></defs><g transform="translate(-959 -2703)"><g class="r" transform="matrix(1, 0, 0, 1, 959, 2703)"><path class="b" d="M0,0H587a0,0,0,0,1,0,0V82a13,13,0,0,1-13,13H0a0,0,0,0,1,0,0V0A0,0,0,0,1,0,0Z" transform="translate(234 84)"/></g><g class="q" transform="matrix(1, 0, 0, 1, 959, 2703)"><path class="c" d="M13,0H408a0,0,0,0,1,0,0V53a0,0,0,0,1,0,0H13A13,13,0,0,1,0,40V13A13,13,0,0,1,13,0Z" transform="translate(642 166) rotate(180)"/></g><text class="d" transform="translate(1215 2852)"><tspan x="0" y="0">FOR THESE GOOD REASONS</tspan></text><g class="p" transform="matrix(1, 0, 0, 1, 959, 2703)"><path class="e" d="M0,0H80a0,0,0,0,1,0,0V67A13,13,0,0,1,67,80H0a0,0,0,0,1,0,0V0A0,0,0,0,1,0,0Z" transform="translate(234 99) rotate(90)"/></g><g class="o" transform="matrix(1, 0, 0, 1, 959, 2703)"><rect class="f" width="812" height="93" rx="13" transform="translate(821 99) rotate(180)"/></g><g class="n" transform="matrix(1, 0, 0, 1, 959, 2703)"><text class="g" transform="translate(65 69)"><tspan x="0" y="0">Why choose </tspan><tspan class="h" y="0">HAPPYBOX</tspan><tspan y="0">?</tspan></text></g><g transform="translate(1123 2812)"><g transform="translate(30 30)"><g class="i" transform="translate(-30 -30)"><path class="j" d="M30,2A28,28,0,1,0,58,30,28,28,0,0,0,30,2M47.3,30v.1a2.8,2.8,0,0,1-.8,2L35.1,43.5a2.8,2.8,0,0,1-3.9-3.9l6.7-6.7H15.5a2.8,2.8,0,0,1,0-5.6H37.9l-6.7-6.7h-.1a2.8,2.8,0,1,1,4-3.8L46.5,28a2.8,2.8,0,0,1,.8,2v.1"/></g></g></g><g class="m" transform="matrix(1, 0, 0, 1, 959, 2703)"><g class="k" transform="translate(813 93) rotate(180)"><rect class="l" width="796" height="81" rx="13"/><rect class="a" x="1" y="1" width="794" height="79" rx="12"/></g></g></g></svg>