<svg xmlns="http://www.w3.org/2000/svg" xmlns:xlink="http://www.w3.org/1999/xlink" width="298" height="83" viewBox="0 0 298 83"><defs><style>.a,.i{fill:none;}.b{fill:#c20a2b;}.c{fill:#dd3a57;}.d,.g,.k{fill:#fff;}.d{font-size:14px;font-family:Calibri-Bold, Calibri;}.d,.g{font-weight:700;}.e{fill:#00acb3;}.f{fill:#0185b6;}.g{font-size:20px;font-family:SegoeScript-Bold, Segoe Script;}.h{font-family:AgencyFB-Bold, Agency FB;}.i{stroke:rgba(255,255,255,0.2);}.j{clip-path:url(#m);}.k{fill-rule:evenodd;}.l{stroke:none;}.m{filter:url(#k);}.n{filter:url(#i);}.o{filter:url(#g);}.p{filter:url(#e);}.q{filter:url(#c);}.r{filter:url(#a);}</style><filter id="a" x="85" y="35" width="213" height="48" filterUnits="userSpaceOnUse"><feOffset dy="3" input="SourceAlpha"/><feGaussianBlur stdDeviation="3" result="b"/><feFlood flood-opacity="0.161"/><feComposite operator="in" in2="b"/><feComposite in="SourceGraphic"/></filter><filter id="c" x="85" y="40" width="192" height="38" filterUnits="userSpaceOnUse"><feOffset dy="3" input="SourceAlpha"/><feGaussianBlur stdDeviation="3" result="d"/><feFlood flood-opacity="0.161"/><feComposite operator="in" in2="d"/><feComposite in="SourceGraphic"/></filter><filter id="e" x="55" y="35" width="48" height="48" filterUnits="userSpaceOnUse"><feOffset dy="3" input="SourceAlpha"/><feGaussianBlur stdDeviation="3" result="f"/><feFlood flood-opacity="0.161"/><feComposite operator="in" in2="f"/><feComposite in="SourceGraphic"/></filter><filter id="g" x="0" y="0" width="298" height="53" filterUnits="userSpaceOnUse"><feOffset dy="3" input="SourceAlpha"/><feGaussianBlur stdDeviation="3" result="h"/><feFlood flood-opacity="0.161"/><feComposite operator="in" in2="h"/><feComposite in="SourceGraphic"/></filter><filter id="i" x="12" y="1" width="238" height="50" filterUnits="userSpaceOnUse"><feOffset dy="3" input="SourceAlpha"/><feGaussianBlur stdDeviation="3" result="j"/><feFlood flood-opacity="0.161"/><feComposite operator="in" in2="j"/><feComposite in="SourceGraphic"/></filter><filter id="k" x="2" y="2" width="296" height="49" filterUnits="userSpaceOnUse"><feOffset dy="3" input="SourceAlpha"/><feGaussianBlur stdDeviation="3" result="l"/><feFlood flood-opacity="0.161"/><feComposite operator="in" in2="l"/><feComposite in="SourceGraphic"/></filter><clipPath id="m"><rect class="a" width="23" height="23"/></clipPath></defs><g transform="translate(-86 -2756)"><g class="r" transform="matrix(1, 0, 0, 1, 86, 2756)"><rect class="b" width="195" height="30" transform="translate(94 41)"/></g><g class="q" transform="matrix(1, 0, 0, 1, 86, 2756)"><path class="c" d="M0,0H169a5,5,0,0,1,5,5V15a5,5,0,0,1-5,5H0a0,0,0,0,1,0,0V0A0,0,0,0,1,0,0Z" transform="translate(94 46)"/></g><text class="d" transform="translate(187 2817)"><tspan x="0" y="0">FOR THESE GOOD REASONS</tspan></text><g class="p" transform="matrix(1, 0, 0, 1, 86, 2756)"><path class="e" d="M0,0H30a0,0,0,0,1,0,0V30a0,0,0,0,1,0,0H8a8,8,0,0,1-8-8V0A0,0,0,0,1,0,0Z" transform="translate(64 41)"/></g><g class="o" transform="matrix(1, 0, 0, 1, 86, 2756)"><path class="f" d="M8,0H280a0,0,0,0,1,0,0V35a0,0,0,0,1,0,0H8a8,8,0,0,1-8-8V8A8,8,0,0,1,8,0Z" transform="translate(9 6)"/></g><g class="n" transform="matrix(1, 0, 0, 1, 86, 2756)"><text class="g" transform="translate(21 29)"><tspan x="0" y="0">Why Choose </tspan><tspan class="h" y="0">HAPPYBOX</tspan><tspan y="0">?</tspan></text></g><g class="m" transform="matrix(1, 0, 0, 1, 86, 2756)"><g class="i" transform="translate(11 8)"><path class="l" d="M6,0H278a0,0,0,0,1,0,0V31a0,0,0,0,1,0,0H6a6,6,0,0,1-6-6V6A6,6,0,0,1,6,0Z"/><path class="a" d="M6,.5H277a.5.5,0,0,1,.5.5V30a.5.5,0,0,1-.5.5H6A5.5,5.5,0,0,1,.5,25V6A5.5,5.5,0,0,1,6,.5Z"/></g></g><g transform="translate(164.5 2812.5)"><g class="j" transform="translate(-11.5 -11.5)"><path class="k" d="M12.733,2A10.733,10.733,0,1,0,23.467,12.733,10.733,10.733,0,0,0,12.733,2m6.632,10.733a.153.153,0,0,1,0,.038,1.073,1.073,0,0,1-.307.767l-4.37,4.37a1.073,1.073,0,0,1-1.533-1.5l2.568-2.568H7.175a1.073,1.073,0,0,1,0-2.147h8.587L13.193,9.13h-.038a1.073,1.073,0,1,1,1.533-1.457l4.37,4.293a1.073,1.073,0,0,1,.307.767.153.153,0,0,1,0,.038" transform="translate(-1.233 -1.233)"/></g></g></g></svg>