<svg xmlns="http://www.w3.org/2000/svg" xmlns:xlink="http://www.w3.org/1999/xlink" width="980" height="191" viewBox="0 0 980 191"><defs><style>.a,.k{fill:none;}.b{fill:#c20a2b;}.c{fill:#dd3a57;}.d,.g,.j{fill:#fff;}.d{font-size:32px;font-family:Calibri-Bold, Calibri;}.d,.g{font-weight:700;}.e{fill:#00acb3;}.f{fill:#0185b6;}.g{font-size:55px;font-family:SegoeScript-Bold, Segoe Script;}.h{font-family:AgencyFB-Bold, Agency FB;}.i{clip-path:url(#k);}.j{fill-rule:evenodd;}.k{stroke:rgba(255,255,255,0.2);stroke-width:2px;}.l{stroke:none;}.m{filter:url(#l);}.n{filter:url(#i);}.o{filter:url(#g);}.p{filter:url(#e);}.q{filter:url(#c);}.r{filter:url(#a);}</style><filter id="a" x="225" y="93" width="745" height="98" filterUnits="userSpaceOnUse"><feOffset dy="3" input="SourceAlpha"/><feGaussianBlur stdDeviation="3" result="b"/><feFlood flood-opacity="0.161"/><feComposite operator="in" in2="b"/><feComposite in="SourceGraphic"/></filter><filter id="c" x="225" y="107" width="426" height="71" filterUnits="userSpaceOnUse"><feOffset dy="3" input="SourceAlpha"/><feGaussianBlur stdDeviation="3" result="d"/><feFlood flood-opacity="0.161"/><feComposite operator="in" in2="d"/><feComposite in="SourceGraphic"/></filter><filter id="e" x="145" y="93" width="98" height="98" filterUnits="userSpaceOnUse"><feOffset dy="3" input="SourceAlpha"/><feGaussianBlur stdDeviation="3" result="f"/><feFlood flood-opacity="0.161"/><feComposite operator="in" in2="f"/><feComposite in="SourceGraphic"/></filter><filter id="g" x="0" y="0" width="970" height="111" filterUnits="userSpaceOnUse"><feOffset dy="3" input="SourceAlpha"/><feGaussianBlur stdDeviation="3" result="h"/><feFlood flood-opacity="0.161"/><feComposite operator="in" in2="h"/><feComposite in="SourceGraphic"/></filter><filter id="i" x="42" y="4" width="609" height="105" filterUnits="userSpaceOnUse"><feOffset dy="3" input="SourceAlpha"/><feGaussianBlur stdDeviation="3" result="j"/><feFlood flood-opacity="0.161"/><feComposite operator="in" in2="j"/><feComposite in="SourceGraphic"/></filter><clipPath id="k"><rect class="a" width="60" height="60"/></clipPath><filter id="l" x="8" y="6" width="972" height="99" filterUnits="userSpaceOnUse"><feOffset dy="3" input="SourceAlpha"/><feGaussianBlur stdDeviation="3" result="m"/><feFlood flood-opacity="0.161"/><feComposite operator="in" in2="m"/><feComposite in="SourceGraphic"/></filter></defs><g transform="translate(-959 -2750)"><g class="r" transform="matrix(1, 0, 0, 1, 959, 2750)"><rect class="b" width="727" height="80" transform="translate(234 99)"/></g><g class="q" transform="matrix(1, 0, 0, 1, 959, 2750)"><path class="c" d="M13,0H408a0,0,0,0,1,0,0V53a0,0,0,0,1,0,0H13A13,13,0,0,1,0,40V13A13,13,0,0,1,13,0Z" transform="translate(642 166) rotate(180)"/></g><text class="d" transform="translate(1215 2899)"><tspan x="0" y="0">FOR THESE GOOD REASONS</tspan></text><g class="p" transform="matrix(1, 0, 0, 1, 959, 2750)"><path class="e" d="M0,0H80a0,0,0,0,1,0,0V67A13,13,0,0,1,67,80H0a0,0,0,0,1,0,0V0A0,0,0,0,1,0,0Z" transform="translate(234 99) rotate(90)"/></g><g class="o" transform="matrix(1, 0, 0, 1, 959, 2750)"><path class="f" d="M0,0H939a13,13,0,0,1,13,13V80a13,13,0,0,1-13,13H0a0,0,0,0,1,0,0V0A0,0,0,0,1,0,0Z" transform="translate(961 99) rotate(180)"/></g><g class="n" transform="matrix(1, 0, 0, 1, 959, 2750)"><text class="g" transform="translate(51 70)"><tspan x="0" y="0">Why choose </tspan><tspan class="h" y="0">HAPPYBOX</tspan><tspan y="0">?</tspan></text></g><g transform="translate(1123 2859)"><g transform="translate(30 30)"><g class="i" transform="translate(-30 -30)"><path class="j" d="M30,2A28,28,0,1,0,58,30,28,28,0,0,0,30,2M47.3,30v.1a2.8,2.8,0,0,1-.8,2L35.1,43.5a2.8,2.8,0,0,1-3.9-3.9l6.7-6.7H15.5a2.8,2.8,0,0,1,0-5.6H37.9l-6.7-6.7h-.1a2.8,2.8,0,1,1,4-3.8L46.5,28a2.8,2.8,0,0,1,.8,2v.1"/></g></g></g><g class="m" transform="matrix(1, 0, 0, 1, 959, 2750)"><g class="k" transform="translate(971 93) rotate(180)"><path class="l" d="M0,0H944a10,10,0,0,1,10,10V71a10,10,0,0,1-10,10H0a0,0,0,0,1,0,0V0A0,0,0,0,1,0,0Z"/><path class="a" d="M2,1H944a9,9,0,0,1,9,9V71a9,9,0,0,1-9,9H2a1,1,0,0,1-1-1V2A1,1,0,0,1,2,1Z"/></g></g></g></svg>