<svg xmlns="http://www.w3.org/2000/svg" xmlns:xlink="http://www.w3.org/1999/xlink" width="75" height="75" viewBox="0 0 75 75"><defs><style>.a{fill:none;}.b{fill:#00acb3;}.c{clip-path:url(#a);}.d{fill:#fff;}</style><clipPath id="a"><rect class="a" width="75" height="75" transform="translate(0 0)"/></clipPath></defs><g transform="translate(-1816 -3980)"><rect class="b" width="70" height="70" rx="13" transform="translate(1819 3983)"/><g transform="translate(1853.5 4017.5) rotate(-90)"><g class="c" transform="translate(-37.5 -37.5)"><path class="d" d="M.84.715H.715a2.5,2.5,0,0,0,0,3.5l18,18.125a2.5,2.5,0,0,1,0,3.5l-18,18a2.5,2.5,0,0,0,0,3.5H.84a2.5,2.5,0,0,0,3.5,0l21.625-21.5a2.5,2.5,0,0,0,0-3.5L4.34.715a2.5,2.5,0,0,0-3.5,0" transform="translate(24.16 13.41)"/></g></g></g></svg>