<svg xmlns="http://www.w3.org/2000/svg" xmlns:xlink="http://www.w3.org/1999/xlink" width="316" height="60" viewBox="0 0 316 60"><defs><style>.a{fill:none;}.b{fill:#fa683d;}.c{fill:#fc7a54;}.d,.g{fill:#fff;}.d{font-size:20px;font-family:Calibri-Bold, Calibri;font-weight:700;}.e{fill:#00acb3;}.f{clip-path:url(#e);}.h{filter:url(#c);}.i{filter:url(#a);}</style><filter id="a" x="49" y="4" width="264" height="56" filterUnits="userSpaceOnUse"><feOffset dy="3" input="SourceAlpha"/><feGaussianBlur stdDeviation="3" result="b"/><feFlood flood-opacity="0.161"/><feComposite operator="in" in2="b"/><feComposite in="SourceGraphic"/></filter><filter id="c" x="64" y="10" width="236" height="42" filterUnits="userSpaceOnUse"><feOffset dy="3" input="SourceAlpha"/><feGaussianBlur stdDeviation="3" result="d"/><feFlood flood-opacity="0.161"/><feComposite operator="in" in2="d"/><feComposite in="SourceGraphic"/></filter><clipPath id="e"><rect class="a" width="38" height="38"/></clipPath></defs><rect class="b" width="316" height="58" rx="13" transform="translate(316 58) rotate(180)"/><g class="i" transform="matrix(1, 0, 0, 1, 0, 0)"><path class="c" d="M10,0H246a0,0,0,0,1,0,0V38a0,0,0,0,1,0,0H10A10,10,0,0,1,0,28V10A10,10,0,0,1,10,0Z" transform="translate(304 48) rotate(180)"/></g><g class="h" transform="matrix(1, 0, 0, 1, 0, 0)"><text class="d" transform="translate(73 35)"><tspan x="0" y="0">REGISTER YOUR VOUCHER</tspan></text></g><path class="e" d="M0,0H45A13,13,0,0,1,58,13V45A13,13,0,0,1,45,58H0a0,0,0,0,1,0,0V0A0,0,0,0,1,0,0Z" transform="translate(58 58) rotate(180)"/><g transform="translate(10 10)"><g transform="translate(19 19)"><g class="f" transform="translate(-19 -19)"><path class="g" d="M26.573,10.864l.95-.443a4.813,4.813,0,0,0,1.583-6.65h-.063A4.5,4.5,0,0,0,25.243,2a5.32,5.32,0,0,0-2.977.887A8.613,8.613,0,0,0,19.8,6.747,8.993,8.993,0,0,0,17.263,2.82,5.32,5.32,0,0,0,14.287,2,4.5,4.5,0,0,0,10.55,3.77a4.813,4.813,0,0,0,1.457,6.587h.063l.823.507H2v7.41H4.85V34.487a2.977,2.977,0,0,0,2.913,3.04H16.82V17.957h5.763v19.57H31.64a2.977,2.977,0,0,0,2.977-2.977V18.337h2.85V10.864Zm-9.88-1.52a7.093,7.093,0,0,1-3.547-.57A2.85,2.85,0,0,1,12.133,4.91a2.533,2.533,0,0,1,2.153-1.077,3.293,3.293,0,0,1,1.773.633A11.907,11.907,0,0,1,18.467,9.28l-1.773.127Zm6.65-4.877a3.293,3.293,0,0,1,1.773-.633A2.533,2.533,0,0,1,27.27,4.91a2.85,2.85,0,0,1-1.013,3.863,6.9,6.9,0,0,1-3.547.57H20.937A10.7,10.7,0,0,1,23.343,4.4" transform="translate(-0.733 -0.73)"/></g></g></g></svg>