<svg xmlns="http://www.w3.org/2000/svg" xmlns:xlink="http://www.w3.org/1999/xlink" width="55" height="55" viewBox="0 0 55 55"><defs><style>.a{fill:none;}.b{clip-path:url(#a);}.c{fill:#fff;}</style><clipPath id="a"><rect class="a" width="55" height="55" transform="translate(-0.229)"/></clipPath></defs><g transform="translate(27.729 27.5)"><g class="b" transform="translate(-27.5 -27.5)"><path d="M53.333,27.667A25.667,25.667,0,1,1,27.667,2,25.667,25.667,0,0,1,53.333,27.667" transform="translate(-0.167 -0.167)"/><path class="c" d="M28.65,17.067h5.958a8.25,8.25,0,0,1,2.75.55A4.95,4.95,0,0,1,40.2,20.458a8.25,8.25,0,0,1,.55,2.75c.092,1.558.092,2.017.092,5.958s0,4.4-.092,5.958a8.25,8.25,0,0,1-.55,2.75,4.95,4.95,0,0,1-2.842,2.842,8.25,8.25,0,0,1-2.75.55H22.692a8.25,8.25,0,0,1-2.75-.55A4.95,4.95,0,0,1,17.1,37.875a8.25,8.25,0,0,1-.55-2.75c-.092-1.558-.092-2.017-.092-5.958s0-4.4.092-5.958a8.25,8.25,0,0,1,.55-2.75,4.95,4.95,0,0,1,2.842-2.75,8.25,8.25,0,0,1,2.75-.55H28.65m0-2.658H22.6a10.908,10.908,0,0,0-3.575.733,7.608,7.608,0,0,0-4.4,4.308,10.908,10.908,0,0,0-.733,3.575c-.092,1.558-.092,2.108-.092,6.142s0,4.492.092,6.142a10.908,10.908,0,0,0,.733,3.575,7.608,7.608,0,0,0,4.308,4.308,10.908,10.908,0,0,0,3.575.733H34.792a10.908,10.908,0,0,0,3.575-.733,7.608,7.608,0,0,0,4.308-4.308,10.908,10.908,0,0,0,.733-3.575c.092-1.558.092-2.108.092-6.142s0-4.492-.092-6.142a10.908,10.908,0,0,0-.733-3.575,7.608,7.608,0,0,0-4.308-4.308,10.908,10.908,0,0,0-3.575-.733H28.65" transform="translate(-1.15 -1.208)"/><path class="c" d="M29.308,22.3a7.608,7.608,0,1,0,7.608,7.608A7.608,7.608,0,0,0,29.308,22.3m0,12.558a4.95,4.95,0,1,1,4.95-4.95,4.95,4.95,0,0,1-4.95,4.95" transform="translate(-1.808 -1.858)"/><path class="c" d="M40.283,21.742A1.742,1.742,0,1,1,38.542,20a1.742,1.742,0,0,1,1.742,1.742" transform="translate(-3.067 -1.667)"/></g></g></svg>