<svg xmlns="http://www.w3.org/2000/svg" xmlns:xlink="http://www.w3.org/1999/xlink" width="50" height="50" viewBox="0 0 50 50"><defs><style>.a,.e{fill:none;}.b{clip-path:url(#a);}.c{fill-rule:evenodd;}.d{fill:#fff;}.e{stroke:#000;stroke-miterlimit:10;stroke-width:0.833px;}</style><clipPath id="a"><rect class="a" width="50" height="50"/></clipPath></defs><g transform="translate(25 25)"><g class="b" transform="translate(-25 -25)"><path d="M2.081,14.5A1.261,1.261,0,1,1,2.414,12l2.167.333A5.25,5.25,0,0,1,9,16.664l.333,2.167H38.164a2.25,2.25,0,0,1,2.167,3L35.748,36.5A4,4,0,0,1,32,39.248H12.831v.333a2.583,2.583,0,0,0,2.583,2.25H34.748A1.333,1.333,0,0,1,36,43.164a1.25,1.25,0,0,1-1.25,1.167H15.414a5.083,5.083,0,0,1-5.083-4.25l-3.75-23a2.75,2.75,0,0,0-2.25-2.25Z" transform="translate(-0.164 -1.998)"/><path class="c" d="M16.267,52A2.667,2.667,0,1,1,13.6,54.667,2.667,2.667,0,0,1,16.267,52" transform="translate(-2.267 -8.667)"/><path class="c" d="M38.383,52A2.667,2.667,0,1,1,35.8,54.666,2.667,2.667,0,0,1,38.383,52" transform="translate(-5.967 -8.666)"/><path class="d" d="M54,11A10,10,0,1,1,44,1,10,10,0,0,1,54,11" transform="translate(-5.667 -0.167)"/><circle class="e" cx="10" cy="10" r="10" transform="translate(28.333 0.833)"/></g></g></svg>