<svg xmlns="http://www.w3.org/2000/svg" xmlns:xlink="http://www.w3.org/1999/xlink" width="100" height="100" viewBox="0 0 100 100"><defs><style>.a{fill:none;}.b{clip-path:url(#a);}.c,.e{fill:#00acb3;}.c{fill-rule:evenodd;}.d{fill:#fff;}</style><clipPath id="a"><rect class="a" width="100" height="100"/></clipPath></defs><g transform="translate(50 50)"><g class="b" transform="translate(-50 -50)"><path class="c" d="M95.333,48.667A46.667,46.667,0,1,1,48.667,2,46.667,46.667,0,0,1,95.333,48.667" transform="translate(1.333 1.333)"/><path class="d" d="M40.267,10,14.6,18.667v24a33.167,33.167,0,0,0,4.167,16,32.167,32.167,0,0,0,11.5,12l10,6,10-6a32.5,32.5,0,0,0,15.667-28v-24Z" transform="translate(9.733 6.667)"/><path class="e" d="M51.855,23.565a2.833,2.833,0,0,0-4.167,0l-16,16.333-6.5-6.833a2.888,2.888,0,0,0-4.167,4L29.355,45.9l.833.667h.167l1.5.333a2.833,2.833,0,0,0,2-.833l18-18.333a2.833,2.833,0,0,0,0-4.167" transform="translate(13.478 15.101)"/></g></g></svg>