<svg xmlns="http://www.w3.org/2000/svg" xmlns:xlink="http://www.w3.org/1999/xlink" width="100" height="100" viewBox="0 0 100 100"><defs><style>.a{fill:none;}.b{clip-path:url(#a);}.c{fill:#c20a2b;fill-rule:evenodd;}.d{fill:#fff;}</style><clipPath id="a"><rect class="a" width="100" height="100"/></clipPath></defs><g transform="translate(50 50)"><g class="b" transform="translate(-50 -50)"><path class="c" d="M95.333,48.667A46.667,46.667,0,1,1,48.667,2,46.667,46.667,0,0,1,95.333,48.667" transform="translate(1.333 1.333)"/><path class="d" d="M32,20.7a5,5,0,1,0-5-5,5,5,0,0,0,5,5" transform="translate(18 7.133)"/><path class="d" d="M32,43.3a5,5,0,1,0,5,5,5,5,0,0,0-5-5" transform="translate(18 28.867)"/><path class="d" d="M48.4,27a5,5,0,1,0,5,5,5,5,0,0,0-5-5" transform="translate(28.933 18)"/><path class="d" d="M20.7,32a5,5,0,1,0-5,5,5,5,0,0,0,5-5" transform="translate(7.133 18)"/><path class="d" d="M43.5,25.5a5,5,0,1,0-5-5,5,5,0,0,0,5,5" transform="translate(25.667 10.333)"/><path class="d" d="M20.5,38.5a5,5,0,1,0,5,5,5,5,0,0,0-5-5" transform="translate(10.333 25.667)"/><path class="d" d="M43.5,38.5a5,5,0,1,0,5,5,5,5,0,0,0-5-5" transform="translate(25.667 25.667)"/><path class="d" d="M20.5,15.5a5,5,0,1,0,5,5,5,5,0,0,0-5-5" transform="translate(10.333 10.333)"/><path class="d" d="M39.459,33.6h-.833a1.833,1.833,0,0,0-1.667-1.167h-.833A1.833,1.833,0,0,0,34.293,31.1h-.667V23.933a1.833,1.833,0,1,0-3.667,0v11s0,.5-.167,0-1.667-3-3-3l-1.167.5c-1.667,1.333.833,4.333,1.333,5.833l.833,2.167A16.5,16.5,0,0,0,29.626,44.1a6.167,6.167,0,0,1,1.333,3.833.333.333,0,0,0,.333.333h7.5a.333.333,0,0,0,.333-.333,5.667,5.667,0,0,1,.833-2.167A9.333,9.333,0,0,0,41.293,41.6V38.933h0v-3.5A1.833,1.833,0,0,0,39.459,33.6" transform="translate(16.707 14.733)"/></g></g></svg>