<svg xmlns="http://www.w3.org/2000/svg" xmlns:xlink="http://www.w3.org/1999/xlink" width="35" height="35" viewBox="0 0 35 35"><defs><style>.a{fill:none;}.b{clip-path:url(#a);}.c{fill:#0185b6;}</style><clipPath id="a"><rect class="a" width="35" height="35"/></clipPath></defs><g transform="translate(17.5 17.5)"><g class="b" transform="translate(-17.5 -17.5)"><path class="c" d="M31.666,5.054H29.041V8.087a2.275,2.275,0,0,1-4.55,0V5.054H13.758V8.087a2.333,2.333,0,0,1-2.275,2.392A2.333,2.333,0,0,1,9.208,8.087V5.054H6.583A2.742,2.742,0,0,0,3.9,7.854V31.887a2.742,2.742,0,0,0,2.683,2.8H31.666a2.742,2.742,0,0,0,2.683-2.8V7.854a2.742,2.742,0,0,0-2.683-2.8m1.108,26.833a1.108,1.108,0,0,1-1.108,1.167H6.583a1.108,1.108,0,0,1-1.108-1.167V13.337H32.833v18.55ZM11.483,9.254a1.108,1.108,0,0,0,1.108-1.167v-4.9a1.108,1.108,0,1,0-2.217,0v4.9a1.108,1.108,0,0,0,1.108,1.167m15.283,0a1.108,1.108,0,0,0,1.108-1.167v-4.9a1.138,1.138,0,0,0-2.275,0v4.9a1.167,1.167,0,0,0,1.108,1.167M7.633,31.537h4.2V27.046h-4.2Zm6.3,0h4.2V27.046h-4.2Zm6.3,0h4.2V27.046h-4.2Zm6.242-6.067h4.2v-4.55h-4.2Zm-18.9,0h4.2v-4.55h-4.2Zm6.3,0h4.2v-4.55h-4.2Zm6.3,0h4.2v-4.55h-4.2Zm6.3-6.008h4.2V14.971h-4.2Zm-12.6,0h4.2V14.971h-4.2Zm6.3,0h4.2V14.971h-4.2Z" transform="translate(-1.625 -0.854)"/></g></g></svg>