<svg xmlns="http://www.w3.org/2000/svg" xmlns:xlink="http://www.w3.org/1999/xlink" width="30" height="30" viewBox="0 0 30 30"><defs><style>.a{fill:none;}.b{clip-path:url(#a);}.c{fill:#00acb3;fill-rule:evenodd;}</style><clipPath id="a"><rect class="a" width="30" height="30"/></clipPath></defs><g transform="translate(15 15)"><g class="b" transform="translate(-15 -15)"><path class="c" d="M15.85,30A14.15,14.15,0,1,1,30,15.85,14.15,14.15,0,0,1,15.85,30m6.4-18.8a1.05,1.05,0,0,0-1.5,0L14,18.15l-3-3.1a1.05,1.05,0,0,0-1.5,0,1.1,1.1,0,0,0,0,1.55l3.8,3.9a1.05,1.05,0,0,0,1.5,0l7.5-7.7a1.15,1.15,0,0,0-.05-1.55" transform="translate(-0.85 -0.85)"/></g></g></svg>