<svg xmlns="http://www.w3.org/2000/svg" xmlns:xlink="http://www.w3.org/1999/xlink" width="25" height="25" viewBox="0 0 25 25"><defs><style>.a{fill:none;}.b{clip-path:url(#a);}.c{fill:#00acb3;fill-rule:evenodd;}.d{fill:#fff;}</style><clipPath id="a"><rect class="a" width="25" height="25"/></clipPath></defs><g transform="translate(12.5 12.5)"><g class="b" transform="translate(-12.5 -12.5)"><path class="c" d="M25.333,13.667A11.667,11.667,0,1,1,13.667,2,11.667,11.667,0,0,1,25.333,13.667" transform="translate(-1.167 -1.167)"/><path class="d" d="M26.336,20.162,25.669,22.5a.529.529,0,0,0,.5.667h.125l2.375-.667.208-.125,4.25-4.292a1.667,1.667,0,0,0,0-2.375h-.042a1.667,1.667,0,0,0-2.375,0l-4.25,4.25a.458.458,0,0,0-.125.208m.917.417,4.167-4.167a.655.655,0,0,1,.958,0h.083a.667.667,0,0,1,0,.958l-4.167,4.167-1.375.375Z" transform="translate(-14.961 -8.871)"/><path class="d" d="M16.867,29.692h7.5a1.667,1.667,0,0,0,1.667-1.667V24.442a.5.5,0,0,0-1,0v3.625a.667.667,0,0,1-.667.667h-7.5a.667.667,0,0,1-.667-.667v-7.5a.667.667,0,0,1,.667-.667h3.625a.5.5,0,1,0,0-1H16.867A1.667,1.667,0,0,0,15.2,20.567v7.5a1.667,1.667,0,0,0,1.667,1.667" transform="translate(-8.867 -11.025)"/></g></g></svg>