<svg xmlns="http://www.w3.org/2000/svg" xmlns:xlink="http://www.w3.org/1999/xlink" width="55" height="55" viewBox="0 0 55 55"><defs><style>.a{fill:none;}.b{clip-path:url(#a);}.c{fill:#fff;}</style><clipPath id="a"><rect class="a" width="55" height="55" transform="translate(-0.229)"/></clipPath></defs><g transform="translate(27.729 27.5)"><g class="b" transform="translate(-27.5 -27.5)"><path d="M53.333,27.667A25.667,25.667,0,1,1,27.667,2,25.667,25.667,0,0,1,53.333,27.667" transform="translate(-0.167 -0.167)"/><rect class="c" width="5.592" height="18.095" transform="translate(15.308 22.275)"/><path class="c" d="M19.5,21.1a3.346,3.346,0,1,1,0-.092" transform="translate(-1.35 -1.208)"/><path class="c" d="M32.117,32.867c0-2.567,1.192-4.033,3.392-4.033s3.025,1.467,3.025,4.033v9.442h5.592V30.85c0-4.858-2.75-7.15-6.6-7.15a6.325,6.325,0,0,0-5.408,3.025V24.25H26.8V42.308h5.408Z" transform="translate(-2.233 -1.975)"/></g></g></svg>