<svg xmlns="http://www.w3.org/2000/svg" xmlns:xlink="http://www.w3.org/1999/xlink" width="143" height="95.333" viewBox="0 0 143 95.333"><defs><style>.a,.e{fill:none;}.b{fill:#fff;}.c{fill:#060;}.d{clip-path:url(#a);}.e{stroke:#000;stroke-miterlimit:10;stroke-width:0.157px;}.f{fill:#b00;}</style><clipPath id="a"><rect class="a" width="143" height="95.333"/></clipPath></defs><g transform="translate(71.5 47.667)"><g transform="translate(-71.5 -47.667)"><rect class="b" width="143" height="95.333"/><rect width="143" height="28.6"/><rect class="c" width="143" height="28.6" transform="translate(0 66.733)"/><g class="d"><path d="M114.3,91.681l1.049.62,27.79-48.239c1.621-.429,2.526-2,3.432-3.527a34.607,34.607,0,0,0,4-10.534,34.606,34.606,0,0,0-7.1,8.723c-.906,1.525-1.764,3.1-1.335,4.719Z" transform="translate(-59.817 -15.7)"/><path class="e" d="M114.3,91.681l1.049.62,27.79-48.239c1.621-.429,2.526-2,3.432-3.527a34.607,34.607,0,0,0,4-10.534,34.606,34.606,0,0,0-7.1,8.723c-.906,1.525-1.764,3.1-1.335,4.719Z" transform="translate(-59.817 -15.7)"/><path class="b" d="M114.3,91.681l1.049.62,27.79-48.239c1.621-.429,2.526-2,3.432-3.527a34.607,34.607,0,0,0,4-10.534,34.606,34.606,0,0,0-7.1,8.723c-.906,1.525-1.764,3.1-1.335,4.719Z" transform="translate(-59.817 -15.7)"/><path d="M145.874,91.681l-1.049.62-27.79-48.239c-1.621-.429-2.526-2-3.432-3.527A34.606,34.606,0,0,1,109.6,30a34.606,34.606,0,0,1,7.1,8.723c.906,1.525,1.764,3.1,1.335,4.719Z" transform="translate(-57.357 -15.7)"/><path class="e" d="M145.874,91.681l-1.049.62-27.79-48.239c-1.621-.429-2.526-2-3.432-3.527A34.606,34.606,0,0,1,109.6,30a34.606,34.606,0,0,1,7.1,8.723c.906,1.525,1.764,3.1,1.335,4.719Z" transform="translate(-57.357 -15.7)"/><path class="b" d="M145.874,91.681l-1.049.62-27.79-48.239c-1.621-.429-2.526-2-3.432-3.527A34.606,34.606,0,0,1,109.6,30a34.606,34.606,0,0,1,7.1,8.723c.906,1.525,1.764,3.1,1.335,4.719Z" transform="translate(-57.357 -15.7)"/><path class="f" d="M0,54.3V82.9H60.2c1.811,4.767,7.77,14.3,11.345,14.3s9.533-9.533,11.345-14.3H143V54.3H82.845C81.033,49.533,75.075,40,71.5,40s-9.533,9.533-11.3,14.3Z" transform="translate(0 -20.933)"/><path d="M170.608,98.6a40.466,40.466,0,0,0,3-14.3A41.461,41.461,0,0,0,170.655,70,41.461,41.461,0,0,0,167.7,84.3a40.466,40.466,0,0,0,3,14.3" transform="translate(-87.763 -36.633)"/><path d="M123.055,98.6A41.461,41.461,0,0,1,120.1,84.3a40.466,40.466,0,0,1,3-14.3,40.466,40.466,0,0,1,3,14.3,41.461,41.461,0,0,1-2.955,14.3" transform="translate(-62.852 -36.633)"/><path class="b" d="M147.383,92.5c1.335,0,2.383,1.621,2.383,3.575s-1.049,3.575-2.383,3.575S145,98.029,145,96.075s1.049-3.575,2.383-3.575" transform="translate(-75.883 -48.408)"/><path class="b" d="M151.3,107.3a30.285,30.285,0,0,1,2.383,12.536,30.285,30.285,0,0,1-2.383,12.536Z" transform="translate(-79.18 -56.154)"/><path class="b" d="M146.183,65.277A30.177,30.177,0,0,1,143.8,52.789,30.177,30.177,0,0,1,146.183,40.3Z" transform="translate(-75.255 -21.09)"/><path class="b" d="M146.183,107.3a30.285,30.285,0,0,0-2.383,12.536,30.285,30.285,0,0,0,2.383,12.536Z" transform="translate(-75.255 -56.154)"/><path class="b" d="M151.3,65.277a30.177,30.177,0,0,0,2.383-12.489A30.177,30.177,0,0,0,151.3,40.3Z" transform="translate(-79.18 -21.09)"/></g></g></g></svg>