<svg xmlns="http://www.w3.org/2000/svg" xmlns:xlink="http://www.w3.org/1999/xlink" width="45" height="45" viewBox="0 0 45 45"><defs><style>.a{fill:none;}.b{clip-path:url(#a);}.c{fill:#fa683d;fill-rule:evenodd;}</style><clipPath id="a"><rect class="a" width="45" height="45"/></clipPath></defs><g transform="translate(22.5 22.5)"><g class="b" transform="translate(-22.5 -22.5)"><path class="c" d="M22.925,44.15A21.225,21.225,0,1,1,44.15,22.925,21.225,21.225,0,0,1,22.925,44.15m9.6-28.2a1.575,1.575,0,0,0-2.25,0L20.15,26.375l-4.5-4.65a1.575,1.575,0,0,0-2.25,0,1.65,1.65,0,0,0,0,2.325l5.7,5.85a1.575,1.575,0,0,0,2.25,0L32.6,18.35a1.725,1.725,0,0,0-.075-2.325" transform="translate(-0.425 -0.425)"/></g></g></svg>