<?xml version="1.0" encoding="iso-8859-1"?>
<!-- Generator: Adobe Illustrator 16.0.0, SVG Export Plug-In . SVG Version: 6.00 Build 0)  -->
<!DOCTYPE svg PUBLIC "-//W3C//DTD SVG 1.1//EN" "http://www.w3.org/Graphics/SVG/1.1/DTD/svg11.dtd">
<svg version="1.1" id="Layer_1" xmlns="http://www.w3.org/2000/svg" xmlns:xlink="http://www.w3.org/1999/xlink" x="0px" y="0px"
	 width="55px" height="55px" viewBox="0 0 55 55" style="enable-background:new 0 0 55 55;" xml:space="preserve">
<g>
	<defs>
		<rect id="SVGID_1_" width="55" height="55"/>
	</defs>
	<clipPath id="SVGID_2_">
		<use xlink:href="#SVGID_1_"  style="overflow:visible;"/>
	</clipPath>
	<g style="clip-path:url(#SVGID_2_);enable-background:new    ;">
		<g>
			<defs>
				<rect id="SVGID_3_" x="-0.021" width="55.25" height="55"/>
			</defs>
			<clipPath id="SVGID_4_">
				<use xlink:href="#SVGID_3_"  style="overflow:visible;"/>
			</clipPath>
			<path style="clip-path:url(#SVGID_4_);" d="M53.396,27.5c0,14.175-11.492,25.666-25.668,25.666
				c-14.175,0-25.666-11.491-25.666-25.666c0-14.176,11.491-25.667,25.666-25.667C41.904,1.833,53.396,13.324,53.396,27.5"/>
			<rect x="15.537" y="22.275" style="clip-path:url(#SVGID_4_);fill:#FFFFFF;" width="5.592" height="18.095"/>
			<path style="clip-path:url(#SVGID_4_);fill:#FFFFFF;" d="M18.379,19.892c1.811,0,3.282-1.46,3.299-3.27
				c0.016-1.811-1.429-3.296-3.239-3.329c-1.811-0.034-3.309,1.397-3.359,3.207c0,1.823,1.477,3.301,3.3,3.301"/>
			<path style="clip-path:url(#SVGID_4_);fill:#FFFFFF;" d="M30.113,30.892c0-2.566,1.191-4.033,3.391-4.033
				c2.201,0,3.025,1.467,3.025,4.033v9.442h5.592V28.875c0-4.858-2.75-7.149-6.6-7.149c-2.207-0.005-4.258,1.142-5.408,3.024v-2.475
				h-5.317v18.059h5.409L30.113,30.892z"/>
		</g>
	</g>
</g>
</svg>
