<svg xmlns="http://www.w3.org/2000/svg" xmlns:xlink="http://www.w3.org/1999/xlink" width="39" height="39" viewBox="0 0 39 39"><defs><style>.a{fill:none;}.b{clip-path:url(#a);}.c{fill:#fff;}</style><clipPath id="a"><rect class="a" width="37" height="37"/></clipPath></defs><g transform="translate(18.5 18.5)"><g class="b" transform="translate(-18.5 -18.5)"><path class="c" d="M18.5,0A18.5,18.5,0,1,0,37,18.5,18.5,18.5,0,0,0,18.5,0m9.569,10.079a3.19,3.19,0,1,1-3.19,3.19,3.19,3.19,0,0,1,3.19-3.19M18.5,8.038a4.274,4.274,0,1,1-4.274,4.274A4.274,4.274,0,0,1,18.5,8.038M8.931,10.079a3.19,3.19,0,1,1-3.19,3.19,3.19,3.19,0,0,1,3.19-3.19m0,16.076c-3.509,0-6.634-.574-6.379-2.169.7-4.019,2.743-6.379,6.316-6.379a5.741,5.741,0,0,1,3.445,1.021l-.319.319A12.329,12.329,0,0,0,8.931,25.9a.7.7,0,0,0-.064.319m9.569,2.743c-4.657,0-8.8-.829-8.484-2.871.893-5.422,3.7-8.548,8.484-8.548s7.591,3.19,8.484,8.548c.319,2.041-3.764,2.871-8.484,2.871m9.7-2.807a2.763,2.763,0,0,1-.064-.319,13.028,13.028,0,0,0-3.062-6.89l-.383-.319a5.678,5.678,0,0,1,3.445-1.021c3.572,0,5.678,2.424,6.316,6.379.255,1.595-2.807,2.169-6.316,2.105"/></g></g></svg>