<svg xmlns="http://www.w3.org/2000/svg" xmlns:xlink="http://www.w3.org/1999/xlink" width="39" height="39" viewBox="0 0 39 39"><defs><style>.a,.d{fill:none;}.b{clip-path:url(#a);}.c{fill:#0185b6;}.d{stroke:#0185b6;stroke-miterlimit:10;stroke-width:0.661px;}</style><clipPath id="a"><rect class="a" width="39" height="39"/></clipPath></defs><g transform="translate(19.5 19.5)"><g class="b" transform="translate(-19.5 -19.5)"><path class="c" d="M27.229,13.1A4.429,4.429,0,1,1,22.8,17.529,4.429,4.429,0,0,1,27.229,13.1" transform="translate(-7.729 -4.441)"/><path class="c" d="M42.805,16.3A3.305,3.305,0,1,1,39.5,19.605,3.305,3.305,0,0,1,42.805,16.3" transform="translate(-13.39 -5.525)"/><path class="c" d="M49.314,34.708c-.661-4.164-2.842-6.61-6.544-6.61A5.883,5.883,0,0,0,39.2,29.156l.4.331a13.014,13.014,0,0,1,3.173,7.139,2.863,2.863,0,0,0,.066.331c3.636.066,6.808-.595,6.544-2.247" transform="translate(-13.288 -9.524)"/><path class="c" d="M12.805,16.3A3.305,3.305,0,1,1,9.5,19.605,3.305,3.305,0,0,1,12.805,16.3" transform="translate(-3.22 -5.525)"/><path class="c" d="M14.275,29.487l.331-.331A6.015,6.015,0,0,0,11.036,28.1c-3.7,0-5.883,2.446-6.544,6.61-.264,1.653,2.975,2.247,6.544,2.247a.727.727,0,0,1,.066-.331,13.46,13.46,0,0,1,3.173-7.205" transform="translate(-1.518 -9.524)"/><path class="c" d="M24.982,39.832c-4.825,0-9.122-.859-8.792-2.975C17.116,31.239,20.025,28,24.982,28s7.866,3.305,8.792,8.858c.331,2.115-3.9,2.975-8.792,2.975" transform="translate(-5.482 -9.492)"/><circle class="d" cx="19.169" cy="19.169" r="19.169" transform="translate(0.331 0.331)"/></g></g></svg>