<?xml version="1.0" encoding="iso-8859-1"?>
<!-- Generator: Adobe Illustrator 16.0.0, SVG Export Plug-In . SVG Version: 6.00 Build 0)  -->
<!DOCTYPE svg PUBLIC "-//W3C//DTD SVG 1.1//EN" "http://www.w3.org/Graphics/SVG/1.1/DTD/svg11.dtd">
<svg version="1.1" id="Layer_1" xmlns="http://www.w3.org/2000/svg" xmlns:xlink="http://www.w3.org/1999/xlink" x="0px" y="0px"
	 width="50px" height="50px" viewBox="0 0 50 50" style="enable-background:new 0 0 50 50;" xml:space="preserve">
<g>
	<defs>
		<rect id="SVGID_1_" width="50" height="50"/>
	</defs>
	<clipPath id="SVGID_2_">
		<use xlink:href="#SVGID_1_"  style="overflow:visible;"/>
	</clipPath>
	<g style="clip-path:url(#SVGID_2_);enable-background:new    ;">
		<g>
			<defs>
				<rect id="SVGID_3_" width="50" height="50"/>
			</defs>
			<clipPath id="SVGID_4_">
				<use xlink:href="#SVGID_3_"  style="overflow:visible;"/>
			</clipPath>
			<path style="clip-path:url(#SVGID_4_);" d="M1.917,12.5c-0.69-0.092-1.175-0.727-1.083-1.417S1.561,9.908,2.25,10l2.167,0.333
				c2.258,0.331,4.042,2.083,4.417,4.333l0.333,2.167H38c0.738-0.015,1.438,0.333,1.87,0.933c0.433,0.599,0.543,1.371,0.297,2.067
				L35.584,34.5c-0.534,1.623-2.041,2.729-3.75,2.75H12.667v0.333c0.169,1.296,1.277,2.261,2.583,2.25h19.334
				c0.703,0.044,1.251,0.628,1.25,1.333c-0.044,0.658-0.591,1.168-1.25,1.167H15.25c-2.512,0.034-4.672-1.772-5.083-4.25l-3.75-23
				c-0.196-1.152-1.099-2.054-2.25-2.25L1.917,12.5z"/>
			<path style="clip-path:url(#SVGID_4_);fill-rule:evenodd;clip-rule:evenodd;" d="M14,43.334c1.473,0,2.667,1.193,2.667,2.666
				c0,1.474-1.194,2.668-2.667,2.668S11.333,47.474,11.333,46C11.333,44.527,12.527,43.334,14,43.334"/>
			<path style="clip-path:url(#SVGID_4_);fill-rule:evenodd;clip-rule:evenodd;" d="M32.416,43.334
				c1.086-0.034,2.084,0.594,2.522,1.587c0.439,0.993,0.232,2.153-0.523,2.934s-1.909,1.024-2.915,0.616
				c-1.007-0.407-1.666-1.385-1.667-2.471C29.832,44.56,30.977,43.379,32.416,43.334"/>
			<path style="clip-path:url(#SVGID_4_);fill:#FFFFFF;" d="M48.333,10.834c0,5.523-4.478,10-10,10s-10-4.477-10-10s4.478-10,10-10
				S48.333,5.311,48.333,10.834"/>
			<path style="clip-path:url(#SVGID_4_);fill:none;stroke:#C2202E;stroke-width:0.8333;stroke-miterlimit:10;" d="M38.333,0.834
				c0.656,0,1.307,0.064,1.951,0.192c0.644,0.128,1.269,0.317,1.876,0.569c0.606,0.251,1.183,0.559,1.729,0.924
				c0.546,0.364,1.051,0.779,1.516,1.243c0.464,0.464,0.879,0.97,1.243,1.516c0.365,0.546,0.673,1.122,0.925,1.729
				c0.251,0.606,0.44,1.232,0.568,1.875c0.128,0.645,0.192,1.294,0.192,1.951s-0.064,1.307-0.192,1.951
				c-0.128,0.644-0.317,1.269-0.568,1.875c-0.252,0.607-0.56,1.183-0.925,1.729c-0.364,0.546-0.779,1.051-1.243,1.516
				c-0.465,0.464-0.97,0.879-1.516,1.243c-0.546,0.365-1.122,0.673-1.729,0.924c-0.607,0.252-1.232,0.441-1.876,0.569
				c-0.645,0.128-1.295,0.192-1.951,0.192s-1.307-0.064-1.951-0.192c-0.644-0.128-1.269-0.317-1.876-0.569
				c-0.606-0.251-1.183-0.559-1.729-0.924c-0.546-0.364-1.051-0.779-1.516-1.243c-0.464-0.464-0.879-0.97-1.243-1.516
				c-0.365-0.546-0.673-1.122-0.925-1.729c-0.251-0.606-0.44-1.232-0.568-1.875c-0.128-0.645-0.192-1.294-0.192-1.951
				s0.064-1.307,0.192-1.951c0.128-0.644,0.317-1.269,0.568-1.875c0.252-0.607,0.56-1.183,0.925-1.729
				c0.364-0.546,0.779-1.051,1.243-1.516c0.465-0.464,0.97-0.879,1.516-1.243c0.546-0.365,1.122-0.673,1.729-0.924
				c0.607-0.251,1.232-0.441,1.876-0.569C37.026,0.898,37.677,0.834,38.333,0.834z"/>
		</g>
	</g>
</g>
</svg>
