<svg xmlns="http://www.w3.org/2000/svg" xmlns:xlink="http://www.w3.org/1999/xlink" width="100" height="100" viewBox="0 0 100 100"><defs><style>.a{fill:none;}.b{clip-path:url(#a);}.c{fill:#fff;}</style><clipPath id="a"><rect class="a" width="100" height="100"/></clipPath></defs><g transform="translate(50 50)"><g class="b" transform="translate(-50 -50)"><path class="c" d="M47.333,4A43.333,43.333,0,1,0,90.667,47.333,43.333,43.333,0,0,0,47.333,4M40.167,61.833A21.667,21.667,0,1,1,61.833,40.167,21.667,21.667,0,0,1,40.167,61.833m34.5,12.833a5.5,5.5,0,0,1-7.667,0L53.667,61.333a25.5,25.5,0,0,0,7.667-7.667L74.667,67a5.5,5.5,0,0,1,0,7.667" transform="translate(2.667 2.667)"/><path class="c" d="M32.233,15.9A16.333,16.333,0,1,0,48.567,32.233,16.333,16.333,0,0,0,32.233,15.9m0,7.167a9,9,0,0,0-9,9H19.567A12.667,12.667,0,0,1,32.233,19.4Z" transform="translate(10.6 10.6)"/></g></g></svg>