<svg xmlns="http://www.w3.org/2000/svg" xmlns:xlink="http://www.w3.org/1999/xlink" width="50" height="50" viewBox="0 0 50 50"><defs><style>.a,.d{fill:none;}.b{clip-path:url(#a);}.c{fill:#fff;}.d{stroke:#fff;stroke-miterlimit:10;stroke-width:0.847px;}</style><clipPath id="a"><rect class="a" width="50" height="50"/></clipPath></defs><g transform="translate(25 25)"><g class="b" transform="translate(-25 -25)"><path class="c" d="M28.478,13.1A5.678,5.678,0,1,1,22.8,18.778,5.678,5.678,0,0,1,28.478,13.1" transform="translate(-3.478 -1.998)"/><path class="c" d="M43.737,16.3A4.237,4.237,0,1,1,39.5,20.537,4.237,4.237,0,0,1,43.737,16.3" transform="translate(-6.025 -2.486)"/><path class="c" d="M52.166,36.574c-.847-5.339-3.644-8.475-8.39-8.475A7.542,7.542,0,0,0,39.2,29.455l.508.424a16.684,16.684,0,0,1,4.068,9.153,3.67,3.67,0,0,0,.085.424c4.661.085,8.729-.763,8.39-2.881" transform="translate(-5.98 -4.286)"/><path class="c" d="M13.737,16.3A4.237,4.237,0,1,1,9.5,20.537,4.237,4.237,0,0,1,13.737,16.3" transform="translate(-1.449 -2.486)"/><path class="c" d="M17.039,29.879l.424-.424A7.627,7.627,0,0,0,12.886,28.1c-4.746,0-7.542,3.136-8.39,8.475-.339,2.119,3.814,2.881,8.39,2.881a.932.932,0,0,1,.085-.424,17.257,17.257,0,0,1,4.068-9.237" transform="translate(-0.683 -4.286)"/><path class="c" d="M27.467,43.169c-6.186,0-11.695-1.1-11.271-3.814C17.382,32.153,21.111,28,27.467,28s10.085,4.237,11.271,11.356c.424,2.712-5,3.814-11.271,3.814" transform="translate(-2.467 -4.271)"/><circle class="d" cx="24.576" cy="24.576" r="24.576" transform="translate(0.424 0.424)"/></g></g></svg>