<svg xmlns="http://www.w3.org/2000/svg" xmlns:xlink="http://www.w3.org/1999/xlink" width="274" height="69" viewBox="0 0 274 69"><defs><style>.a{fill:none;}.b{fill:#0185b6;}.c{fill:#189ed0;}.d,.g{fill:#fff;}.d{font-size:19px;font-family:Calibri-Bold, Calibri;font-weight:700;}.e{fill:#00acb3;}.f{clip-path:url(#i);}.h{filter:url(#g);}.i{filter:url(#e);}.j{filter:url(#c);}.k{filter:url(#a);}</style><filter id="a" x="50.957" y="0" width="223.043" height="69" filterUnits="userSpaceOnUse"><feOffset dy="3" input="SourceAlpha"/><feGaussianBlur stdDeviation="3" result="b"/><feFlood flood-opacity="0.161"/><feComposite operator="in" in2="b"/><feComposite in="SourceGraphic"/></filter><filter id="c" x="50.957" y="9" width="212.043" height="51" filterUnits="userSpaceOnUse"><feOffset dy="3" input="SourceAlpha"/><feGaussianBlur stdDeviation="3" result="d"/><feFlood flood-opacity="0.161"/><feComposite operator="in" in2="d"/><feComposite in="SourceGraphic"/></filter><filter id="e" x="63.957" y="13" width="188" height="41" filterUnits="userSpaceOnUse"><feOffset dy="3" input="SourceAlpha"/><feGaussianBlur stdDeviation="3" result="f"/><feFlood flood-opacity="0.161"/><feComposite operator="in" in2="f"/><feComposite in="SourceGraphic"/></filter><filter id="g" x="0" y="0" width="69" height="69" filterUnits="userSpaceOnUse"><feOffset dy="3" input="SourceAlpha"/><feGaussianBlur stdDeviation="3" result="h"/><feFlood flood-opacity="0.161"/><feComposite operator="in" in2="h"/><feComposite in="SourceGraphic"/></filter><clipPath id="i"><rect class="a" width="38" height="38"/></clipPath></defs><g transform="translate(9 6)"><g class="k" transform="matrix(1, 0, 0, 1, -9, -6)"><path class="b" d="M0,0H192.043a13,13,0,0,1,13,13V38a13,13,0,0,1-13,13H0a0,0,0,0,1,0,0V0A0,0,0,0,1,0,0Z" transform="translate(59.96 6)"/></g><g class="j" transform="matrix(1, 0, 0, 1, -9, -6)"><path class="c" d="M10,0H194.043a0,0,0,0,1,0,0V33a0,0,0,0,1,0,0H10A10,10,0,0,1,0,23V10A10,10,0,0,1,10,0Z" transform="translate(254 48) rotate(180)"/></g><g class="i" transform="matrix(1, 0, 0, 1, -9, -6)"><text class="d" transform="translate(72.96 37)"><tspan x="0" y="0">CLICK HERE TO LOGIN</tspan></text></g><g class="h" transform="matrix(1, 0, 0, 1, -9, -6)"><path class="e" d="M0,0H38A13,13,0,0,1,51,13V38A13,13,0,0,1,38,51H0a0,0,0,0,1,0,0V0A0,0,0,0,1,0,0Z" transform="translate(60 57) rotate(180)"/></g><g transform="translate(25 26)"><g class="f" transform="translate(-19 -19)"><path class="g" d="M19,0A19,19,0,1,0,38,19,19,19,0,0,0,19,0m9.828,10.352a3.276,3.276,0,1,1-3.276,3.276,3.276,3.276,0,0,1,3.276-3.276M19,8.255a4.39,4.39,0,1,1-4.39,4.39A4.39,4.39,0,0,1,19,8.255m-9.828,2.1A3.276,3.276,0,1,1,5.9,13.628a3.276,3.276,0,0,1,3.276-3.276m0,16.51c-3.6,0-6.814-.59-6.552-2.228.721-4.128,2.817-6.552,6.486-6.552a5.9,5.9,0,0,1,3.538,1.048l-.328.328A12.662,12.662,0,0,0,9.172,26.6a.721.721,0,0,0-.066.328m9.828,2.817c-4.783,0-9.041-.852-8.714-2.948.917-5.569,3.8-8.779,8.714-8.779s7.8,3.276,8.714,8.779c.328,2.1-3.866,2.948-8.714,2.948m9.959-2.883a2.837,2.837,0,0,1-.066-.328,13.38,13.38,0,0,0-3.145-7.076l-.393-.328a5.831,5.831,0,0,1,3.538-1.048c3.669,0,5.831,2.49,6.486,6.552.262,1.638-2.883,2.228-6.486,2.162"/></g></g></g></svg>