<svg xmlns="http://www.w3.org/2000/svg" xmlns:xlink="http://www.w3.org/1999/xlink" width="326" height="69" viewBox="0 0 326 69"><defs><style>.a{fill:none;}.b{fill:#c20a2b;}.c{fill:#dd3a57;}.d,.e,.h{fill:#fff;}.d{font-size:19px;font-family:Calibri-Bold, Calibri;}.d,.e{font-weight:700;}.e{font-size:21px;font-family:AgencyFB-Bold, Agency FB;}.f{fill:#00acb3;}.g{clip-path:url(#k);}.i{filter:url(#i);}.j{filter:url(#g);}.k{filter:url(#e);}.l{filter:url(#c);}.m{filter:url(#a);}</style><filter id="a" x="51" y="0" width="275" height="69" filterUnits="userSpaceOnUse"><feOffset dy="3" input="SourceAlpha"/><feGaussianBlur stdDeviation="3" result="b"/><feFlood flood-opacity="0.161"/><feComposite operator="in" in2="b"/><feComposite in="SourceGraphic"/></filter><filter id="c" x="51" y="9" width="264" height="51" filterUnits="userSpaceOnUse"><feOffset dy="3" input="SourceAlpha"/><feGaussianBlur stdDeviation="3" result="d"/><feFlood flood-opacity="0.161"/><feComposite operator="in" in2="d"/><feComposite in="SourceGraphic"/></filter><filter id="e" x="64" y="13" width="161" height="41" filterUnits="userSpaceOnUse"><feOffset dy="3" input="SourceAlpha"/><feGaussianBlur stdDeviation="3" result="f"/><feFlood flood-opacity="0.161"/><feComposite operator="in" in2="f"/><feComposite in="SourceGraphic"/></filter><filter id="g" x="209" y="12" width="95" height="43" filterUnits="userSpaceOnUse"><feOffset dy="3" input="SourceAlpha"/><feGaussianBlur stdDeviation="3" result="h"/><feFlood flood-opacity="0.161"/><feComposite operator="in" in2="h"/><feComposite in="SourceGraphic"/></filter><filter id="i" x="0" y="0" width="69" height="69" filterUnits="userSpaceOnUse"><feOffset dy="3" input="SourceAlpha"/><feGaussianBlur stdDeviation="3" result="j"/><feFlood flood-opacity="0.161"/><feComposite operator="in" in2="j"/><feComposite in="SourceGraphic"/></filter><clipPath id="k"><rect class="a" width="45" height="45"/></clipPath></defs><g transform="translate(9 6)"><g class="m" transform="matrix(1, 0, 0, 1, -9, -6)"><path class="b" d="M0,0H244a13,13,0,0,1,13,13V38a13,13,0,0,1-13,13H0a0,0,0,0,1,0,0V0A0,0,0,0,1,0,0Z" transform="translate(60 6)"/></g><g class="l" transform="matrix(1, 0, 0, 1, -9, -6)"><path class="c" d="M10,0H246a0,0,0,0,1,0,0V33a0,0,0,0,1,0,0H10A10,10,0,0,1,0,23V10A10,10,0,0,1,10,0Z" transform="translate(306 48) rotate(180)"/></g><g class="k" transform="matrix(1, 0, 0, 1, -9, -6)"><text class="d" transform="translate(73 37)"><tspan x="0" y="0">I WANT TO BUY A </tspan></text></g><g class="j" transform="matrix(1, 0, 0, 1, -9, -6)"><text class="e" transform="translate(218 39)"><tspan x="0" y="0">HAPPYBOX</tspan></text></g><g class="i" transform="matrix(1, 0, 0, 1, -9, -6)"><path class="f" d="M0,0H38A13,13,0,0,1,51,13V38A13,13,0,0,1,38,51H0a0,0,0,0,1,0,0V0A0,0,0,0,1,0,0Z" transform="translate(60 57) rotate(180)"/></g><g transform="translate(25.5 25.5)"><g class="g" transform="translate(-22.5 -22.5)"><path class="h" d="M23.5,4A19.5,19.5,0,1,0,43,23.5,19.5,19.5,0,0,0,23.5,4M19.9,34.15a1.5,1.5,0,1,1,1.425-1.5,1.5,1.5,0,0,1-1.425,1.5m10.125,0a1.5,1.5,0,1,1,1.5-1.5,1.425,1.425,0,0,1-1.5,1.5M34.3,18.25l-2.55,8.1a2.175,2.175,0,0,1-2.1,1.5H19.15V28a1.425,1.425,0,0,0,1.425,1.275h10.65a.75.75,0,0,1,.675.675.675.675,0,0,1-.675.675H20.575A2.775,2.775,0,0,1,17.8,28.3L15.7,15.625a1.5,1.5,0,0,0-1.275-1.275l-1.2-.15a.679.679,0,1,1,.15-1.35l1.2.15a2.925,2.925,0,0,1,2.475,2.4l.15,1.2H33.1a1.275,1.275,0,0,1,1.2,1.65" transform="translate(-1 -1)"/></g></g></g></svg>