<svg xmlns="http://www.w3.org/2000/svg" xmlns:xlink="http://www.w3.org/1999/xlink" width="297.02" height="69" viewBox="0 0 297.02 69"><defs><style>.a{fill:none;}.b{fill:#fa683d;}.c{fill:#fc7a54;}.d,.g{fill:#fff;}.d{font-size:19px;font-family:Calibri-Bold, Calibri;font-weight:700;}.e{fill:#00acb3;}.f{clip-path:url(#i);}.h{filter:url(#g);}.i{filter:url(#e);}.j{filter:url(#c);}.k{filter:url(#a);}</style><filter id="a" x="50.957" y="0" width="246.063" height="69" filterUnits="userSpaceOnUse"><feOffset dy="3" input="SourceAlpha"/><feGaussianBlur stdDeviation="3" result="b"/><feFlood flood-opacity="0.161"/><feComposite operator="in" in2="b"/><feComposite in="SourceGraphic"/></filter><filter id="c" x="50.957" y="9" width="235.063" height="51" filterUnits="userSpaceOnUse"><feOffset dy="3" input="SourceAlpha"/><feGaussianBlur stdDeviation="3" result="d"/><feFlood flood-opacity="0.161"/><feComposite operator="in" in2="d"/><feComposite in="SourceGraphic"/></filter><filter id="e" x="63.957" y="13" width="210" height="41" filterUnits="userSpaceOnUse"><feOffset dy="3" input="SourceAlpha"/><feGaussianBlur stdDeviation="3" result="f"/><feFlood flood-opacity="0.161"/><feComposite operator="in" in2="f"/><feComposite in="SourceGraphic"/></filter><filter id="g" x="0" y="0" width="69" height="69" filterUnits="userSpaceOnUse"><feOffset dy="3" input="SourceAlpha"/><feGaussianBlur stdDeviation="3" result="h"/><feFlood flood-opacity="0.161"/><feComposite operator="in" in2="h"/><feComposite in="SourceGraphic"/></filter><clipPath id="i"><rect class="a" width="45" height="45"/></clipPath></defs><g transform="translate(9 6)"><g class="k" transform="matrix(1, 0, 0, 1, -9, -6)"><path class="b" d="M0,0H215.063a13,13,0,0,1,13,13V38a13,13,0,0,1-13,13H0a0,0,0,0,1,0,0V0A0,0,0,0,1,0,0Z" transform="translate(59.96 6)"/></g><g class="j" transform="matrix(1, 0, 0, 1, -9, -6)"><path class="c" d="M10,0H217.063a0,0,0,0,1,0,0V33a0,0,0,0,1,0,0H10A10,10,0,0,1,0,23V10A10,10,0,0,1,10,0Z" transform="translate(277.02 48) rotate(180)"/></g><g class="i" transform="matrix(1, 0, 0, 1, -9, -6)"><text class="d" transform="translate(72.96 37)"><tspan x="0" y="0">RESET YOUR PASSWORD</tspan></text></g><g class="h" transform="matrix(1, 0, 0, 1, -9, -6)"><path class="e" d="M0,0H38A13,13,0,0,1,51,13V38A13,13,0,0,1,38,51H0a0,0,0,0,1,0,0V0A0,0,0,0,1,0,0Z" transform="translate(60 57) rotate(180)"/></g><g transform="translate(25.5 25.5)"><g class="f" transform="translate(-22.5 -22.5)"><path class="g" d="M23.5,4A19.5,19.5,0,1,0,43,23.5,19.5,19.5,0,0,0,23.5,4M10.975,21.475,9.325,16a1.425,1.425,0,0,1,2.7-.825l.6,2.025a12.6,12.6,0,0,1,22.5,1.425,1.425,1.425,0,0,1-1.275,1.95,1.35,1.35,0,0,1-1.35-.825,9.75,9.75,0,0,0-17.55-.975l2.4-.75a1.459,1.459,0,1,1,.9,2.775l-5.475,1.65a1.5,1.5,0,0,1-1.8-.975M36.775,32.8a1.425,1.425,0,0,1-1.8-.975l-.6-2.025a12.6,12.6,0,0,1-22.5-1.425,1.425,1.425,0,0,1,1.275-1.95,1.35,1.35,0,0,1,1.35.825,9.75,9.75,0,0,0,17.55.975l-2.4.75a1.459,1.459,0,1,1-.9-2.775l5.475-1.65a1.425,1.425,0,0,1,1.8.975L37.675,31a1.425,1.425,0,0,1-.9,1.8" transform="translate(-1 -1)"/></g></g></g></svg>