<svg xmlns="http://www.w3.org/2000/svg" xmlns:xlink="http://www.w3.org/1999/xlink" width="658" height="170" viewBox="0 0 658 170"><defs><style>.a{fill:none;}.b{fill:#c20a2b;}.c{fill:#dd3a57;}.d{fill:#fff;}.e{clip-path:url(#c);}.f{fill:#00acb3;stroke:#fff;}.g{clip-path:url(#f);}.h{fill:#f4ef14;}.i{fill:#fa683d;}.j{fill:#ff005c;}.k{fill:#10d271;}.l{stroke:none;}.m{filter:url(#d);}.n{filter:url(#a);}</style><filter id="a" x="0" y="119" width="658" height="19" filterUnits="userSpaceOnUse"><feOffset dy="3" input="SourceAlpha"/><feGaussianBlur stdDeviation="3" result="b"/><feFlood flood-opacity="0.161"/><feComposite operator="in" in2="b"/><feComposite in="SourceGraphic"/></filter><clipPath id="c"><rect class="a" width="216.981" height="60"/></clipPath><filter id="d" x="299" y="109" width="61" height="61" filterUnits="userSpaceOnUse"><feOffset dy="3" input="SourceAlpha"/><feGaussianBlur stdDeviation="2" result="e"/><feFlood flood-opacity="0.161"/><feComposite operator="in" in2="e"/><feComposite in="SourceGraphic"/></filter><clipPath id="f"><rect class="a" width="32.894" height="32.894" transform="translate(0 0)"/></clipPath></defs><g transform="translate(9 -24)"><rect class="b" width="640" height="124" transform="translate(0 29)"/><g class="n" transform="matrix(1, 0, 0, 1, -9, 24)"><rect class="c" width="640" height="1" transform="translate(9 125)"/></g><g transform="translate(320.49 89)"><g transform="translate(-108.49 -30)"><path class="d" d="M40.858.1V13.529H34.29V.1H29.4V32.651h4.89v-14.6h6.569v14.6h4.963V.1Z" transform="translate(-7.943 -0.027)"/><path class="d" d="M68.431,7.59,70.84,22.26H66.1ZM65.95,0,59.6,32.551h4.817l.949-6.2H71.5l.949,6.2h4.817L71.058,0Z" transform="translate(-16.102)"/><g class="e"><path class="d" d="M107.465,17.835q0,3.065-2.992,3.065H96.59v11.75H91.7V.1h12.772a2.645,2.645,0,0,1,2.992,2.992ZM102.5,4.26H96.59V16.667h5.985Z" transform="translate(-24.774 -0.027)"/><path class="d" d="M137.865,17.835q0,3.065-2.992,3.065H126.99v11.75H122.1V.1h12.772a2.645,2.645,0,0,1,2.992,2.992ZM132.9,4.26h-5.985V16.667H132.9Z" transform="translate(-32.987 -0.027)"/><path class="d" d="M168.335.219l-4.306,13.648q-.8,2.044-2.117,6.787V32.624h-4.89V20.654a27.66,27.66,0,0,0-.949-3.43l-1.168-3.357L150.6.219V0h5.036L159.5,14.159,163.372.073h4.963Z" transform="translate(-40.686)"/><path class="d" d="M198.483,29.658a2.645,2.645,0,0,1-2.992,2.992H182.5V.1h12.918q2.919,0,2.919,2.992v8.393a3.284,3.284,0,0,1-1.022,2.554l-2.554,1.606,2.627,1.679a3.357,3.357,0,0,1,1.095,2.7Zm-5.036-17.589V4.187h-6.131v9.561h3.722Zm.146,16.494V19.295l-2.408-1.606h-3.8V28.564Z" transform="translate(-49.305 -0.027)"/><path class="d" d="M230.121,29.658a2.645,2.645,0,0,1-2.992,2.992h-10.51q-2.919,0-2.919-2.992V3.092Q213.7.1,216.619.1H227.2a2.645,2.645,0,0,1,2.992,2.992Zm-4.89-25.4h-6.714V28.491h6.714Z" transform="translate(-57.734 -0.027)"/><path class="d" d="M261.389,32.651h-5.255l-3.576-11.458-3.576,11.458H243.8V32.5l6.058-16.494Q244.092.173,244.165.1h5.182l3.284,10.583L255.842.1h5.182V.246l-5.693,15.619Z" transform="translate(-65.865 -0.027)"/><path class="d" d="M61.472,66.815a1.094,1.094,0,0,0,0-.219V66.45l-.146-.146-.292-.146-.365.365-.438.438-.438.365-.365.292-.949.73-1.095.8-1.241.73-1.314.584L53.59,70.9l-1.168.146-.949-.073-.511-.365a1.533,1.533,0,0,1-.292-.584,3.066,3.066,0,0,1-.073-.73,5.11,5.11,0,0,1,.073-.8,7.372,7.372,0,0,1,.146-.8l.292-.8.292-.73a7.444,7.444,0,0,1,1.022-1.752,11.533,11.533,0,0,1,1.387-1.387l.657-.438.8-.438.8-.292.657-.146h.438L57.02,62l-.292.292-.511.657a.949.949,0,0,0-.146.365.876.876,0,0,0,.219.657.949.949,0,0,0,.73.292,1.168,1.168,0,0,0,.876-.438l.146-.219.219-.365.219-.365.219-.365.146-.365v-.292a.876.876,0,0,0-.073-.365l-.219-.438-.292-.365-.292-.292-.584-.292h-.73l-.73.146-.876.292-.8.365-.657.365-.73.511-.8.657-.73.657-.584.657-.8,1.241a10.292,10.292,0,0,0-.657,1.387,9.051,9.051,0,0,0-.438,1.46,6.5,6.5,0,0,0-.146,1.387,4.963,4.963,0,0,0,.219,1.533,3.065,3.065,0,0,0,.657,1.168,2.919,2.919,0,0,0,1.095.73,4.452,4.452,0,0,0,1.606.292,6.057,6.057,0,0,0,1.606-.219l1.679-.657,1.679-.876L58.772,70.1l1.022-.8.876-.8.584-.73a1.241,1.241,0,0,0,.219-.657" transform="translate(-13.157 -16.237)"/><path class="d" d="M111.38,67.436h-.292l-.292.292-.876.876-.949.657-1.022.438-1.022.146h-.584l-.365-.292-.219-.365a1.1,1.1,0,0,1-.073-.365h.219l1.46-.949,1.168-.949a4.088,4.088,0,0,0,.73-1.022,2.554,2.554,0,0,0,.292-1.168,1.387,1.387,0,0,0-.146-.511l-.292-.511-.511-.365-.657-.146-.876.146-.73.365-.584.438-.511.511-.584.876a5.911,5.911,0,0,0-.438.949,6.35,6.35,0,0,0-.292,1.022,5.329,5.329,0,0,0-.073.876h0l-.146.146-.219.146-.584.365-.73.365-.73.365-.511.292a1.606,1.606,0,0,0-.073-.438l-.219-.438-.219-.438-.219-.365-.365-.511-.365-.584-.146-.438a2.847,2.847,0,0,1-.073-.438h.146a5.036,5.036,0,0,0,.949-.876,1.168,1.168,0,0,0,.292-.73.876.876,0,0,0-1.022-1.022l-.511.146-.584.438-.511.657-.292.584H95.323l-.8-.219-.657-.219-.365-.219-.146-.219-.365-.365-.365-.292-.365-.146h-.511l-.73.146-.73.365-.657.511-.584.584-.8,1.022-.657,1.095-.219.511h-.584l-.876-.146-.584-.292-.365-.365L84.814,67v-.584l-.219-.584-.511-.8-.511-.292H83.5l-.146-.146-.146-.146-.219-.146h-.584l-.876.219-.949.511-.876.657-.584.73-.365.657-.292.219-.657.584-.584.438-.584.438-.73.438-.365.146H74.3a.391.391,0,0,1-.292-.219l-.219-.584-.146-.8-.146-.876-.146-.876a4.233,4.233,0,0,0-.146-.73l-.073-.219-.219-.219-.292-.146h-.219l-.73.146-.73.365-.657.511-.584.511-.365.438-.365.511-.365.511-.292.438-.146.219-.219.365-.219.365-.219.292V65.684l.146-.949.146-.949V60.867a2.481,2.481,0,0,0,0-.292.876.876,0,0,0-.219-.657.8.8,0,0,0-.584-.219h-.292l-.292.146-.219.219-.146.219-.146.438-.146.365v4.16a10.233,10.233,0,0,1-.073,1.095l-.146,1.241L65.4,68.823l.438,1.022v2.044a.8.8,0,0,0,.073.292l.219.292.292.219h.657l.219-.146.219-.219.292-.511.292-.584.365-.584.365-.511.876-1.241.876-1.022.73-.73.511-.365h-.146l.146.146v1.533l.146.73.146.657.146.438a1.387,1.387,0,0,0,.657.657,2.189,2.189,0,0,0,.949.219l1.241-.219,1.168-.511,1.314-1.022.219-.219v.584a2.773,2.773,0,0,0,.073.73,2.409,2.409,0,0,0,.292.73,1.97,1.97,0,0,0,.584.584,1.533,1.533,0,0,0,.8.219h1.168l.876-.365.876-.584.949-.949.584-.876.219-.365.146-.146h.219l.438.146.584.146H86.93a4.451,4.451,0,0,0,0,.511,1.824,1.824,0,0,0,.146.73,2.409,2.409,0,0,0,.438.657l.584.511.73.219H89.7l.876-.146.8-.292.657-.365.8-.73.657-.876a4.744,4.744,0,0,0,.511-.949,3.066,3.066,0,0,0,.146-1.022v-.949l.511.219.511.146H96.2l1.314-.146h.073a2.334,2.334,0,0,0,.073.365l.146.511.292.511.365.584.584.876a1.1,1.1,0,0,1,.219.584.73.73,0,0,1-.073.365l-.219.219-.511.219-.657.146-.8.219-.511.365-.292.438a1.241,1.241,0,0,0-.073.438.511.511,0,0,0,.073.292l.219.219.292.146h.949l.365-.146.511-.219,1.022-.511,1.168-.657.949-.584.949-.584.876-.584.584-.511v.292a2.774,2.774,0,0,0,.584,1.022,2.335,2.335,0,0,0,.876.657,3.138,3.138,0,0,0,1.168.219L107.8,71.3l1.168-.438,1.095-.657.949-.8.657-.8a1.314,1.314,0,0,0,.219-.657.657.657,0,0,0-.073-.438l-.219-.146m-28.756.949-.438.657-.438.511-.657.584-.657.438L80,70.72h-.219l-.219-.146-.146-.219a.657.657,0,0,1-.073-.292,3.8,3.8,0,0,1,.146-1.022,6.642,6.642,0,0,1,.365-1.022l.511-.949.657-.8.657-.584.584-.219h.146v.876l.146.365L82.7,67v.511a1.533,1.533,0,0,1-.146.73M92.4,67V68.02l-.219.365-.292.365-.292.292-.292.292L90.8,69.7l-.438.219-.438.146h-.876l-.146-.219v-.219a1.241,1.241,0,0,1,0-.292,4.088,4.088,0,0,1,.073-.73,2.336,2.336,0,0,1,.219-.657l.292-.511L89.777,67l.292-.438.292-.438.292-.365.292-.365.292-.292h.219l.146.146.292.146.438.146.292.219.146.292a1.751,1.751,0,0,1,.073.438v.438Zm13.21-.657a6.058,6.058,0,0,1,.438-.949,2.774,2.774,0,0,1,.511-.73.949.949,0,0,1,.657-.292h.219v.146a.438.438,0,0,1,.073.219,1.168,1.168,0,0,1-.146.657l-.511.584-.73.584-.876.657.292-1.022" transform="translate(-17.669 -16.128)"/><path class="d" d="M146.807,65.419l-.292-.219H146a.8.8,0,0,0-.584.219,1.606,1.606,0,0,0-.365.657v2.335a1.825,1.825,0,0,1-.292.657l-.584.657-.73.511-.8.438-.73.292h-.8l-.146-.219-.146-.365a1.826,1.826,0,0,1-.073-.438,2.919,2.919,0,0,1,.146-.949l.365-1.022.146-.292.219-.438.219-.438v-.292a3.2,3.2,0,0,0,0-.365.949.949,0,0,0-.146-.365l-.292-.292h-.876l-.365.219-.219.365-.219.511v.219l-.146.438-.146.365v.219l-.146.584-.146.657v.657a5.184,5.184,0,0,0-.073.584,2.992,2.992,0,0,0,.073.8,2.116,2.116,0,0,0,.292.657l.584.511.8.219h.657l.73-.219.73-.365.73-.438.657-.438.584-.438v.876q-.073.438-.146.8l-.146.73-.219.8-.292.73-.365.657-.438.438-.511.146h-.876l-.73-.219-.657-.365-.657-.584-.219-.146h-.511l-.146.219v.292a1.828,1.828,0,0,0,0,.292.73.73,0,0,0,.219.438l.511.511.657.438.73.365a5.328,5.328,0,0,0,1.971.365,2.7,2.7,0,0,0,2.408-1.314l.365-.657.365-.8.292-.8.219-.8.219-1.022.219-1.095.146-1.095a8.853,8.853,0,0,0,.073-1.095V66.295a3.286,3.286,0,0,0,0-.511.876.876,0,0,0-.146-.365" transform="translate(-37.55 -17.614)"/><path class="d" d="M181.965,65.575l-.511-.365-.8-.146a2.408,2.408,0,0,0-1.095.219l-.876.584-.73.8-.511.8-.146.292-.219.438-.219.438-.146.292a4.666,4.666,0,0,1,.073-.584l.146-.657.146-.657.146-.584V65.94a.876.876,0,0,0-.073-.365l-.219-.219-.292-.146h-.657l-.365.219-.292.365-.219.438v.292l-.292.365-.584.73-.584.73-.657.657-.657.584-.657.365-.584.146a.584.584,0,0,1-.584-.438,2.555,2.555,0,0,1-.219-1.095,7.878,7.878,0,0,1,.073-.876l.146-.949.146-.8v-.511a.8.8,0,0,0-.219-.511.73.73,0,0,0-.584-.219h-.219l-.219.146-.219.146-.146.146v1.095l-.146.438-.219.438-.146.365-.365.584-.511.657-.584.657-.511.511-.438.365-.438.292-.511.219h-.511a.365.365,0,0,1-.292-.219,1.1,1.1,0,0,1-.146-.511,6.713,6.713,0,0,1,.073-1.241l.219-1.022.219-.73a1.532,1.532,0,0,0,.073-.438,1.24,1.24,0,0,0-.073-.292l-.146-.292-.292-.219h-1.241l-.438.146-.584.146-.584.146-.438.146h-2.19l-.146-.146.073.146-.219-.219-.511-.438-.511-.219H157.3l-.146-.146L157,65.21h-.438l-.876.219-.8.584-.73.8-.657.876-.511.876-.292.8v1.022a2.849,2.849,0,0,0,0,.292,4.016,4.016,0,0,0,.073.949,2.774,2.774,0,0,0,.292.8,1.752,1.752,0,0,0,.511.584,1.241,1.241,0,0,0,.73.219h.8l1.022-.292.8-.438.657-.438.511-.511.438-.657.146-.365.146-.438v-.438a2.481,2.481,0,0,0,0-.365v-.438a1.1,1.1,0,0,0-.073-.438h2.117l.73-.146.584-.146.292-.146.365-.219.292-.219-.146.73-.146.73v1.314a7.01,7.01,0,0,0,.073.876,2.189,2.189,0,0,0,.219.8,1.533,1.533,0,0,0,.584.584,2.044,2.044,0,0,0,1.022.219l.949-.219.8-.365.657-.438.511-.438.438-.438.438-.511.365-.511.292-.438a3.941,3.941,0,0,0,.146,1.168,2.19,2.19,0,0,0,.438.8,1.606,1.606,0,0,0,.657.438l.8.146a2.263,2.263,0,0,0,.949-.219l1.022-.657,1.022-.949.949-1.095V71.56c0,.219.073.438.073.657a2.408,2.408,0,0,0,.073.657,1.021,1.021,0,0,0,.292.438.949.949,0,0,0,.657.219h.365l.219-.292L177,72.8V71.487l.146-.511.219-.511.219-.438.292-.511.292-.511.365-.511.292-.438.365-.438.365-.365.365-.292h.584l.292.146.292.146h.365a.748.748,0,0,0,.73-.73,1.607,1.607,0,0,0-.073-.584,1.387,1.387,0,0,0-.292-.511m-24.742,3.5a4.889,4.889,0,0,1-.511,1.314,2.92,2.92,0,0,1-.876.949,1.971,1.971,0,0,1-1.168.365H154.3l-.146-.146v-.219a.8.8,0,0,1-.073-.219,3.723,3.723,0,0,1,.073-.584l.146-.657.219-.73.292-.657.365-.584.365-.438.438-.292.438-.146h.292l.292.146.219.219.146.219a6.35,6.35,0,0,1-.219,1.533" transform="translate(-41.252 -17.479)"/><path class="d" d="M208.852,65.046l-.584-.146h-.584l-.73.146-.876.511-.949.73-.876.876-.584.949-.511,1.168a10.514,10.514,0,0,0-.365,1.241,4.307,4.307,0,0,0-.146,1.022.511.511,0,0,0,.146.365l.365.219.438.146h1.241l.949-.292.876-.511.73-.584a7.216,7.216,0,0,0-.073,1.022L207.174,73h0l-.146.949a3.942,3.942,0,0,1-.292.876,1.752,1.752,0,0,1-.511.657,1.168,1.168,0,0,1-.73.219h-.73l-.73-.219-.657-.365-.73-.511v-.146l-.146-.146-.146-.146h-.219a.438.438,0,0,0-.438.438,1.241,1.241,0,0,0,.146.511l.438.584.657.584.8.511.949.365.949.146,1.022-.219.8-.511.657-.73a4.67,4.67,0,0,0,.438-.876,9.194,9.194,0,0,0,.292-1.095l.219-1.314a8.042,8.042,0,0,0,.146-1.314l.146-1.168q.073-.8.073-1.387V65.849a.73.73,0,0,0-.219-.511l-.438-.292m-1.022,2.044v1.679l-.146.365-.292.438-.365.365-.438.292-.876.365-.949.292v-.876l.146-.438.146-.365.73-1.168.73-.949.657-.657.438-.219h.219v.876" transform="translate(-54.492 -17.534)"/><path class="d" d="M217.089,61.187V61.7h0v.365l.146.146h.584l.365-.146.365-.219.219-.219.146-.292.146-.365v-.584a.292.292,0,0,0-.146-.219l-.292-.219-.292-.146h-.73l-.438.292-.292.365a.657.657,0,0,0-.073.365.876.876,0,0,0,0,.219v.146" transform="translate(-58.569 -16.156)"/><path class="d" d="M233.511,64.5l-.292-.219h-1.606l-.949.146-1.314.146.146-.657.219-.73v-.8q.007-.146,0-.292a1.167,1.167,0,0,0,0-.219v-.219l-.219-.146h-.657l-.365.146-.292.219-.219.438-.219.73-.219.8-.219.73-.146.511-1.095.146-1.095.146-.949.146h-1.168v-.146a7.079,7.079,0,0,1,.073-.73l.146-.8.219-.876.219-.657.219-.365.219-.365.219-.292.219-.146.219.146.146.365v.8a4.378,4.378,0,0,1-.073.657l-.146.73h.146a1.1,1.1,0,0,0,.876-.584,4.671,4.671,0,0,0,.438-.876,2.335,2.335,0,0,0,.146-.8,1.532,1.532,0,0,0-.511-1.168,1.606,1.606,0,0,0-1.168-.511l-.657.146-.657.365-.511.511-.438.584-.438.949a6.713,6.713,0,0,0-.292.949v1.606a2.045,2.045,0,0,1-.073.365l-.146.365-.292.438-.365.511a.657.657,0,0,0-.146.292.365.365,0,0,0,.073.219l.146.219.146.146v1.679h0a1.022,1.022,0,0,0-.584.219l-.73.584-.438.292-.511.219-.584.146h-.584l-.438-.146a1.022,1.022,0,0,1-.219-.438,2.481,2.481,0,0,1-.073-.584c0-.219,0-.365,0-.584a5.548,5.548,0,0,1,.073-.73l.146-.73.146-.657.146-.584.146-.584a1.752,1.752,0,0,0,.073-.438.511.511,0,0,0-.073-.219l-.219-.219-.365-.219h-.511l-.438.146-.292.292-.146.438a2.045,2.045,0,0,0-.073.365v.8l-.146.657-.146.73v.8q-.055.363-.073.73a3.721,3.721,0,0,0,.146,1.022,2.7,2.7,0,0,0,.438.876,2.189,2.189,0,0,0,.73.657,2.262,2.262,0,0,0,1.095.219h.949l.8-.219.584-.292.438-.292.584-.511.292-.365v.438l-.146.949-.219,1.022v.511l-.146.511-.146.438-.219.292H219.5l-.292.146-.219.292-.146.365a1.022,1.022,0,0,0-.073.292.511.511,0,0,0,.073.292l.292.219.365.146h.365l.8-.146.657-.511.511-.73.365-.8.146-.365V70.629l.146-.876.146-.876V67.344l.438-.146.73-.146.876-.146.876-.146h1.168l-.146.657-.146.876-.146.876a4.6,4.6,0,0,0-.073.73v.511a3.866,3.866,0,0,0,.073.584,2.846,2.846,0,0,0,.219.584l.365.511.584.365.876.146a2.481,2.481,0,0,0,1.022-.219l.876-.511.73-.584.438-.438.219-.292.146-.292v-.292a1.094,1.094,0,0,0,0-.292.292.292,0,0,0-.146-.292h-.365l-.438.146-.365.292a5.182,5.182,0,0,1-1.095.876,1.752,1.752,0,0,1-.8.292l-.292-.146-.219-.292v-.365a2.481,2.481,0,0,1,0-.365,3.793,3.793,0,0,1,.073-.657l.219-.949.219-.949.219-.876h.365l.8-.146,1.095-.146,1.168-.146h.292l.365-.219.292-.292a.511.511,0,0,0,.146-.365.365.365,0,0,0-.073-.292" transform="translate(-58.058 -16.183)"/><path class="d" d="M244.427,60.538l-.219-.219a.876.876,0,0,0-.584-.219h-.292l-.292.146-.292.219-.146.219v.584a3.064,3.064,0,0,0-.073.584,7.447,7.447,0,0,1-.146,1.241l-.292,1.387a10.071,10.071,0,0,0-.219,1.387,11.253,11.253,0,0,0-.073,1.241v.511l.511.219h.73l.146-.365v-.657a13.5,13.5,0,0,1,.365-1.679l.438-1.679.219-.8.146-.8.146-.657V60.83a.511.511,0,0,0-.073-.292" transform="translate(-65.325 -16.237)"/><path class="d" d="M242.452,73.319l-.365-.219h-.292l-.438.146-.365.365-.219.438a1.1,1.1,0,0,0-.073.365q0,.949.876.949a1.314,1.314,0,0,0,.73-.292,1.625,1.625,0,0,0,.511-.584l.146-.73-.146-.219-.292-.219" transform="translate(-65.028 -19.749)"/><path class="d" d="M2.627,54.2V25.3h15.4V22.6H0V56.829H27.223V54.2Z" transform="translate(0 -6.106)"/><path class="d" d="M284.6,54.2V25.3H269.269V22.6h17.954V56.829H260V54.2Z" transform="translate(-70.242 -6.106)"/></g></g></g><g transform="translate(296 136)"><g class="m" transform="matrix(1, 0, 0, 1, -305, -112)"><g class="f" transform="translate(305 112)"><circle class="l" cx="24.5" cy="24.5" r="24.5"/><circle class="a" cx="24.5" cy="24.5" r="24"/></g></g><g transform="translate(24.671 24.747)"><g class="g" transform="translate(-16.447 -16.447)"><path class="d" d="M23.272,9.672l.822-.384a4.167,4.167,0,0,0,1.371-5.756H25.41A3.892,3.892,0,0,0,22.12,2a4.605,4.605,0,0,0-2.577.768,7.456,7.456,0,0,0-2.138,3.344,7.785,7.785,0,0,0-2.193-3.4A4.605,4.605,0,0,0,12.636,2,3.892,3.892,0,0,0,9.4,3.531a4.167,4.167,0,0,0,1.261,5.7h.055l.713.439H2v6.414H4.467V30.121a2.577,2.577,0,0,0,2.522,2.632h7.84V15.812h4.989v16.94h7.84a2.577,2.577,0,0,0,2.577-2.577V16.141H32.7V9.672ZM14.719,8.356a6.14,6.14,0,0,1-3.07-.493,2.467,2.467,0,0,1-.877-3.344,2.193,2.193,0,0,1,1.864-.932,2.851,2.851,0,0,1,1.535.548A10.307,10.307,0,0,1,16.254,8.3l-1.535.11Zm5.756-4.221a2.851,2.851,0,0,1,1.535-.548,2.193,2.193,0,0,1,1.864.932A2.467,2.467,0,0,1,23,7.862a5.976,5.976,0,0,1-3.07.493H18.392A9.265,9.265,0,0,1,20.476,4.08" transform="translate(-0.904 -0.976)"/></g></g></g><rect class="h" width="160" height="5" transform="translate(0 24)"/><rect class="i" width="160" height="5" transform="translate(160 24)"/><rect class="j" width="160" height="5" transform="translate(320 24)"/><rect class="k" width="160" height="5" transform="translate(480 24)"/></g></svg>