<svg xmlns="http://www.w3.org/2000/svg" xmlns:xlink="http://www.w3.org/1999/xlink" width="74.957" height="30" viewBox="0 0 74.957 30"><defs><style>.a{fill:none;}.b{clip-path:url(#a);}.c{opacity:0.2;}.d{fill:#fff;}</style><clipPath id="a"><rect class="a" width="74.957" height="30"/></clipPath></defs><g class="b"><g class="b"><g class="c"><g class="b"><rect class="d" width="74.957" height="30"/></g></g></g><path class="d" d="M19.647,36.521H18.261V32.336H16.387v4.185H15V27.2h1.387v3.843h1.874V27.2h1.387Z" transform="translate(-9.378 -16.851)"/><path class="d" d="M42.185,36.521H40.835l-.262-1.788H38.812l-.262,1.788H37.2L39,27.2h1.462Zm-1.836-2.968-.675-4.223L39,33.554Z" transform="translate(-23.258 -16.851)"/><g class="b"><path class="d" d="M64.822,32.252a.768.768,0,0,1-.2.645.743.743,0,0,1-.626.23H61.749v3.386H60.4V27.192H64a.743.743,0,0,1,.626.23.768.768,0,0,1,.2.645Zm-1.387-3.881H61.749v3.576h1.687Z" transform="translate(-37.763 -16.843)"/><path class="d" d="M87.06,32.252a.768.768,0,0,1-.2.645.743.743,0,0,1-.626.23H83.987v3.386H82.6V27.192h3.6a.743.743,0,0,1,.626.23.768.768,0,0,1,.2.645Zm-1.387-3.881H83.987v3.576h1.687Z" transform="translate(-51.643 -16.843)"/><path class="d" d="M108.885,27.238l-1.2,3.919q-.225.571-.6,1.94v3.424H105.7V33.1a8.05,8.05,0,0,0-.262-.989l-.337-.951-1.2-3.919V27.2h1.424l1.087,4.071L107.5,27.2h1.424Z" transform="translate(-64.96 -16.851)"/><path class="d" d="M131.5,35.677a.768.768,0,0,1-.215.618.743.743,0,0,1-.609.219H127V27.192h3.635a.743.743,0,0,1,.626.23.769.769,0,0,1,.2.645v2.4a.958.958,0,0,1-.3.723l-.712.457.75.495a.959.959,0,0,1,.3.761Zm-1.424-5.06V28.334h-1.724v2.739H129.4Zm.037,4.718V32.671l-.675-.457h-1.087v3.12Z" transform="translate(-79.402 -16.843)"/><path class="d" d="M154.232,35.615a.768.768,0,0,1-.215.618.743.743,0,0,1-.609.219h-3a.743.743,0,0,1-.609-.219.768.768,0,0,1-.215-.618V27.967a.768.768,0,0,1,.2-.645.743.743,0,0,1,.626-.23h3a.743.743,0,0,1,.626.23.769.769,0,0,1,.2.645Zm-1.387-7.305h-1.874v6.963h1.874Z" transform="translate(-93.517 -16.781)"/><path class="d" d="M176.685,36.583h-1.5l-1.012-3.272-1.012,3.272H171.7l1.724-4.718L171.812,27.3h1.462l.9,3.044.937-3.044h1.462l-1.612,4.49Z" transform="translate(-107.349 -16.913)"/></g></g></svg>