<svg xmlns="http://www.w3.org/2000/svg" xmlns:xlink="http://www.w3.org/1999/xlink" width="180.817" height="50" viewBox="0 0 180.817 50"><defs><style>.a{fill:none;}.b{fill:#c20a2b;}.c{clip-path:url(#a);}</style><clipPath id="a"><rect class="a" width="180.817" height="50"/></clipPath></defs><g transform="translate(90.409 25)"><g transform="translate(-90.409 -25)"><path class="b" d="M38.949.1V11.291H33.475V.1H29.4V27.226h4.075V15.062h5.474V27.226h4.136V.1Z" transform="translate(-11.519 -0.039)"/><path class="b" d="M66.959,6.325,68.966,18.55H65.013ZM64.891,0,59.6,27.126h4.014l.791-5.17h5.109l.791,5.17h4.014L69.149,0Z" transform="translate(-23.351)"/><g class="c"><path class="b" d="M104.837,14.879a2.231,2.231,0,0,1-2.494,2.554H95.775v9.792H91.7V.1h10.643a2.2,2.2,0,0,1,2.494,2.494ZM100.7,3.567H95.775V13.906h4.987Z" transform="translate(-35.928 -0.039)"/><path class="b" d="M135.237,14.879a2.231,2.231,0,0,1-2.494,2.554h-6.569v9.792H122.1V.1h10.643a2.2,2.2,0,0,1,2.494,2.494ZM131.1,3.567h-4.987V13.906H131.1Z" transform="translate(-47.839 -0.039)"/><path class="b" d="M165.379.182l-3.588,11.373q-.669,1.7-1.764,5.656v9.974h-4.075V17.212a23.048,23.048,0,0,0-.791-2.859l-.973-2.8L150.6.182V0h4.2l3.223,11.8L161.243.061h4.136Z" transform="translate(-59.005)"/><path class="b" d="M195.82,24.732a2.2,2.2,0,0,1-2.494,2.494H182.5V.1h10.765A2.178,2.178,0,0,1,195.7,2.594V9.588a2.737,2.737,0,0,1-.851,2.129l-2.129,1.338,2.19,1.4a2.8,2.8,0,0,1,.912,2.25Zm-4.2-14.658V3.506h-5.109v7.967h3.1Zm.122,13.745V16.1l-2.007-1.338h-3.163V23.82Z" transform="translate(-71.504 -0.039)"/><path class="b" d="M227.384,24.732a2.2,2.2,0,0,1-2.494,2.494h-8.758a2.178,2.178,0,0,1-2.433-2.494V2.594A2.178,2.178,0,0,1,216.133.1h8.819a2.2,2.2,0,0,1,2.494,2.494ZM223.31,3.567h-5.6V23.759h5.6Z" transform="translate(-83.728 -0.039)"/><path class="b" d="M258.458,27.226h-4.379l-2.98-9.549-2.98,9.549H243.8V27.1l5.048-13.745Q244.043.161,244.1.1h4.318l2.737,8.819L253.835.1h4.318V.222L253.41,13.237Z" transform="translate(-95.521 -0.039)"/><path class="b" d="M59.343,65.7a.912.912,0,0,0,0-.182v-.122l-.122-.122-.243-.122-.3.3-.365.365-.365.3-.3.243-.791.608-.912.669L54.9,68.25l-1.095.487-1.034.365-.973.122-.791-.061-.426-.3a1.277,1.277,0,0,1-.243-.487,2.555,2.555,0,0,1-.061-.608,4.259,4.259,0,0,1,.061-.669,6.2,6.2,0,0,1,.122-.669l.243-.669.243-.608a6.2,6.2,0,0,1,.851-1.46,9.609,9.609,0,0,1,1.156-1.156l.547-.365.669-.365.669-.243.547-.122h.365l-.122.243-.243.243-.426.547a.791.791,0,0,0-.122.3.73.73,0,0,0,.182.547.791.791,0,0,0,.608.243.973.973,0,0,0,.73-.365l.122-.182.182-.3.182-.3.182-.3.122-.3V61.56a.73.73,0,0,0-.061-.3l-.182-.365-.243-.3-.243-.243-.487-.243h-.608l-.608.122-.73.243-.669.3-.547.3-.608.426-.669.547-.608.547-.487.547-.669,1.034a8.637,8.637,0,0,0-.547,1.156,7.6,7.6,0,0,0-.365,1.216A5.413,5.413,0,0,0,48.7,67.7a4.136,4.136,0,0,0,.182,1.277,2.494,2.494,0,0,0,.547.973,2.433,2.433,0,0,0,.912.608,3.71,3.71,0,0,0,1.338.243,5.048,5.048,0,0,0,1.338-.182l1.4-.547,1.4-.73,1.277-.912.851-.669.73-.669.487-.608a1.034,1.034,0,0,0,.182-.547" transform="translate(-19.08 -23.547)"/><path class="b" d="M103.717,66.147h-.243l-.243.243-.73.73-.791.547-.851.365-.851.122H99.52l-.3-.243-.182-.3a.913.913,0,0,1-.061-.3h.182l1.216-.791.973-.791a3.407,3.407,0,0,0,.608-.851,2.128,2.128,0,0,0,.243-.973,1.155,1.155,0,0,0-.122-.426l-.243-.426-.426-.3-.547-.122-.73.122-.608.3-.487.365-.426.426-.487.73a4.866,4.866,0,0,0-.365.791,5.292,5.292,0,0,0-.243.851,4.439,4.439,0,0,0-.061.73h0l-.122.122-.182.122-.487.3-.608.3-.608.3-.426.243a1.338,1.338,0,0,0-.061-.365l-.182-.365-.182-.365-.182-.3-.3-.426-.3-.487-.122-.365a2.369,2.369,0,0,1-.061-.365h.122a4.2,4.2,0,0,0,.791-.73,1.034,1.034,0,0,0,.243-.608.73.73,0,0,0-.851-.851l-.426.122-.487.365-.426.547-.243.487H90.336l-.669-.182-.547-.182-.3-.182-.122-.182-.3-.3-.3-.243-.3-.122h-.426l-.608.122-.608.3-.547.426-.487.487-.669.851-.547.912-.182.426H83.22l-.73-.122L82,66.39l-.3-.3-.122-.3V65.3l-.182-.487-.426-.669-.426-.243h-.061l-.122-.122-.122-.122-.182-.122h-.487l-.73.182-.791.426-.73.547-.487.608-.3.547-.243.182-.547.487-.487.365-.487.365-.608.365-.3.122H72.82a.326.326,0,0,1-.243-.182l-.182-.487-.122-.669-.122-.73-.122-.73a3.527,3.527,0,0,0-.122-.608l-.061-.182-.182-.182-.243-.122h-.182l-.608.122-.608.3-.547.426-.487.426-.3.365-.3.426-.3.426-.243.365-.122.182-.182.3-.182.3-.182.243V64.687l.122-.791.122-.791V60.673a2.067,2.067,0,0,0,0-.243.73.73,0,0,0-.182-.547.669.669,0,0,0-.487-.182h-.243l-.243.122L66.069,60l-.122.182-.122.365-.122.3v3.467a8.528,8.528,0,0,1-.061.912l-.122,1.034L65.4,67.3l.365.851v1.7a.669.669,0,0,0,.061.243l.182.243.243.182H66.8l.182-.122.182-.182.243-.426.243-.487.3-.487.3-.426.73-1.034.73-.851.608-.608.426-.3h-.122l.122.122V67l.122.608.122.547.122.365a1.156,1.156,0,0,0,.547.547,1.825,1.825,0,0,0,.791.182l1.034-.182.973-.426,1.095-.851.182-.182v.487a2.311,2.311,0,0,0,.061.608,2.007,2.007,0,0,0,.243.608,1.581,1.581,0,0,0,.487.487,1.277,1.277,0,0,0,.669.182h.973l.73-.3.73-.487.791-.791.487-.73.182-.3.122-.122H81.4l.365.122.487.122h1.095a3.71,3.71,0,0,0,0,.426,1.52,1.52,0,0,0,.122.608,2.007,2.007,0,0,0,.365.547l.487.426.608.182h.73l.73-.122.669-.243.547-.3.669-.608.547-.73a3.954,3.954,0,0,0,.426-.791,2.555,2.555,0,0,0,.122-.851v-.791l.426.182.426.122h.851l1.095-.122h.061a1.945,1.945,0,0,0,.061.3l.122.426.243.426.3.487.487.73a.912.912,0,0,1,.182.487.608.608,0,0,1-.061.3l-.182.182-.426.182-.547.122-.669.182-.426.3-.243.365a1.034,1.034,0,0,0-.061.365.426.426,0,0,0,.061.243l.182.182.243.122h.791l.3-.122.426-.182.851-.426.973-.547.791-.487.791-.487.73-.487.487-.426v.243a2.311,2.311,0,0,0,.487.851,1.946,1.946,0,0,0,.73.547,2.676,2.676,0,0,0,.973.182l.912-.122.973-.365.912-.547.791-.669.547-.669a1.1,1.1,0,0,0,.182-.547.547.547,0,0,0-.061-.365l-.182-.122m-23.963.791-.365.547-.365.426-.547.487-.547.365-.547.182h-.182l-.182-.122-.122-.182a.547.547,0,0,1-.061-.243,3.163,3.163,0,0,1,.122-.851,5.536,5.536,0,0,1,.3-.851l.426-.791.547-.669.547-.487.487-.182h.122v.73l.122.3.122.243v.426a1.277,1.277,0,0,1-.122.608M87.9,65.782v.851l-.182.3-.243.3-.243.243-.243.243-.426.3-.365.182-.365.122h-.73l-.122-.182v-.182a1.036,1.036,0,0,1,0-.243,3.406,3.406,0,0,1,.061-.608,1.886,1.886,0,0,1,.182-.547l.243-.426.243-.365.243-.365.243-.365.243-.3.243-.3.243-.243h.182l.122.122.243.122.365.122.243.182.122.243a1.459,1.459,0,0,1,.061.365v.365Zm11.008-.547a4.987,4.987,0,0,1,.365-.791,2.311,2.311,0,0,1,.426-.608.791.791,0,0,1,.547-.243h.182v.122a.365.365,0,0,1,.061.182.973.973,0,0,1-.122.547l-.426.487-.608.487-.73.547.243-.851" transform="translate(-25.624 -23.39)"/><path class="b" d="M145.5,65.382l-.243-.182h-.426a.669.669,0,0,0-.487.182,1.338,1.338,0,0,0-.3.547v1.946a1.521,1.521,0,0,1-.243.547l-.487.547-.608.426-.669.365L141.43,70h-.669l-.122-.182-.122-.3a1.521,1.521,0,0,1-.061-.365,2.433,2.433,0,0,1,.122-.791l.3-.851.122-.243.182-.365.182-.365v-.243q.006-.122,0-.243a.791.791,0,0,0-.122-.3L141,65.5h-.73l-.3.182-.182.3-.182.426V66.6l-.122.365-.122.3v.182l-.122.487-.122.547v.547a4.318,4.318,0,0,0-.061.487,2.493,2.493,0,0,0,.061.669,1.764,1.764,0,0,0,.243.547l.487.426.669.182h.547l.608-.182.608-.3.608-.365.547-.365.487-.365v.73q-.061.365-.122.669l-.122.608-.182.669-.243.608-.3.547-.365.365-.426.122h-.73l-.608-.182-.547-.3-.547-.487-.182-.122h-.426l-.122.182v.243a1.523,1.523,0,0,0,0,.243.608.608,0,0,0,.182.365l.426.426.547.365.608.3a4.44,4.44,0,0,0,1.642.3,2.25,2.25,0,0,0,2.007-1.095l.3-.547.3-.669.243-.669.182-.669.182-.851.182-.912.122-.912a7.379,7.379,0,0,0,.061-.912V66.112a2.742,2.742,0,0,0,0-.426.73.73,0,0,0-.122-.3" transform="translate(-54.457 -25.545)"/><path class="b" d="M177.087,65.429l-.426-.3L175.992,65a2.007,2.007,0,0,0-.912.182l-.73.487-.608.669-.426.669-.122.243-.182.365-.182.365-.122.243a3.891,3.891,0,0,1,.061-.487l.122-.547.122-.547.122-.487v-.426a.669.669,0,0,0-.061-.3l-.182-.182-.243-.122H172.1l-.3.182-.243.3-.182.365v.243l-.243.3-.487.608-.487.608-.547.547-.547.487-.547.3-.487.122a.487.487,0,0,1-.487-.365,2.129,2.129,0,0,1-.182-.912,6.565,6.565,0,0,1,.061-.73l.122-.791.122-.669v-.426a.626.626,0,0,0-.669-.608h-.182l-.182.122-.182.122-.122.122v.912l-.122.365-.182.365-.122.3-.3.487-.426.547-.487.547-.426.426-.365.3-.365.243-.426.182h-.426a.3.3,0,0,1-.243-.182.913.913,0,0,1-.122-.426,5.6,5.6,0,0,1,.061-1.034l.182-.851.182-.608a1.277,1.277,0,0,0,.061-.365,1.033,1.033,0,0,0-.061-.243l-.122-.243-.243-.182h-1.034l-.365.122-.487.122-.487.122-.365.122h-1.825l-.122-.122.061.122-.182-.182-.426-.365-.426-.182h-.182l-.122-.122-.122-.122h-.365l-.73.182-.669.487-.608.669-.547.73-.426.73-.243.669v.851a2.361,2.361,0,0,0,0,.243,3.344,3.344,0,0,0,.061.791,2.312,2.312,0,0,0,.243.669,1.46,1.46,0,0,0,.426.487,1.034,1.034,0,0,0,.608.182h.669l.851-.243.669-.365.547-.365.426-.426.365-.547.122-.3.122-.365v-.365a2.068,2.068,0,0,0,0-.3v-.365a.913.913,0,0,0-.061-.365h1.764l.608-.122.487-.122.243-.122.3-.182.243-.182-.122.608-.122.608v1.095a5.844,5.844,0,0,0,.061.73,1.825,1.825,0,0,0,.182.669,1.277,1.277,0,0,0,.487.487,1.7,1.7,0,0,0,.851.182l.791-.182.669-.3.547-.365.426-.365.365-.365.365-.426.3-.426.243-.365a3.284,3.284,0,0,0,.122.973,1.825,1.825,0,0,0,.365.669,1.338,1.338,0,0,0,.547.365l.669.122a1.885,1.885,0,0,0,.791-.182l.851-.547.851-.791.791-.912v2.068c0,.182.061.365.061.547a2.008,2.008,0,0,0,.061.547.851.851,0,0,0,.243.365.791.791,0,0,0,.547.182h.3l.182-.243.122-.365V70.355l.122-.426.182-.426.182-.365.243-.426.243-.426.3-.426.243-.365.3-.365.3-.3.3-.243h.487l.243.122.243.122h.3a.624.624,0,0,0,.608-.608,1.339,1.339,0,0,0-.061-.487,1.156,1.156,0,0,0-.243-.426m-20.618,2.919a4.074,4.074,0,0,1-.426,1.095,2.433,2.433,0,0,1-.73.791,1.642,1.642,0,0,1-.973.3h-.182l-.122-.122v-.182a.668.668,0,0,1-.061-.182,3.164,3.164,0,0,1,.061-.487l.122-.547.182-.608.243-.547.3-.487.3-.365.365-.243.365-.122h.243l.243.122.182.182.122.182a5.291,5.291,0,0,1-.182,1.277" transform="translate(-59.826 -25.348)"/><path class="b" d="M207.66,65.022l-.487-.122h-.487l-.608.122-.73.426-.791.608-.73.73-.487.791-.426.973a8.818,8.818,0,0,0-.3,1.034,3.589,3.589,0,0,0-.122.851.426.426,0,0,0,.122.3l.3.182.365.122h1.034l.791-.243.73-.426.608-.487a6.014,6.014,0,0,0-.061.851l-.122.912h0l-.122.791a3.285,3.285,0,0,1-.243.73,1.46,1.46,0,0,1-.426.547.973.973,0,0,1-.608.182h-.608l-.608-.182-.547-.3-.608-.426v-.122l-.122-.122-.122-.122h-.182a.365.365,0,0,0-.365.365,1.034,1.034,0,0,0,.122.426l.365.487.547.487.669.426.791.3.791.122.851-.182.669-.426.547-.608a3.892,3.892,0,0,0,.365-.73,7.666,7.666,0,0,0,.243-.912l.182-1.095a6.7,6.7,0,0,0,.122-1.095l.122-.973q.061-.669.061-1.156V65.691a.608.608,0,0,0-.182-.426l-.365-.243m-.851,1.7v1.4l-.122.3-.243.365-.3.3-.365.243-.73.3-.791.243v-.73l.122-.365.122-.3.608-.973.608-.791.547-.547.365-.182h.182v.73" transform="translate(-79.026 -25.428)"/><path class="b" d="M217.04,60.956v.426h0v.3l.122.122h.487l.3-.122.3-.182.182-.182.122-.243.122-.3v-.487a.243.243,0,0,0-.122-.182l-.243-.182-.243-.122h-.608l-.365.243-.243.3a.547.547,0,0,0-.061.3.73.73,0,0,0,0,.182v.122" transform="translate(-84.939 -23.43)"/><path class="b" d="M230.409,63.732l-.243-.182h-1.338l-.791.122-1.095.122.122-.547.182-.608v-.669q.006-.122,0-.243a.972.972,0,0,0,0-.182V61.36l-.182-.122h-.547l-.3.122-.243.182-.182.365-.182.608-.182.669-.182.608-.122.426-.912.122-.912.122-.791.122h-.973v-.122c0-.182.061-.426.061-.608l.122-.669.182-.73.182-.547.182-.3.182-.3.182-.243.182-.122.182.122.122.3v.669a3.65,3.65,0,0,1-.061.547l-.122.608h.122a.912.912,0,0,0,.73-.487,3.893,3.893,0,0,0,.365-.73,1.946,1.946,0,0,0,.122-.669,1.277,1.277,0,0,0-.426-.973,1.338,1.338,0,0,0-.973-.426l-.547.122-.547.3-.426.426-.365.487-.365.791a5.592,5.592,0,0,0-.243.791v1.338a1.7,1.7,0,0,1-.061.3l-.122.3-.243.365-.3.426a.547.547,0,0,0-.122.243.3.3,0,0,0,.061.182l.122.182.122.122v1.4h0a.851.851,0,0,0-.487.182l-.608.487-.365.243-.426.182-.487.122h-.487l-.365-.122a.852.852,0,0,1-.182-.365,2.068,2.068,0,0,1-.061-.487c0-.182,0-.3,0-.487a4.625,4.625,0,0,1,.061-.608l.122-.608.122-.547.122-.487.122-.487a1.459,1.459,0,0,0,.061-.365.426.426,0,0,0-.061-.182l-.182-.182-.3-.182h-.426l-.365.122-.243.243-.122.365a1.7,1.7,0,0,0-.061.3V65.5l-.122.547-.122.608v.669q-.046.3-.061.608a3.1,3.1,0,0,0,.122.851,2.25,2.25,0,0,0,.365.73,1.825,1.825,0,0,0,.608.547,1.885,1.885,0,0,0,.912.182h.791l.669-.182.487-.243.365-.243.487-.426.243-.3v.365l-.122.791-.182.851v.426l-.122.426-.122.365-.182.243h-.487l-.243.122-.182.243-.122.3a.852.852,0,0,0-.061.243.426.426,0,0,0,.061.243l.243.182.3.122h.3l.669-.122.547-.426.426-.608.3-.669.122-.3v-2.8l.122-.73.122-.73V66.1l.365-.122.608-.122.73-.122.73-.122h.973l-.122.547-.122.73-.122.73a3.833,3.833,0,0,0-.061.608v.426a3.224,3.224,0,0,0,.061.487,2.373,2.373,0,0,0,.182.487l.3.426.487.3.73.122a2.068,2.068,0,0,0,.851-.182l.73-.426.608-.487.365-.365.182-.243.122-.243v-.243a.913.913,0,0,0,0-.243.243.243,0,0,0-.122-.243h-.3l-.365.122-.3.243a4.318,4.318,0,0,1-.912.73,1.46,1.46,0,0,1-.669.243l-.243-.122-.182-.243v-.3a2.007,2.007,0,0,1,0-.3,3.163,3.163,0,0,1,.061-.547l.182-.791.182-.791.182-.73h.3l.669-.122.912-.122.973-.122h.243l.3-.182.243-.243a.426.426,0,0,0,.122-.3.3.3,0,0,0-.061-.243" transform="translate(-84.198 -23.469)"/><path class="b" d="M243.99,60.465l-.182-.182a.73.73,0,0,0-.487-.182h-.243l-.243.122-.243.182-.122.182v.487a2.553,2.553,0,0,0-.061.487,6.2,6.2,0,0,1-.122,1.034l-.243,1.156a8.4,8.4,0,0,0-.182,1.156c0,.365-.061.73-.061,1.034v.426l.426.182h.608l.122-.3V65.7a11.251,11.251,0,0,1,.3-1.4l.365-1.4.182-.669.122-.669.122-.547v-.3a.426.426,0,0,0-.061-.243" transform="translate(-94.738 -23.547)"/><path class="b" d="M242.16,73.282l-.3-.182h-.243l-.365.122-.3.3-.182.365a.912.912,0,0,0-.061.3q0,.791.73.791a1.1,1.1,0,0,0,.608-.243,1.354,1.354,0,0,0,.426-.487l.122-.608-.122-.182-.243-.182" transform="translate(-94.307 -28.641)"/><path class="b" d="M2.19,48.935V24.85H15.023V22.6H0V51.125H22.686v-2.19Z" transform="translate(0 -8.855)"/><path class="b" d="M280.5,48.935V24.85H267.724V22.6h14.962V51.125H260v-2.19Z" transform="translate(-101.868 -8.855)"/></g></g></g></svg>