<svg xmlns="http://www.w3.org/2000/svg" xmlns:xlink="http://www.w3.org/1999/xlink" width="60" height="60" viewBox="0 0 60 60"><defs><style>.a{fill:none;}.b{fill:#0185b6;}.c{clip-path:url(#a);}</style><clipPath id="a"><rect class="a" width="60" height="60"/></clipPath></defs><g transform="translate(30 30)"><g transform="translate(-30 -30)"><path class="b" d="M27.7,36.9l.8.8,2.1-1.2-1.7-1.7Z"/><path class="b" d="M19.1,43.9v-3h-3Z"/><path class="b" d="M26.6,38.9l1-.6-.4-.5Z"/><rect class="b" width="13.4" height="2.62" transform="translate(29.588 34.083) rotate(-45)"/><rect class="b" width="1" height="2.62" transform="translate(39.772 23.896) rotate(-45)"/><g class="c"><path class="b" d="M30,4A26,26,0,1,0,56,30,26,26,0,0,0,30,4m5.9,41.1a.5.5,0,0,1-.5.5H19.2l-4.7-4.7h-.1v-26a.5.5,0,0,1,.5-.5H35.4a.5.5,0,0,1,.5.5v9.7a.5.5,0,0,1-1,0V15.4H15.4V39.9h4.2a.5.5,0,0,1,.5.5v4.2H34.9V35.4a.5.5,0,0,1,1,0ZM18.2,30.8a.5.5,0,0,1,0-1H29.7a.5.5,0,0,1,0,1ZM25.7,33a.5.5,0,0,1-.5.5h-7a.5.5,0,0,1,0-1h6.9a.5.5,0,0,1,.5.5m-7.4-4.9a.5.5,0,0,1,0-1H32.1a.5.5,0,0,1,0,1ZM32,25.4H18.2a.5.5,0,0,1,0-1H32.1a.5.5,0,0,1,0,1m0-2.7H18.2a.5.5,0,0,1,0-1H32.1a.5.5,0,0,1,0,1m0-2.7H18.2a.5.5,0,0,1,0-1H32.1a.5.5,0,0,1,0,1M27.3,41a.5.5,0,0,1,.5-.5h4.3a.5.5,0,1,1,0,1H27.7a.5.5,0,0,1-.5-.5M45,23.8l-1.6,1.6h0L42,26.8h0L31.8,37h-.1l-5,3-.5.2-.6-.2a.851.851,0,0,1,0-1.1l3-5h.1l10-10.4,1.4-1.4,1.6-1.6A2.333,2.333,0,1,1,45,23.8"/><path class="b" d="M43.3,20.8a1.3,1.3,0,0,0-.9.4l-1.2,1.2L43,24.3,44.2,23a1.3,1.3,0,0,0-.9-2.2"/></g></g></g></svg>