<svg xmlns="http://www.w3.org/2000/svg" xmlns:xlink="http://www.w3.org/1999/xlink" width="60" height="60" viewBox="0 0 60 60"><defs><style>.a{fill:none;}.b{fill:#fa683d;}.c{clip-path:url(#a);}</style><clipPath id="a"><rect class="a" width="60" height="60"/></clipPath></defs><g transform="translate(30 30)"><g transform="translate(-30 -30)"><path class="b" d="M39.6,40.3l3.1-3.1H39.6Z"/><g class="c"><path class="b" d="M16.6,41h22V36.6a.5.5,0,0,1,.5-.5h4.4V23.9H16.6ZM31.9,29.8l1.5-1.5a.5.5,0,0,1,.9.4v7.5a.5.5,0,0,1-1,0V30l-.6.6a.5.5,0,0,1-.7-.7M28.9,33a.5.5,0,0,1,0-1,1.4,1.4,0,1,0-2-1.3.5.5,0,1,1-1,0,2.5,2.5,0,1,1,4.2,1.8,2.5,2.5,0,1,1-4.2,1.8.5.5,0,0,1,1,0,1.4,1.4,0,1,0,2-1.3"/><path class="b" d="M30,4A26,26,0,1,0,56,30,26,26,0,0,0,30,4M23.7,15.2H37.9v-.9a.5.5,0,1,1,1,0v1.4h0v3.8a.5.5,0,0,1-1,0V16.2H23.7a.5.5,0,0,1,0-1M44,46.2H16a.5.5,0,0,1,0-1H44a.5.5,0,0,1,0,1m.5-2.6a.5.5,0,0,1-.5.5H16a.5.5,0,0,1-.5-.5v-.7a.5.5,0,0,1,1,0v.2H43.4V38.7a.5.5,0,0,1,1,0Zm0-7h-.2l-4.9,4.9H16a.5.5,0,0,1-.5-.5V15.7a.5.5,0,0,1,.5-.5h5.1v-.9a.5.5,0,0,1,1,0v5.2a.5.5,0,0,1-1,0V16.2H16.6v6.6H43.4V16.2h-3a.5.5,0,0,1,0-1H44a.5.5,0,0,1,.5.5Z"/></g></g></g></svg>