<svg xmlns="http://www.w3.org/2000/svg" xmlns:xlink="http://www.w3.org/1999/xlink" width="50" height="50" viewBox="0 0 50 50"><defs><style>.a{fill:none;}.b{clip-path:url(#a);}.c{fill:#fff;}</style><clipPath id="a"><rect class="a" width="50" height="50"/></clipPath></defs><g transform="translate(25 25)"><g class="b" transform="translate(-25 -25)"><path class="c" d="M40.933,35.233V32.4H20.1v8.417H40.933V37.9a.5.5,0,0,1,.25-.5l1.75-.917-1.75-.917a.5.5,0,0,1-.25-.5m-7.167,3.25H22.517a.542.542,0,0,1,0-1.083H33.683a.542.542,0,1,1,0,1.083m4.917-2.75H22.517a.542.542,0,1,1,0-1.083H38.6a.542.542,0,0,1,0,1.083" transform="translate(-3.35 -5.4)"/><path class="c" d="M35.333,17.5H14.5v2.917a.5.5,0,0,1-.25.5l-1.75.917,1.75.917a.5.5,0,0,1,.25.5v2.833H35.333Zm-7.167,6.083H16.75a.542.542,0,0,1,0-1.083H28.083a.542.542,0,0,1,0,1.083M33,20.833H16.75a.542.542,0,0,1,0-1.083H33a.542.542,0,1,1,0,1.083" transform="translate(-2.083 -2.917)"/><path class="c" d="M25.667,4A21.667,21.667,0,1,0,47.333,25.667,21.667,21.667,0,0,0,25.667,4M12.083,23.667v-2.5L9.667,20a.5.5,0,0,1,0-.917l2.417-1.167v-2.5a1.083,1.083,0,0,1,1.083-1.25H33.833a1.083,1.083,0,0,1,1.083,1.083v8.417a1.083,1.083,0,0,1-1.083,1.083H13.167a1.083,1.083,0,0,1-1.083-1.083m29.583,8.667L39.25,33.5V36a1.083,1.083,0,0,1-1.083,1.167H17.5a1.083,1.083,0,0,1-1.083-1.083V27.667A1.083,1.083,0,0,1,17.5,26.583H38.167a1.083,1.083,0,0,1,1.083,1.083v2.5l2.417,1.167a.5.5,0,0,1,0,.917" transform="translate(-0.667 -0.667)"/></g></g></svg>