<svg xmlns="http://www.w3.org/2000/svg" width="30" height="30" viewBox="0 0 30 30"><defs><style>.a{fill:#fff;}</style></defs><path class="a" d="M15,30A15,15,0,0,1,9.162,1.179,15,15,0,0,1,20.839,28.821,14.907,14.907,0,0,1,15,30ZM11.465,6.7a6.352,6.352,0,0,0-2.089.429A4.451,4.451,0,0,0,6.8,9.643a6.352,6.352,0,0,0-.429,2.089c-.054.911-.054,1.216-.054,3.589s0,2.625.054,3.589A6.352,6.352,0,0,0,6.8,21a4.459,4.459,0,0,0,2.518,2.518,6.352,6.352,0,0,0,2.089.429H18.59a6.352,6.352,0,0,0,2.089-.429A4.459,4.459,0,0,0,23.2,21a6.352,6.352,0,0,0,.429-2.089c.054-.911.054-1.216.054-3.589s0-2.625-.054-3.589A6.352,6.352,0,0,0,23.2,9.643a4.456,4.456,0,0,0-2.518-2.518A6.352,6.352,0,0,0,18.59,6.7H11.465ZM18.483,22.34H11.518a4.821,4.821,0,0,1-1.607-.322,2.9,2.9,0,0,1-1.661-1.661,4.8,4.8,0,0,1-.322-1.607c-.054-.911-.054-1.155-.054-3.482,0-2.279,0-2.572.054-3.482a4.8,4.8,0,0,1,.322-1.607A2.9,2.9,0,0,1,9.911,8.572a4.8,4.8,0,0,1,1.607-.322H15V8.2h3.482a4.8,4.8,0,0,1,1.607.322,2.9,2.9,0,0,1,1.661,1.661,4.8,4.8,0,0,1,.322,1.607c.054.911.054,1.2.054,3.482,0,2.328,0,2.571-.054,3.482a4.8,4.8,0,0,1-.322,1.607,2.9,2.9,0,0,1-1.661,1.661A4.821,4.821,0,0,1,18.483,22.34ZM15,10.875a4.446,4.446,0,1,0,4.446,4.446A4.451,4.451,0,0,0,15,10.875Zm4.66-1.232a1.018,1.018,0,1,0,1.018,1.018A1.019,1.019,0,0,0,19.661,9.643ZM15,18.214a2.893,2.893,0,1,1,2.893-2.893A2.9,2.9,0,0,1,15,18.214Z" transform="translate(0 0)"/></svg>