<svg xmlns="http://www.w3.org/2000/svg" xmlns:xlink="http://www.w3.org/1999/xlink" width="30" height="30" viewBox="0 0 30 30"><defs><style>.a{fill:none;}.b{clip-path:url(#a);}.c{fill:#fff;}</style><clipPath id="a"><rect class="a" width="30" height="30"/></clipPath></defs><g class="b"><path class="c" d="M14,28A14,14,0,0,1,8.551,1.1a14,14,0,0,1,10.9,25.8A13.914,13.914,0,0,1,14,28ZM9.85,11.2v3.05H11.7l.05,8.95h3.6v-9h2.5l.25-3H15.35V9.5c0-.677.127-1,.85-1h1.95V5.35h-2.5a4.292,4.292,0,0,0-2.944.881A3.3,3.3,0,0,0,11.75,8.8v2.4Z" transform="translate(1 1)"/></g></svg>