<svg xmlns="http://www.w3.org/2000/svg" xmlns:xlink="http://www.w3.org/1999/xlink" width="45" height="45" viewBox="0 0 45 45"><defs><style>.a{fill:none;}.b{clip-path:url(#a);}.c{fill:#0185b6;}</style><clipPath id="a"><rect class="a" width="45" height="45"/></clipPath></defs><g transform="translate(22.5 22.5)"><g class="b" transform="translate(-22.5 -22.5)"><path class="c" d="M23.5,4A19.5,19.5,0,1,0,43,23.5,19.5,19.5,0,0,0,23.5,4m7.65,30.675c-.075.075-2.4,2.55-4.275,2.7h-.3c-2.55,0-6.75-2.475-10.65-6.375s-6.6-8.4-6.375-10.95,2.625-4.2,2.7-4.275a.45.45,0,0,1,.6,0,34.2,34.2,0,0,1,2.775,2.475,34.426,34.426,0,0,1,2.4,2.7.45.45,0,0,1,0,.6L16.3,23.275l.675.675a.45.45,0,0,1-.6.6l-.975-.975a.45.45,0,0,1,0-.6l1.725-1.725c-.375-.45-1.2-1.425-2.1-2.325S13.15,17.2,12.7,16.825a7.969,7.969,0,0,0-2.175,3.45c-.15,1.125,2.325,6.45,6.075,10.2s8.025,6.3,10.2,6.075,2.7-1.425,3.45-2.175c-.375-.45-1.2-1.425-2.1-2.325s-1.875-1.725-2.325-2.1L24.1,31.675l-.3.15-.3-.15-5.85-5.85a.45.45,0,0,1,.6-.6l5.55,5.55,1.725-1.725a.45.45,0,0,1,.6,0,34.2,34.2,0,0,1,2.625,2.325,34.425,34.425,0,0,1,2.4,2.7.45.45,0,0,1,0,.6M35.275,21.55a9.675,9.675,0,0,1-4.95,2.4,4.65,4.65,0,0,1-4.5,3.75.45.45,0,0,1-.3-.75,3.825,3.825,0,0,0,1.05-3c-4.125-.675-7.125-3.675-7.125-7.05a6.6,6.6,0,0,1,2.7-5.175,10.2,10.2,0,0,1,6.3-2.1,10.2,10.2,0,0,1,6.3,2.025,6.6,6.6,0,0,1,2.7,5.175,6.45,6.45,0,0,1-2.175,4.725" transform="translate(-1 -1)"/><path class="c" d="M33.9,12.6c-4.5,0-8.1,2.85-8.1,6.375s2.85,5.7,6.675,6.225a.45.45,0,0,1,.375.45h0a4.725,4.725,0,0,1-.6,3.075,3.75,3.75,0,0,0,2.7-3.075h0a.45.45,0,0,1,.375-.45c3.9-.525,6.675-3.15,6.675-6.225S38.4,12.6,33.9,12.6m-3,6.825a.45.45,0,1,1,.45-.45.45.45,0,0,1-.45.45m3,0a.45.45,0,1,1,.45-.45.45.45,0,0,1-.45.45m3,0a.45.45,0,1,1,.45-.45.45.45,0,0,1-.45.45" transform="translate(-6.45 -3.15)"/></g></g></svg>