<svg xmlns="http://www.w3.org/2000/svg" xmlns:xlink="http://www.w3.org/1999/xlink" width="32.894" height="32.894" viewBox="0 0 32.894 32.894"><defs><style>.a{fill:none;}.b{clip-path:url(#a);}.c{fill:#fff;}</style><clipPath id="a"><rect class="a" width="32.894" height="32.894" transform="translate(0 0)"/></clipPath></defs><g transform="translate(16.447 16.447)"><g class="b" transform="translate(-16.447 -16.447)"><path class="c" d="M23.272,9.672l.822-.384a4.167,4.167,0,0,0,1.371-5.756H25.41A3.892,3.892,0,0,0,22.12,2a4.605,4.605,0,0,0-2.577.768,7.456,7.456,0,0,0-2.138,3.344,7.785,7.785,0,0,0-2.193-3.4A4.605,4.605,0,0,0,12.636,2,3.892,3.892,0,0,0,9.4,3.531a4.167,4.167,0,0,0,1.261,5.7h.055l.713.439H2v6.414H4.467V30.121a2.577,2.577,0,0,0,2.522,2.632h7.84V15.812h4.989v16.94h7.84a2.577,2.577,0,0,0,2.577-2.577V16.141H32.7V9.672ZM14.719,8.356a6.14,6.14,0,0,1-3.07-.493,2.467,2.467,0,0,1-.877-3.344,2.193,2.193,0,0,1,1.864-.932,2.851,2.851,0,0,1,1.535.548A10.307,10.307,0,0,1,16.254,8.3l-1.535.11Zm5.756-4.221a2.851,2.851,0,0,1,1.535-.548,2.193,2.193,0,0,1,1.864.932A2.467,2.467,0,0,1,23,7.862a5.976,5.976,0,0,1-3.07.493H18.392A9.265,9.265,0,0,1,20.476,4.08" transform="translate(-0.904 -0.976)"/></g></g></svg>