<svg xmlns="http://www.w3.org/2000/svg" xmlns:xlink="http://www.w3.org/1999/xlink" width="58" height="58" viewBox="0 0 58 58"><defs><style>.a{fill:none;}.b{fill:#00acb3;}.c{clip-path:url(#a);}.d{fill:#fff;}</style><clipPath id="a"><rect class="a" width="50" height="50"/></clipPath></defs><rect class="b" width="58" height="58" rx="13" transform="translate(58 58) rotate(180)"/><g transform="translate(29 29)"><g class="c" transform="translate(-25 -25)"><path class="d" d="M15.3,18.3H39.8v-2H15.3Zm23.083-1.417a.417.417,0,1,1-.417.417.417.417,0,0,1,.417-.417m-2,0a.417.417,0,1,1-.417.417.417.417,0,0,1,.417-.417m-2,0a.417.417,0,1,1-.417.417.417.417,0,0,1,.417-.417" transform="translate(-2.55 -2.717)"/><path class="d" d="M15.3,39.7H39.8v-20H15.3Zm21.917-3.25a.417.417,0,0,1-.417.417H28.717a.417.417,0,0,1-.417-.417V30.533a.417.417,0,1,1,.833,0v5.5h7.333V27.867H29.133v1a.417.417,0,1,1-.833,0V27.45a.417.417,0,0,1,.417-.417h8.167a.417.417,0,0,1,.417.417ZM18.3,22.533H36.8a.417.417,0,0,1,0,.833H18.3a.417.417,0,0,1,0-.833m0,2.25H36.8a.417.417,0,0,1,0,.833H18.3a.417.417,0,0,1,0-.833m0,2.25h8.167a.417.417,0,1,1,0,.833H18.3a.417.417,0,0,1,0-.833m0,2.25h8.167a.417.417,0,1,1,0,.833H18.3a.417.417,0,0,1,0-.833m0,2.25h8.167a.417.417,0,1,1,0,.833H18.3a.417.417,0,0,1,0-.833m0,2.25h8.167a.417.417,0,1,1,0,.833H18.3a.417.417,0,1,1,0-.833m0,2.25h8.167a.417.417,0,1,1,0,.833H18.3a.417.417,0,0,1,0-.833" transform="translate(-2.55 -3.283)"/><path class="d" d="M25.667,4A21.667,21.667,0,1,0,47.333,25.667,21.667,21.667,0,0,0,25.667,4M38.75,37.5a.417.417,0,0,1-.417.417H13a.417.417,0,0,1-.417-.417V13.833A.417.417,0,0,1,13,13.417H38.333a.417.417,0,0,1,.417.417Z" transform="translate(-0.667 -0.667)"/></g></g></svg>