<svg xmlns="http://www.w3.org/2000/svg" xmlns:xlink="http://www.w3.org/1999/xlink" width="45" height="45" viewBox="0 0 45 45"><defs><style>.a{fill:none;}.b{clip-path:url(#a);}.c{fill:#0185b6;}</style><clipPath id="a"><rect class="a" width="45" height="45"/></clipPath></defs><g transform="translate(22.5 22.5)"><g class="b" transform="translate(-22.5 -22.5)"><path class="c" d="M23.5,4A19.5,19.5,0,1,0,43,23.5,19.5,19.5,0,0,0,23.5,4m4.35,26.85H13.225a1.575,1.575,0,0,1-1.575-1.575V16.525a1.575,1.575,0,0,1,1.575-1.575H32.05a1.575,1.575,0,0,1,1.575,1.575v8.55a.45.45,0,1,1-.825,0V16.6a.675.675,0,0,0-.675-.675h-18.9a.675.675,0,0,0-.675.675V29.35a.675.675,0,0,0,.675.675H27.85a.45.45,0,1,1,0,.825m1.95-4.575a.45.45,0,0,1,0,.6l-.3.15-.3-.15L25.975,23.5l-2.25,2.4a1.5,1.5,0,0,1-2.175,0L19.3,23.5l-5.25,5.475-.3.15-.3-.15a.45.45,0,0,1,0-.6l5.25-5.55L13.45,17.35a.45.45,0,0,1,.6-.6l8.1,8.55a.675.675,0,0,0,.975,0l8.1-8.475a.45.45,0,0,1,.6.6L26.575,22.9Zm3.45,8.175A4.05,4.05,0,1,1,37.3,30.4a4.125,4.125,0,0,1-4.05,4.05" transform="translate(-1 -1)"/><path class="c" d="M41.825,34.9a3.225,3.225,0,1,0,3.225,3.225A3.225,3.225,0,0,0,41.825,34.9m.45,4.65a.45.45,0,1,1-.825,0V37.675A.45.45,0,0,1,41,37l.6-.6a.45.45,0,0,1,.75.3Z" transform="translate(-9.65 -8.725)"/></g></g></svg>