<svg xmlns="http://www.w3.org/2000/svg" xmlns:xlink="http://www.w3.org/1999/xlink" width="58" height="58" viewBox="0 0 58 58"><defs><style>.a{fill:none;}.b{fill:#0185b6;}.c{fill:#fff;}.d{clip-path:url(#a);}</style><clipPath id="a"><rect class="a" width="50" height="50"/></clipPath></defs><path class="b" d="M13,0H45A13,13,0,0,1,58,13V45A13,13,0,0,1,45,58H13A13,13,0,0,1,0,45V13A13,13,0,0,1,13,0Z" transform="translate(58 58) rotate(180)"/><g transform="translate(29 29)"><g transform="translate(-25 -25)"><path class="c" d="M27.7,36.55l.667.667,1.75-1L28.7,34.8Z" transform="translate(-4.617 -5.8)"/><path class="c" d="M18.6,43.4V40.9H16.1Z" transform="translate(-2.683 -6.817)"/><path class="c" d="M26.6,38.717l.833-.5L27.1,37.8Z" transform="translate(-4.433 -6.3)"/><rect class="c" width="11.167" height="2.183" transform="translate(24.657 28.402) rotate(-45)"/><rect class="c" width="0.833" height="2.183" transform="translate(33.143 19.914) rotate(-45)"/><g class="d"><path class="c" d="M25.667,4A21.667,21.667,0,1,0,47.333,25.667,21.667,21.667,0,0,0,25.667,4m4.917,34.25a.417.417,0,0,1-.417.417h-13.5L12.75,34.75h-.083V13.083a.417.417,0,0,1,.417-.417H30.167a.417.417,0,0,1,.417.417v8.083a.417.417,0,0,1-.833,0V13.5H13.5V33.917H17a.417.417,0,0,1,.417.417v3.5H29.75V30.167a.417.417,0,0,1,.833,0ZM15.833,26.333a.417.417,0,1,1,0-.833h9.583a.417.417,0,0,1,0,.833Zm6.25,1.833a.417.417,0,0,1-.417.417H15.833a.417.417,0,1,1,0-.833h5.75a.417.417,0,0,1,.417.417m-6.167-4.083a.417.417,0,1,1,0-.833H27.417a.417.417,0,1,1,0,.833Zm11.5-2.25h-11.5a.417.417,0,1,1,0-.833H27.417a.417.417,0,0,1,0,.833m0-2.25H15.833a.417.417,0,1,1,0-.833H27.417a.417.417,0,0,1,0,.833m0-2.25H15.833a.417.417,0,1,1,0-.833H27.417a.417.417,0,1,1,0,.833m-4,17.5a.417.417,0,0,1,.417-.417h3.583a.417.417,0,1,1,0,.833H23.75a.417.417,0,0,1-.417-.417M38.167,20.5l-1.333,1.333h0L35.667,23h0l-8.5,8.5h-.083L22.917,34l-.417.167L22,34a.71.71,0,0,1,0-.917l2.5-4.167h.083l8.333-8.667,1.167-1.167,1.333-1.333a1.945,1.945,0,1,1,2.75,2.75" transform="translate(-0.667 -0.667)"/><path class="c" d="M42.95,20.8a1.083,1.083,0,0,0-.75.333l-1,1,1.5,1.583,1-1.083a1.083,1.083,0,0,0-.75-1.833" transform="translate(-6.867 -3.467)"/></g></g></g></svg>