<svg xmlns="http://www.w3.org/2000/svg" width="30" height="30" viewBox="0 0 30 30"><defs><style>.a{fill:#fff;}</style></defs><path class="a" d="M15,30A15,15,0,0,1,9.162,1.179,15,15,0,0,1,20.839,28.821,14.907,14.907,0,0,1,15,30ZM7.875,11.946V22.521h3.268V11.946Zm10.5,2.679c1.206,0,1.768.749,1.768,2.357V22.5h3.268V15.8a4.314,4.314,0,0,0-1.085-3.154,3.791,3.791,0,0,0-2.772-1.025h-.008a3.72,3.72,0,0,0-3.153,1.768V11.946H13.286V22.5h3.16l-.054-5.518C16.393,15.462,17.1,14.625,18.376,14.625ZM9.536,6.7a1.9,1.9,0,1,0,0,3.8v.054A1.929,1.929,0,0,0,9.571,6.7Z" transform="translate(0 0)"/></svg>