<svg xmlns="http://www.w3.org/2000/svg" xmlns:xlink="http://www.w3.org/1999/xlink" width="240" height="23" viewBox="0 0 240 23"><defs><style>.a{fill:none;}.b{fill:#fa683d;}.c,.f{fill:#fff;}.c{font-size:14px;font-family:Calibri-Bold, Calibri;font-weight:700;}.d{clip-path:url(#a);}.e{fill:#00acb3;fill-rule:evenodd;}</style><clipPath id="a"><rect class="a" width="18" height="18"/></clipPath></defs><g transform="translate(-65 -1966)"><g transform="translate(0 583)"><rect class="b" width="240" height="23" rx="5" transform="translate(65 1383)"/><text class="c" transform="translate(71 1399)"><tspan x="0" y="0">BROWSE WELL-BEING EXPERIENCES</tspan></text><g transform="translate(292 1395)"><g class="d" transform="translate(-9 -9)"><path class="e" d="M18.8,10.4A8.4,8.4,0,1,1,10.4,2a8.4,8.4,0,0,1,8.4,8.4" transform="translate(-1.4 -1.4)"/><path class="f" d="M22.84,19.147l-3.42-3.42a.84.84,0,1,0-1.2,1.14h.03l2.01,2.01H13.54a.84.84,0,1,0,0,1.68h6.69l-2.01,2.01a.84.84,0,0,0,1.17,1.17l3.45-3.36a.84.84,0,0,0,.24-.6.12.12,0,0,0,0-.03.12.12,0,0,0,0-.03.84.84,0,0,0-.24-.6" transform="translate(-8.89 -10.747)"/></g></g></g></g></svg>