<svg xmlns="http://www.w3.org/2000/svg" xmlns:xlink="http://www.w3.org/1999/xlink" width="550" height="152.569" viewBox="0 0 550 152.569"><defs><style>.a,.c{fill:none;}.b{fill:#0185b6;}.c{stroke:#fff;opacity:0.2;}.d,.g,.j{fill:#fff;}.d{font-size:30px;font-family:SegoeScript-Bold, Segoe Script;}.d,.g{font-weight:700;}.e{fill:#c20a2b;}.f{fill:#dd3a57;}.g{font-size:19px;font-family:Calibri-Bold, Calibri;}.h{fill:#00acb3;}.i{clip-path:url(#k);}.k{stroke:none;}.l{filter:url(#i);}.m{filter:url(#g);}.n{filter:url(#e);}.o{filter:url(#c);}.p{filter:url(#a);}</style><filter id="a" x="111" y="8.915" width="329" height="66" filterUnits="userSpaceOnUse"><feOffset dy="3" input="SourceAlpha"/><feGaussianBlur stdDeviation="3" result="b"/><feFlood flood-opacity="0.161"/><feComposite operator="in" in2="b"/><feComposite in="SourceGraphic"/></filter><filter id="c" x="223" y="70.478" width="156" height="69" filterUnits="userSpaceOnUse"><feOffset dy="3" input="SourceAlpha"/><feGaussianBlur stdDeviation="3" result="d"/><feFlood flood-opacity="0.161"/><feComposite operator="in" in2="d"/><feComposite in="SourceGraphic"/></filter><filter id="e" x="223" y="79.478" width="145" height="51" filterUnits="userSpaceOnUse"><feOffset dy="3" input="SourceAlpha"/><feGaussianBlur stdDeviation="3" result="f"/><feFlood flood-opacity="0.161"/><feComposite operator="in" in2="f"/><feComposite in="SourceGraphic"/></filter><filter id="g" x="236" y="83.478" width="119" height="41" filterUnits="userSpaceOnUse"><feOffset dy="3" input="SourceAlpha"/><feGaussianBlur stdDeviation="3" result="h"/><feFlood flood-opacity="0.161"/><feComposite operator="in" in2="h"/><feComposite in="SourceGraphic"/></filter><filter id="i" x="172" y="70.478" width="69" height="69" filterUnits="userSpaceOnUse"><feOffset dy="3" input="SourceAlpha"/><feGaussianBlur stdDeviation="3" result="j"/><feFlood flood-opacity="0.161"/><feComposite operator="in" in2="j"/><feComposite in="SourceGraphic"/></filter><clipPath id="k"><rect class="a" width="40" height="40"/></clipPath></defs><g transform="translate(-45 -646.727)"><path class="b" d="M13,0H537a13,13,0,0,1,13,13V152.568a0,0,0,0,1,0,0H0a0,0,0,0,1,0,0V13A13,13,0,0,1,13,0Z" transform="translate(45 646.727)"/><g class="c" transform="translate(48 649.729)"><path class="k" d="M10,0H534a10,10,0,0,1,10,10V149.568a0,0,0,0,1,0,0H0a0,0,0,0,1,0,0V10A10,10,0,0,1,10,0Z"/><path class="a" d="M10,.5H534a9.5,9.5,0,0,1,9.5,9.5V148.568a.5.5,0,0,1-.5.5H1a.5.5,0,0,1-.5-.5V10A9.5,9.5,0,0,1,10,.5Z"/></g><g class="p" transform="matrix(1, 0, 0, 1, 45, 646.73)"><text class="d" transform="translate(120 14.92)"><tspan x="0" y="33">See you soon on . . .</tspan></text></g><g transform="translate(226 723.206)"><g class="o" transform="matrix(1, 0, 0, 1, -181, -76.48)"><path class="e" d="M0,0H125a13,13,0,0,1,13,13V38a13,13,0,0,1-13,13H0a0,0,0,0,1,0,0V0A0,0,0,0,1,0,0Z" transform="translate(232 76.48)"/></g><g class="n" transform="matrix(1, 0, 0, 1, -181, -76.48)"><path class="f" d="M10,0H127a0,0,0,0,1,0,0V33a0,0,0,0,1,0,0H10A10,10,0,0,1,0,23V10A10,10,0,0,1,10,0Z" transform="translate(359 118.48) rotate(180)"/></g><g class="m" transform="matrix(1, 0, 0, 1, -181, -76.48)"><text class="g" transform="translate(245 107.48)"><tspan x="0" y="0">happybox.ke</tspan></text></g><g class="l" transform="matrix(1, 0, 0, 1, -181, -76.48)"><path class="h" d="M0,0H38A13,13,0,0,1,51,13V38A13,13,0,0,1,38,51H0a0,0,0,0,1,0,0V0A0,0,0,0,1,0,0Z" transform="translate(232 127.48) rotate(180)"/></g><g transform="translate(6 6)"><g transform="translate(20 20)"><g class="i" transform="translate(-20 -20)"><path class="j" d="M35.548,18.8a14.211,14.211,0,0,1-4.848,1v3.652a36.988,36.988,0,0,0,5.777-.531,22.112,22.112,0,0,0-.93-4.117" transform="translate(-10.313 -6.316)"/><path class="j" d="M30.7,37.819a14.211,14.211,0,0,1,4.848,1,22.246,22.246,0,0,0,.93-4.184A37.054,37.054,0,0,0,30.7,34.1Z" transform="translate(-10.313 -11.456)"/><path class="j" d="M20.6,22.984a36.987,36.987,0,0,0,5.777.531V19.8a14.211,14.211,0,0,1-4.848-1,22.246,22.246,0,0,0-.93,4.184" transform="translate(-6.92 -6.316)"/><path class="j" d="M20.3,28.824c0,.8.066,1.594.133,2.324a37.917,37.917,0,0,1,5.844-.465V26.965a37.918,37.918,0,0,1-5.844-.465c-.066.8-.133,1.527-.133,2.324" transform="translate(-6.82 -8.903)"/><path class="j" d="M30.7,26.965v3.652a37.917,37.917,0,0,1,5.844.531c.066-.73.133-1.527.133-2.324s-.066-1.594-.133-2.324a37.917,37.917,0,0,1-5.844.531" transform="translate(-10.313 -8.903)"/><path class="j" d="M21.265,4A17.265,17.265,0,1,0,38.531,21.265,17.265,17.265,0,0,0,21.265,4M31.359,31.359a14.277,14.277,0,1,1,4.184-10.094,14.277,14.277,0,0,1-4.184,10.094" transform="translate(-1.344 -1.344)"/><path class="j" d="M23.248,9.9A13.348,13.348,0,1,0,36.6,23.248,13.348,13.348,0,0,0,23.248,9.9M34.8,27.63a.465.465,0,0,1-.4.266h-.2a18.128,18.128,0,0,0-3.785-1.2,23.176,23.176,0,0,1-1,4.383l1.66.93a.465.465,0,0,1-.266.863h-.266l-1.461-.863A13.48,13.48,0,0,1,27.63,34.8a.465.465,0,0,1-.4.2h-.266a.465.465,0,0,1-.133-.664,12.617,12.617,0,0,0,1.328-2.59,13.281,13.281,0,0,0-4.516-.93V35.2a.465.465,0,1,1-.93,0V30.619a13.281,13.281,0,0,0-4.516.93,12.684,12.684,0,0,0,1.328,2.59.465.465,0,0,1-.133.664H19.13a.465.465,0,0,1-.4-.2,13.48,13.48,0,0,1-1.461-2.789l-1.328,1a.479.479,0,1,1-.531-.8l1.66-.93a23.109,23.109,0,0,1-1-4.383,18.128,18.128,0,0,0-3.785,1.2.475.475,0,0,1-.4-.863,19.125,19.125,0,0,1,4.117-1.262c-.066-.8-.133-1.66-.133-2.523s.066-1.66.133-2.523a19.191,19.191,0,0,1-4.117-1.262.475.475,0,0,1,.4-.863,18.129,18.129,0,0,0,3.785,1.2,23.176,23.176,0,0,1,1-4.383l-1.66-.93a.479.479,0,0,1,.531-.8l1.461.863a13.547,13.547,0,0,1,1.461-2.789.479.479,0,1,1,.8.531,12.683,12.683,0,0,0-1.328,2.59,13.281,13.281,0,0,0,4.516.93V11.295a.465.465,0,0,1,.93,0V15.81a13.281,13.281,0,0,0,4.516-.93,12.683,12.683,0,0,0-1.328-2.59.479.479,0,1,1,.8-.531,13.48,13.48,0,0,1,1.461,2.789l1.461-.863a.479.479,0,0,1,.531.8l-1.66.93a23.176,23.176,0,0,1,1,4.383A18.129,18.129,0,0,0,34.2,18.6a.475.475,0,1,1,.4.863,19.191,19.191,0,0,1-4.117,1.262c.066.8.133,1.66.133,2.523s-.066,1.66-.133,2.523A19.125,19.125,0,0,1,34.6,27.033a.465.465,0,0,1,.266.6" transform="translate(-3.326 -3.326)"/><path class="j" d="M21.53,38.848a14.211,14.211,0,0,1,4.848-1V34.2a36.987,36.987,0,0,0-5.777.531,22.113,22.113,0,0,0,.93,4.117" transform="translate(-6.92 -11.489)"/></g></g></g></g></g></svg>