<svg xmlns="http://www.w3.org/2000/svg" xmlns:xlink="http://www.w3.org/1999/xlink" width="275" height="111" viewBox="0 0 275 111"><defs><style>.a,.d{fill:none;}.b{fill:#0985b6;}.c,.g{fill:#fff;}.c{font-size:22px;font-family:Calibri-Bold, Calibri;font-weight:700;}.d{stroke:#fff;opacity:0.4;}.e{clip-path:url(#a);}.f{fill:#0185b6;}.h{stroke:none;}</style><clipPath id="a"><rect class="a" width="55" height="55"/></clipPath></defs><g transform="translate(-45 -1321)"><path class="b" d="M13,0H275a0,0,0,0,1,0,0V87a0,0,0,0,1,0,0H13A13,13,0,0,1,0,74V13A13,13,0,0,1,13,0Z" transform="translate(45 1345)"/><text class="c" transform="translate(117 1400)"><tspan x="0" y="0">OUR PARTNER</tspan></text><g class="d" transform="translate(47 1347)"><path class="h" d="M13,0H273a0,0,0,0,1,0,0V83a0,0,0,0,1,0,0H13A13,13,0,0,1,0,70V13A13,13,0,0,1,13,0Z"/><path class="a" d="M13,.5H272a.5.5,0,0,1,.5.5V82a.5.5,0,0,1-.5.5H13A12.5,12.5,0,0,1,.5,70V13A12.5,12.5,0,0,1,13,.5Z"/></g><g transform="translate(182.5 1348.5)"><g class="e" transform="translate(-27.5 -27.5)"><path class="f" d="M55,27.5A27.5,27.5,0,1,1,27.5,0,27.5,27.5,0,0,1,55,27.5"/><path class="g" d="M28.653,12.6A6.353,6.353,0,1,1,22.3,18.953,6.353,6.353,0,0,1,28.653,12.6" transform="translate(-1.153 -0.652)"/><path class="g" d="M43.741,15.8A4.741,4.741,0,1,1,39,20.541,4.741,4.741,0,0,1,43.741,15.8" transform="translate(-2.017 -0.817)"/><path class="g" d="M53.209,37.082c-.948-5.974-4.078-9.483-9.388-9.483A8.44,8.44,0,0,0,38.7,29.117l.569.474a18.669,18.669,0,0,1,4.552,10.241,4.107,4.107,0,0,0,.095.474c5.216.095,9.767-.853,9.388-3.224" transform="translate(-2.002 -1.427)"/><path class="g" d="M13.741,15.8A4.741,4.741,0,1,1,9,20.541,4.741,4.741,0,0,1,13.741,15.8" transform="translate(-0.466 -0.817)"/><path class="g" d="M18.038,29.591l.474-.474A8.629,8.629,0,0,0,13.486,27.6c-5.31,0-8.44,3.509-9.388,9.483-.474,2.371,4.172,3.224,9.388,3.224a1.138,1.138,0,0,1,.095-.474A19.31,19.31,0,0,1,18.133,29.5" transform="translate(-0.21 -1.428)"/><path class="g" d="M28.311,44.474c-6.922,0-13.086-1.233-12.612-4.267C17.026,32.147,21.2,27.5,28.311,27.5S39.6,32.241,40.923,40.207c.474,3.034-5.595,4.267-12.612,4.267" transform="translate(-0.811 -1.422)"/></g></g></g></svg>