<svg xmlns="http://www.w3.org/2000/svg" xmlns:xlink="http://www.w3.org/1999/xlink" width="640" height="318" viewBox="0 0 640 318"><defs><style>.a{fill:none;}.b{opacity:0.2;mix-blend-mode:multiply;isolation:isolate;}.c{fill:#f4ef14;}.d{fill:#fa683d;}.e{fill:#ff005c;}.f{fill:#10d271;}.g{fill:#0185b6;stroke:#fff;}.h{clip-path:url(#c);}.i{fill:#fff;}.j{stroke:none;}.k{filter:url(#a);}</style><filter id="a" x="282" y="241" width="77" height="77" filterUnits="userSpaceOnUse"><feOffset dy="3" input="SourceAlpha"/><feGaussianBlur stdDeviation="2" result="b"/><feFlood flood-opacity="0.161"/><feComposite operator="in" in2="b"/><feComposite in="SourceGraphic"/></filter><clipPath id="c"><rect class="a" width="43.292" height="43.292" transform="translate(0 0)"/></clipPath></defs><g transform="translate(0 -24)"><rect class="b" width="640" height="270" transform="translate(0 29)"/><rect class="c" width="160" height="5" transform="translate(0 24)"/><rect class="d" width="160" height="5" transform="translate(160 24)"/><rect class="e" width="160" height="5" transform="translate(320 24)"/><rect class="f" width="160" height="5" transform="translate(480 24)"/><g transform="translate(288.255 268.255)"><g class="k" transform="matrix(1, 0, 0, 1, -288.26, -244.26)"><g class="g" transform="translate(288 244)"><circle class="j" cx="32.5" cy="32.5" r="32.5"/><circle class="a" cx="32.5" cy="32.5" r="32"/></g></g><g transform="translate(32.469 32.569)"><g class="h" transform="translate(-21.646 -21.646)"><path class="i" d="M30,12.1l1.082-.505a5.484,5.484,0,0,0,1.8-7.576H32.81A5.123,5.123,0,0,0,28.48,2a6.061,6.061,0,0,0-3.391,1.01,9.813,9.813,0,0,0-2.814,4.4,10.246,10.246,0,0,0-2.886-4.474A6.061,6.061,0,0,0,16,2a5.123,5.123,0,0,0-4.257,2.02,5.484,5.484,0,0,0,1.66,7.5h.072l.938.577H2v8.442H5.247V39.013a3.391,3.391,0,0,0,3.319,3.463H18.884V20.18H25.45v22.3H35.768a3.391,3.391,0,0,0,3.391-3.391V20.613h3.247V12.1ZM18.74,10.368A8.081,8.081,0,0,1,14.7,9.718a3.247,3.247,0,0,1-1.154-4.4A2.886,2.886,0,0,1,16,4.09a3.752,3.752,0,0,1,2.02.722A13.565,13.565,0,0,1,20.76,10.3l-2.02.144Zm7.576-5.556a3.752,3.752,0,0,1,2.02-.722,2.886,2.886,0,0,1,2.453,1.227,3.247,3.247,0,0,1-1.154,4.4,7.865,7.865,0,0,1-4.041.649h-2.02A12.194,12.194,0,0,1,26.316,4.74" transform="translate(-0.557 -0.655)"/></g></g></g></g></svg>