<svg xmlns="http://www.w3.org/2000/svg" xmlns:xlink="http://www.w3.org/1999/xlink" width="275" height="112" viewBox="0 0 275 112"><defs><style>.a,.d{fill:none;}.b{fill:#c20a2b;}.c,.f{fill:#fff;}.c{font-size:22px;font-family:Calibri-Bold, Calibri;font-weight:700;}.d{stroke:#fff;opacity:0.4;}.e{clip-path:url(#a);}.g{stroke:none;}</style><clipPath id="a"><rect class="a" width="35" height="35" transform="translate(0 0)"/></clipPath></defs><g transform="translate(-320 -1320)"><path class="b" d="M0,0H262a13,13,0,0,1,13,13V74a13,13,0,0,1-13,13H0a0,0,0,0,1,0,0V0A0,0,0,0,1,0,0Z" transform="translate(320 1345)"/><text class="c" transform="translate(418 1400)"><tspan x="0" y="0">THE BOX</tspan></text><g class="d" transform="translate(320 1347)"><path class="g" d="M0,0H260a13,13,0,0,1,13,13V70a13,13,0,0,1-13,13H0a0,0,0,0,1,0,0V0A0,0,0,0,1,0,0Z"/><path class="a" d="M1,.5H260A12.5,12.5,0,0,1,272.5,13V70A12.5,12.5,0,0,1,260,82.5H1A.5.5,0,0,1,.5,82V1A.5.5,0,0,1,1,.5Z"/></g><g transform="translate(142 94)"><g transform="translate(288.255 1226.255)"><circle class="b" cx="27.5" cy="27.5" r="27.5" transform="translate(-0.255 -0.255)"/><g transform="translate(27.245 27.245)"><g class="e" transform="translate(-17.5 -17.5)"><path class="f" d="M24.633,10.163l.875-.408A4.433,4.433,0,0,0,26.967,3.63h-.058A4.142,4.142,0,0,0,23.408,2a4.9,4.9,0,0,0-2.742.817,7.933,7.933,0,0,0-2.275,3.558,8.283,8.283,0,0,0-2.333-3.617A4.9,4.9,0,0,0,13.317,2,4.142,4.142,0,0,0,9.875,3.63,4.433,4.433,0,0,0,11.217,9.7h.058l.758.467H2v6.825H4.625V31.922a2.742,2.742,0,0,0,2.683,2.8H15.65V16.7h5.308V34.722H29.3a2.742,2.742,0,0,0,2.742-2.742V17.047h2.625V10.163Zm-9.1-1.4a6.533,6.533,0,0,1-3.267-.525,2.625,2.625,0,0,1-.933-3.558,2.333,2.333,0,0,1,1.983-.992,3.033,3.033,0,0,1,1.633.583A10.967,10.967,0,0,1,17.167,8.7l-1.633.117Zm6.125-4.492a3.033,3.033,0,0,1,1.633-.583,2.333,2.333,0,0,1,1.983.992,2.625,2.625,0,0,1-.933,3.558,6.358,6.358,0,0,1-3.267.525H19.442a9.858,9.858,0,0,1,2.217-4.55" transform="translate(-0.833 -0.911)"/></g></g></g></g></g></svg>