<svg xmlns="http://www.w3.org/2000/svg" width="471" height="60" viewBox="0 0 471 60"><defs><style>.a{fill:#0185b6;}.b{fill:#fff;font-size:20px;font-family:SegoeScript-Bold, Segoe Script;font-weight:700;}.c,.e{fill:none;}.c{stroke:#fff;opacity:0.304;}.d{stroke:none;}</style></defs><g transform="translate(-86 -268)"><path class="a" d="M0,0H408a0,0,0,0,1,0,0V47a13,13,0,0,1-13,13H13A13,13,0,0,1,0,47V0A0,0,0,0,1,0,0Z" transform="translate(117 268)"/><text class="b" transform="translate(86 282)"><tspan x="65.974" y="22">This gift is offered to you by . . .</tspan></text><g class="c" transform="translate(121 268)"><path class="d" d="M0,0H401a0,0,0,0,1,0,0V47a10,10,0,0,1-10,10H10A10,10,0,0,1,0,47V0A0,0,0,0,1,0,0Z"/><path class="e" d="M1,.5H400a.5.5,0,0,1,.5.5V47a9.5,9.5,0,0,1-9.5,9.5H10A9.5,9.5,0,0,1,.5,47V1A.5.5,0,0,1,1,.5Z"/></g></g></svg>