<svg xmlns="http://www.w3.org/2000/svg" xmlns:xlink="http://www.w3.org/1999/xlink" width="31" height="31" viewBox="0 0 31 31"><defs><style>.a{fill:none;}.b{clip-path:url(#a);}.c{fill:#fff;}</style><clipPath id="a"><rect class="a" width="31" height="31" transform="translate(0 0)"/></clipPath></defs><g transform="translate(15.5 15.5)"><g class="b" transform="translate(-15.5 -15.5)"><path class="c" d="M22.047,9.229l.775-.362a3.927,3.927,0,0,0,1.292-5.425h-.052A3.668,3.668,0,0,0,20.962,2a4.34,4.34,0,0,0-2.428.723,7.027,7.027,0,0,0-2.015,3.152,7.337,7.337,0,0,0-2.067-3.2A4.34,4.34,0,0,0,12.023,2,3.668,3.668,0,0,0,8.975,3.443a3.927,3.927,0,0,0,1.188,5.373h.052l.672.413H2v6.045H4.325V28.5A2.428,2.428,0,0,0,6.7,30.981H14.09V15.016h4.7V30.981H26.18a2.428,2.428,0,0,0,2.428-2.428V15.326h2.325v-6.1Zm-8.06-1.24a5.787,5.787,0,0,1-2.893-.465,2.325,2.325,0,0,1-.827-3.152,2.067,2.067,0,0,1,1.757-.878,2.687,2.687,0,0,1,1.447.517,9.713,9.713,0,0,1,1.963,3.927l-1.447.1Zm5.425-3.978a2.687,2.687,0,0,1,1.447-.517,2.067,2.067,0,0,1,1.757.878,2.325,2.325,0,0,1-.827,3.152,5.632,5.632,0,0,1-2.893.465H17.448a8.732,8.732,0,0,1,1.963-4.03" transform="translate(-0.967 -1.034)"/></g></g></svg>