<svg xmlns="http://www.w3.org/2000/svg" xmlns:xlink="http://www.w3.org/1999/xlink" width="550" height="119" viewBox="0 0 550 119"><defs><style>.a,.c{fill:none;}.b,.e{fill:#c20a2b;}.c,.e{stroke:#fff;}.c{opacity:0.2;}.d,.g{fill:#fff;}.d{font-size:30px;font-family:SegoeScript-Bold, Segoe Script;font-weight:700;}.f{clip-path:url(#e);}.h{stroke:none;}.i{filter:url(#c);}.j{filter:url(#a);}</style><filter id="a" x="138" y="53" width="274" height="66" filterUnits="userSpaceOnUse"><feOffset dy="3" input="SourceAlpha"/><feGaussianBlur stdDeviation="3" result="b"/><feFlood flood-opacity="0.161"/><feComposite operator="in" in2="b"/><feComposite in="SourceGraphic"/></filter><filter id="c" x="242.081" y="0" width="67" height="67" filterUnits="userSpaceOnUse"><feOffset dy="3" input="SourceAlpha"/><feGaussianBlur stdDeviation="2" result="d"/><feFlood flood-opacity="0.161"/><feComposite operator="in" in2="d"/><feComposite in="SourceGraphic"/></filter><clipPath id="e"><rect class="a" width="31" height="31" transform="translate(0 0)"/></clipPath></defs><g transform="translate(-45 -151)"><path class="b" d="M13,0H537a13,13,0,0,1,13,13V81.9a0,0,0,0,1,0,0H0a0,0,0,0,1,0,0V13A13,13,0,0,1,13,0Z" transform="translate(45 187)"/><g class="c" transform="translate(48 190.399)"><path class="h" d="M10,0H534a10,10,0,0,1,10,10V78.9a0,0,0,0,1,0,0H0a0,0,0,0,1,0,0V10A10,10,0,0,1,10,0Z"/><path class="a" d="M10,.5H534a9.5,9.5,0,0,1,9.5,9.5V77.9a.5.5,0,0,1-.5.5H1a.5.5,0,0,1-.5-.5V10A9.5,9.5,0,0,1,10,.5Z"/></g><g class="j" transform="matrix(1, 0, 0, 1, 45, 151)"><text class="d" transform="translate(147 59)"><tspan x="0" y="33">Your E-voucher</tspan></text></g><g transform="translate(293.336 154.255)"><g class="i" transform="matrix(1, 0, 0, 1, -248.34, -3.26)"><g class="e" transform="translate(248.08 3)"><circle class="h" cx="27.5" cy="27.5" r="27.5"/><circle class="a" cx="27.5" cy="27.5" r="27"/></g></g><g transform="translate(27.164 27.264)"><g class="f" transform="translate(-15.5 -15.5)"><path class="g" d="M22.047,9.229l.775-.362a3.927,3.927,0,0,0,1.292-5.425h-.052A3.668,3.668,0,0,0,20.962,2a4.34,4.34,0,0,0-2.428.723,7.027,7.027,0,0,0-2.015,3.152,7.337,7.337,0,0,0-2.067-3.2A4.34,4.34,0,0,0,12.023,2,3.668,3.668,0,0,0,8.975,3.443a3.927,3.927,0,0,0,1.188,5.373h.052l.672.413H2v6.045H4.325V28.5A2.428,2.428,0,0,0,6.7,30.981H14.09V15.016h4.7V30.981H26.18a2.428,2.428,0,0,0,2.428-2.428V15.326h2.325v-6.1Zm-8.06-1.24a5.787,5.787,0,0,1-2.893-.465,2.325,2.325,0,0,1-.827-3.152,2.067,2.067,0,0,1,1.757-.878,2.687,2.687,0,0,1,1.447.517,9.713,9.713,0,0,1,1.963,3.927l-1.447.1Zm5.425-3.978a2.687,2.687,0,0,1,1.447-.517,2.067,2.067,0,0,1,1.757.878,2.325,2.325,0,0,1-.827,3.152,5.632,5.632,0,0,1-2.893.465H17.448a8.732,8.732,0,0,1,1.963-4.03" transform="translate(-0.967 -1.034)"/></g></g></g></g></svg>