<svg xmlns="http://www.w3.org/2000/svg" xmlns:xlink="http://www.w3.org/1999/xlink" width="157.001" height="36.6" viewBox="0 0 157.001 36.6"><defs><style>.a{fill:none;}.b{fill:#c20a2b;}.c{fill:#dd3a57;}.d,.g{fill:#fff;}.d{font-size:15px;font-family:Calibri-Bold, Calibri;font-weight:700;}.e{fill:#00acb3;}.f{clip-path:url(#e);}.h{filter:url(#c);}.i{filter:url(#a);}</style><filter id="a" x="0" y="0.893" width="136" height="35.199" filterUnits="userSpaceOnUse"><feOffset dy="3" input="SourceAlpha"/><feGaussianBlur stdDeviation="3" result="b"/><feFlood flood-opacity="0.161"/><feComposite operator="in" in2="b"/><feComposite in="SourceGraphic"/></filter><filter id="c" x="17.001" y="0.6" width="103" height="36" filterUnits="userSpaceOnUse"><feOffset dy="3" input="SourceAlpha"/><feGaussianBlur stdDeviation="3" result="d"/><feFlood flood-opacity="0.161"/><feComposite operator="in" in2="d"/><feComposite in="SourceGraphic"/></filter><clipPath id="e"><rect class="a" width="24.897" height="24.897" transform="translate(0 0)"/></clipPath></defs><g transform="translate(-202.825 -996)"><path class="b" d="M8,0H128a0,0,0,0,1,0,0V30a0,0,0,0,1,0,0H8a8,8,0,0,1-8-8V8A8,8,0,0,1,8,0Z" transform="translate(202.826 996)"/><g class="i" transform="matrix(1, 0, 0, 1, 202.83, 996)"><path class="c" d="M5,0H118a0,0,0,0,1,0,0V17.2a0,0,0,0,1,0,0H5a5,5,0,0,1-5-5V5A5,5,0,0,1,5,0Z" transform="translate(9 6.89)"/></g><g class="h" transform="matrix(1, 0, 0, 1, 202.83, 996)"><text class="d" transform="translate(26 20.6)"><tspan x="0" y="0">ADD TO CART</tspan></text></g><path class="e" d="M0,0H22a8,8,0,0,1,8,8V22a8,8,0,0,1-8,8H0a0,0,0,0,1,0,0V0A0,0,0,0,1,0,0Z" transform="translate(329.826 996)"/><g transform="translate(344.275 1011.449)"><g class="f" transform="translate(-12.448 -12.448)"><path class="g" d="M14.762,4A10.762,10.762,0,1,0,25.523,14.762,10.762,10.762,0,0,0,14.762,4M12.775,20.639a.828.828,0,1,1,.786-.828.828.828,0,0,1-.786.828m5.588,0a.828.828,0,1,1,.828-.828.786.786,0,0,1-.828.828m2.359-8.775-1.407,4.47a1.2,1.2,0,0,1-1.159.828H12.361v.083a.786.786,0,0,0,.786.7h5.877a.414.414,0,0,1,.373.373.373.373,0,0,1-.373.373H13.147a1.531,1.531,0,0,1-1.531-1.283l-1.159-7a.828.828,0,0,0-.7-.7l-.662-.083a.375.375,0,1,1,.083-.745l.662.083A1.614,1.614,0,0,1,11.2,10.291l.083.662H20.06a.7.7,0,0,1,.662.911" transform="translate(-2.23 -2.208)"/></g></g></g></svg>