<svg xmlns="http://www.w3.org/2000/svg" xmlns:xlink="http://www.w3.org/1999/xlink" width="821" height="148" viewBox="0 0 821 148"><defs><style>.a,.c{fill:#c20a2b;}.a{opacity:0.2;}.b,.e{fill:none;}.b{stroke:#c20a2b;stroke-width:2px;}.d{stroke:none;}.f{filter:url(#a);}</style><filter id="a" x="0" y="11" width="815" height="134" filterUnits="userSpaceOnUse"><feOffset dy="3" input="SourceAlpha"/><feGaussianBlur stdDeviation="3" result="b"/><feFlood flood-opacity="0.161"/><feComposite operator="in" in2="b"/><feComposite in="SourceGraphic"/></filter></defs><g transform="translate(-959 -552)"><rect class="a" width="800" height="136" rx="10" transform="translate(1774 694) rotate(180)"/><g class="b" transform="translate(1780 700) rotate(180)"><rect class="d" width="812" height="148" rx="13"/><rect class="e" x="1" y="1" width="810" height="146" rx="12"/></g><g class="f" transform="matrix(1, 0, 0, 1, 959, 552)"><path class="c" d="M13,0H797a0,0,0,0,1,0,0V116a0,0,0,0,1,0,0H13A13,13,0,0,1,0,103V13A13,13,0,0,1,13,0Z" transform="translate(806 133) rotate(180)"/></g></g></svg>