<svg xmlns="http://www.w3.org/2000/svg" xmlns:xlink="http://www.w3.org/1999/xlink" width="367" height="60" viewBox="0 0 367 60"><defs><style>.a{fill:none;}.b{fill:#fa683d;}.c{fill:#fc7a54;}.d,.g{fill:#fff;}.d{font-size:28px;font-family:Calibri-Bold, Calibri;font-weight:700;}.e{fill:#00acb3;}.f{clip-path:url(#e);}.g{fill-rule:evenodd;}.h{filter:url(#c);}.i{filter:url(#a);}</style><filter id="a" x="9" y="4" width="309" height="56" filterUnits="userSpaceOnUse"><feOffset dy="3" input="SourceAlpha"/><feGaussianBlur stdDeviation="3" result="b"/><feFlood flood-opacity="0.161"/><feComposite operator="in" in2="b"/><feComposite in="SourceGraphic"/></filter><filter id="c" x="28" y="5" width="272" height="53" filterUnits="userSpaceOnUse"><feOffset dy="3" input="SourceAlpha"/><feGaussianBlur stdDeviation="3" result="d"/><feFlood flood-opacity="0.161"/><feComposite operator="in" in2="d"/><feComposite in="SourceGraphic"/></filter><clipPath id="e"><rect class="a" width="45" height="45"/></clipPath></defs><path class="b" d="M13,0H309a0,0,0,0,1,0,0V58a0,0,0,0,1,0,0H13A13,13,0,0,1,0,45V13A13,13,0,0,1,13,0Z"/><g class="i" transform="matrix(1, 0, 0, 1, 0, 0)"><path class="c" d="M10,0H291a0,0,0,0,1,0,0V38a0,0,0,0,1,0,0H10A10,10,0,0,1,0,28V10A10,10,0,0,1,10,0Z" transform="translate(18 10)"/></g><g class="h" transform="matrix(1, 0, 0, 1, 0, 0)"><text class="d" transform="translate(37 38)"><tspan x="0" y="0">CONTINUE SHOPPING</tspan></text></g><path class="e" d="M0,0H45A13,13,0,0,1,58,13V45A13,13,0,0,1,45,58H0a0,0,0,0,1,0,0V0A0,0,0,0,1,0,0Z" transform="translate(309)"/><g transform="translate(338.5 29.5)"><g class="f" transform="translate(-22.5 -22.5)"><path class="g" d="M23,2A21,21,0,1,0,44,23,21,21,0,0,0,23,2m8.625,10.125a2.25,2.25,0,1,1-2.25,2.25,2.25,2.25,0,0,1,2.25-2.25M23,8.45a2.25,2.25,0,1,1-2.25,2.25A2.25,2.25,0,0,1,23,8.45M8.45,23a2.25,2.25,0,1,1,2.25,2.25A2.25,2.25,0,0,1,8.45,23m5.925,10.875a2.25,2.25,0,1,1,2.25-2.25,2.25,2.25,0,0,1-2.25,2.25m0-17.25a2.25,2.25,0,1,1,2.25-2.25,2.25,2.25,0,0,1-2.25,2.25M23,37.55a2.25,2.25,0,1,1,2.25-2.25A2.25,2.25,0,0,1,23,37.55m3.6-12.975h0V25.85a4.2,4.2,0,0,1-.6,1.875,2.625,2.625,0,0,0-.375.975.15.15,0,0,1-.15.15h-3.3a.15.15,0,0,1-.15-.15,2.775,2.775,0,0,0-.6-1.725,7.5,7.5,0,0,1-.825-1.65l-.375-.975c-.225-.675-1.275-2.025-.6-2.625l.525-.225c.6,0,1.2.75,1.35,1.35s.075,0,.075,0V17.9a.825.825,0,1,1,1.65,0v3.375h.3a.825.825,0,0,1,.825.6h.375a.825.825,0,0,1,.75.525h.375a.825.825,0,0,1,.825.75Zm5.025,9.3a2.25,2.25,0,1,1,2.25-2.25,2.25,2.25,0,0,1-2.25,2.25M35.3,25.25A2.25,2.25,0,1,1,37.55,23a2.25,2.25,0,0,1-2.25,2.25" transform="translate(-0.5 -0.5)"/></g></g></svg>