<svg xmlns="http://www.w3.org/2000/svg" xmlns:xlink="http://www.w3.org/1999/xlink" width="185" height="60" viewBox="0 0 185 60"><defs><style>.a{fill:none;}.b{fill:#fa683d;}.c{fill:#fc7a54;}.d,.g{fill:#fff;}.d{font-size:28px;font-family:Calibri-Bold, Calibri;font-weight:700;}.e{fill:#00acb3;}.f{clip-path:url(#e);}.g{fill-rule:evenodd;}.h{filter:url(#c);}.i{filter:url(#a);}</style><filter id="a" x="9" y="4" width="127" height="56" filterUnits="userSpaceOnUse"><feOffset dy="3" input="SourceAlpha"/><feGaussianBlur stdDeviation="3" result="b"/><feFlood flood-opacity="0.161"/><feComposite operator="in" in2="b"/><feComposite in="SourceGraphic"/></filter><filter id="c" x="28" y="5" width="91" height="53" filterUnits="userSpaceOnUse"><feOffset dy="3" input="SourceAlpha"/><feGaussianBlur stdDeviation="3" result="d"/><feFlood flood-opacity="0.161"/><feComposite operator="in" in2="d"/><feComposite in="SourceGraphic"/></filter><clipPath id="e"><rect class="a" width="45" height="45"/></clipPath></defs><path class="b" d="M13,0H127a0,0,0,0,1,0,0V58a0,0,0,0,1,0,0H13A13,13,0,0,1,0,45V13A13,13,0,0,1,13,0Z"/><g class="i" transform="matrix(1, 0, 0, 1, 0, 0)"><path class="c" d="M10,0h99a0,0,0,0,1,0,0V38a0,0,0,0,1,0,0H10A10,10,0,0,1,0,28V10A10,10,0,0,1,10,0Z" transform="translate(18 10)"/></g><g class="h" transform="matrix(1, 0, 0, 1, 0, 0)"><text class="d" transform="translate(37 38)"><tspan x="0" y="0">OKAY!</tspan></text></g><path class="e" d="M0,0H45A13,13,0,0,1,58,13V45A13,13,0,0,1,45,58H0a0,0,0,0,1,0,0V0A0,0,0,0,1,0,0Z" transform="translate(127)"/><g transform="translate(134 7)"><g transform="translate(22.5 22.5)"><g class="f" transform="translate(-22.5 -22.5)"><path class="g" d="M22.925,44.15A21.225,21.225,0,1,1,44.15,22.925,21.225,21.225,0,0,1,22.925,44.15m9.6-28.2a1.575,1.575,0,0,0-2.25,0L20.15,26.375l-4.5-4.65a1.575,1.575,0,0,0-2.25,0,1.65,1.65,0,0,0,0,2.325l5.7,5.85a1.575,1.575,0,0,0,2.25,0L32.6,18.35a1.725,1.725,0,0,0-.075-2.325" transform="translate(-0.425 -0.425)"/></g></g></g></svg>