<svg xmlns="http://www.w3.org/2000/svg" xmlns:xlink="http://www.w3.org/1999/xlink" width="261" height="56" viewBox="0 0 261 56"><defs><style>.a{fill:none;}.b{fill:#fa683d;}.c{fill:#fc7a54;}.d,.g{fill:#fff;}.d{font-size:18px;font-family:Calibri-Bold, Calibri;font-weight:700;}.e{fill:#00acb3;}.f{clip-path:url(#e);}.g{fill-rule:evenodd;}.h{filter:url(#c);}.i{filter:url(#a);}</style><filter id="a" x="0" y="2" width="219" height="54" filterUnits="userSpaceOnUse"><feOffset dy="3" input="SourceAlpha"/><feGaussianBlur stdDeviation="3" result="b"/><feFlood flood-opacity="0.161"/><feComposite operator="in" in2="b"/><feComposite in="SourceGraphic"/></filter><filter id="c" x="22" y="9" width="178" height="40" filterUnits="userSpaceOnUse"><feOffset dy="3" input="SourceAlpha"/><feGaussianBlur stdDeviation="3" result="d"/><feFlood flood-opacity="0.161"/><feComposite operator="in" in2="d"/><feComposite in="SourceGraphic"/></filter><clipPath id="e"><rect class="a" width="43" height="43"/></clipPath></defs><path class="b" d="M13,0H210a0,0,0,0,1,0,0V51a0,0,0,0,1,0,0H13A13,13,0,0,1,0,38V13A13,13,0,0,1,13,0Z"/><g class="i" transform="matrix(1, 0, 0, 1, 0, 0)"><path class="c" d="M10,0H201a0,0,0,0,1,0,0V36a0,0,0,0,1,0,0H10A10,10,0,0,1,0,26V10A10,10,0,0,1,10,0Z" transform="translate(9 8)"/></g><g class="h" transform="matrix(1, 0, 0, 1, 0, 0)"><text class="d" transform="translate(111 32)"><tspan x="-79.62" y="0">DOWNLOAD INVOICE</tspan></text></g><path class="e" d="M0,0H38A13,13,0,0,1,51,13V38A13,13,0,0,1,38,51H0a0,0,0,0,1,0,0V0A0,0,0,0,1,0,0Z" transform="translate(210)"/><g transform="translate(235.5 25.5)"><g class="f" transform="translate(-21.5 -21.5)"><path class="g" d="M22.067,2A20.067,20.067,0,1,0,42.133,22.067,20.067,20.067,0,0,0,22.067,2M19.128,18.77V10.1h5.805V18.77h4.443l-7.31,12.757L14.685,18.77Zm12.4,15.265H12.607v-1.72h18.92Z" transform="translate(-0.567 -0.567)"/></g></g></svg>