<svg xmlns="http://www.w3.org/2000/svg" xmlns:xlink="http://www.w3.org/1999/xlink" width="811.998" height="60" viewBox="0 0 811.998 60"><defs><style>.a{fill:none;}.b{fill:#c20a2b;}.c{fill:#dd3a57;}.d,.g{fill:#fff;}.d{font-size:28px;font-family:Calibri-Bold, Calibri;font-weight:700;}.e{fill:#00acb3;}.f{clip-path:url(#e);}.h{filter:url(#c);}.i{filter:url(#a);}</style><filter id="a" x="522.998" y="4" width="240" height="56" filterUnits="userSpaceOnUse"><feOffset dy="3" input="SourceAlpha"/><feGaussianBlur stdDeviation="3" result="b"/><feFlood flood-opacity="0.161"/><feComposite operator="in" in2="b"/><feComposite in="SourceGraphic"/></filter><filter id="c" x="561.998" y="5" width="177" height="53" filterUnits="userSpaceOnUse"><feOffset dy="3" input="SourceAlpha"/><feGaussianBlur stdDeviation="3" result="d"/><feFlood flood-opacity="0.161"/><feComposite operator="in" in2="d"/><feComposite in="SourceGraphic"/></filter><clipPath id="e"><rect class="a" width="50" height="50"/></clipPath></defs><g transform="translate(-140.002 -1633)"><path class="b" d="M22772,17041v-58h348v58Zm-393,0a13,13,0,0,1-13-13v-32a13,13,0,0,1,13-13h393v58Z" transform="translate(-22226 -15350)"/><g transform="translate(0 -37)"><g class="i" transform="matrix(1, 0, 0, 1, 140, 1670)"><path class="c" d="M10,0H222a0,0,0,0,1,0,0V38a0,0,0,0,1,0,0H10A10,10,0,0,1,0,28V10A10,10,0,0,1,10,0Z" transform="translate(532 10)"/></g><g class="h" transform="matrix(1, 0, 0, 1, 140, 1670)"><text class="d" transform="translate(571 38)"><tspan x="0" y="0">ADD TO CART</tspan></text></g><g transform="translate(-1 1)"><path class="e" d="M0,0H45A13,13,0,0,1,58,13V45A13,13,0,0,1,45,58H0a0,0,0,0,1,0,0V0A0,0,0,0,1,0,0Z" transform="translate(895 1669)"/><g transform="translate(924 1698)"><g class="f" transform="translate(-25 -25)"><path class="g" d="M25.667,4A21.667,21.667,0,1,0,47.333,25.667,21.667,21.667,0,0,0,25.667,4m-4,33.5a1.667,1.667,0,1,1,1.583-1.667A1.667,1.667,0,0,1,21.667,37.5m11.25,0a1.667,1.667,0,1,1,1.667-1.667A1.583,1.583,0,0,1,32.917,37.5m4.75-17.667-2.833,9A2.417,2.417,0,0,1,32.5,30.5H20.833v.167a1.583,1.583,0,0,0,1.583,1.417H34.25a.833.833,0,0,1,.75.75.75.75,0,0,1-.75.75H22.417A3.083,3.083,0,0,1,19.333,31L17,16.917A1.667,1.667,0,0,0,15.583,15.5l-1.333-.167a.755.755,0,1,1,.167-1.5L15.75,14a3.25,3.25,0,0,1,2.75,2.667L18.667,18H36.333a1.417,1.417,0,0,1,1.333,1.833" transform="translate(-0.667 -0.667)"/></g></g></g></g></g></svg>