<svg xmlns="http://www.w3.org/2000/svg" xmlns:xlink="http://www.w3.org/1999/xlink" width="674" height="63" viewBox="0 0 674 63"><defs><style>.a{fill:none;}.b{fill:#c20a2b;}.c{fill:#dd3a57;}.d,.g{fill:#fff;}.d{font-size:26px;font-family:Calibri-Bold, Calibri;font-weight:700;}.e{fill:#00acb3;}.f{clip-path:url(#e);}.h{filter:url(#c);}.i{filter:url(#a);}</style><filter id="a" x="127" y="3" width="244" height="60" filterUnits="userSpaceOnUse"><feOffset dy="3" input="SourceAlpha"/><feGaussianBlur stdDeviation="3" result="b"/><feFlood flood-opacity="0.161"/><feComposite operator="in" in2="b"/><feComposite in="SourceGraphic"/></filter><filter id="c" x="143" y="8" width="189" height="50" filterUnits="userSpaceOnUse"><feOffset dy="3" input="SourceAlpha"/><feGaussianBlur stdDeviation="3" result="d"/><feFlood flood-opacity="0.161"/><feComposite operator="in" in2="d"/><feComposite in="SourceGraphic"/></filter><clipPath id="e"><rect class="a" width="45" height="45"/></clipPath></defs><g transform="translate(-140 -249)"><path class="b" d="M0,0H525a13,13,0,0,1,13,13V47a13,13,0,0,1-13,13H0a0,0,0,0,1,0,0V0A0,0,0,0,1,0,0Z" transform="translate(276 249)"/><g class="i" transform="matrix(1, 0, 0, 1, 140, 249)"><path class="c" d="M0,0H213a13,13,0,0,1,13,13V29a13,13,0,0,1-13,13H0a0,0,0,0,1,0,0V0A0,0,0,0,1,0,0Z" transform="translate(136 9)"/></g><g class="h" transform="matrix(1, 0, 0, 1, 140, 249)"><text class="d" transform="translate(152 39)"><tspan x="0" y="0">HOW IT WORKS</tspan></text></g><path class="e" d="M0,0H123a13,13,0,0,1,13,13V47a13,13,0,0,1-13,13H0a0,0,0,0,1,0,0V0A0,0,0,0,1,0,0Z" transform="translate(276 309) rotate(180)"/><g transform="translate(190 256)"><g transform="translate(22.5 22.5)"><g class="f" transform="translate(-22.5 -22.5)"><path class="g" d="M23.05,2.2A20.85,20.85,0,1,0,43.9,23.05,20.85,20.85,0,0,0,23.05,2.2m-.3,7.65A3.15,3.15,0,1,1,19.6,13a3.15,3.15,0,0,1,3.15-3.15m4.875,26.475h-9.15v-3.75H20.5v-10.8h-.15a1.875,1.875,0,0,1,0-3.675h5.325V32.575H27.7Z" transform="translate(-0.55 -0.55)"/></g></g></g></g></svg>