<svg xmlns="http://www.w3.org/2000/svg" xmlns:xlink="http://www.w3.org/1999/xlink" width="100" height="100" viewBox="0 0 100 100"><defs><style>.a{fill:none;}.b{clip-path:url(#a);}.c{fill:#0185b6;fill-rule:evenodd;}.d{fill:#fff;}</style><clipPath id="a"><rect class="a" width="100" height="100"/></clipPath></defs><g transform="translate(50 50)"><g class="b" transform="translate(-50 -50)"><path class="c" d="M95.333,48.667A46.667,46.667,0,1,1,48.667,2,46.667,46.667,0,0,1,95.333,48.667" transform="translate(1.333 1.333)"/><path class="d" d="M51.933,38.034a15.584,15.584,0,1,1,0-.167m-8.5-1.5-6.5,6.5a2.333,2.333,0,0,1-3.333,0l-4-4a2.5,2.5,0,0,1,3.333-3.333l2.333,2.333L40.1,33.034a2.5,2.5,0,0,1,3.5,0,2.667,2.667,0,0,1-.167,3.5" transform="translate(13.734 14.8)"/><path class="d" d="M17.633,45.625A24.333,24.333,0,0,1,41.8,21.292h5.666v2.833a2.333,2.333,0,0,0,1.167,2l1,.333,1.167-.333,8.5-5.5a2.5,2.5,0,0,0,0-4l-8.333-5.5a2.333,2.333,0,0,0-3.5,2v3H41.8a29.5,29.5,0,0,0-29.5,29.5,2.667,2.667,0,0,0,5.333,0" transform="translate(8.2 7.208)"/><path class="d" d="M41.633,24.233l1.833,2.5a2.667,2.667,0,0,0,2.167,1.333l1.333-.333a2.333,2.333,0,0,0,1.167-1.667,2.5,2.5,0,0,0-.333-2L45.633,20.9a2.667,2.667,0,0,0-1.833-1h-.333A2.868,2.868,0,0,0,40.8,22.4a3.167,3.167,0,0,0,.667,1.833" transform="translate(27.2 13.267)"/><path class="d" d="M47.747,34.5H47.08a2.667,2.667,0,0,0-2.5,2,15.667,15.667,0,0,1-1,3,2.667,2.667,0,0,0,1.5,3.5h1a2.5,2.5,0,0,0,2.5-1.667,32.421,32.421,0,0,0,1.333-3.667A2.667,2.667,0,0,0,47.747,34.5" transform="translate(28.92 23)"/><path class="d" d="M49.432,28.967a2.667,2.667,0,0,0-2.5-2.167h-.5a2.667,2.667,0,0,0-1.667,1.167,2.5,2.5,0,0,0-.333,2c.167,1,.333,2.167.5,3.167a2.672,2.672,0,0,0,5.333-.333c-.167-1.333-.333-2.5-.5-3.833" transform="translate(29.568 17.867)"/><path class="d" d="M43.831,41.1h0A2.667,2.667,0,0,0,42,41.933L39.665,44.1a2.667,2.667,0,0,0-.333,3.667,2.5,2.5,0,0,0,2,1A2.667,2.667,0,0,0,43,48.1l2.833-2.667A2.5,2.5,0,0,0,46.5,43.6a2.667,2.667,0,0,0-.833-1.833,3.333,3.333,0,0,0-1.833-.667" transform="translate(25.835 27.4)"/><path class="d" d="M18.292,37.333a2.667,2.667,0,0,0-1.333-1.5L15.792,35.5h-.833a2.667,2.667,0,0,0-1.5,3.333,23.5,23.5,0,0,0,1.5,3.5,2.667,2.667,0,0,0,2.333,1.5l1.167-.333A2.667,2.667,0,0,0,19.625,40a13.667,13.667,0,0,1-1.333-2.833" transform="translate(8.875 23.667)"/><path class="d" d="M21.835,42.668A2.5,2.5,0,0,0,20,42h0a2.559,2.559,0,0,0-2.5,2.667,2.667,2.667,0,0,0,.833,1.833l3,2.5A2.667,2.667,0,0,0,25,48.335a3,3,0,0,0,.5-2,2.5,2.5,0,0,0-1-1.667l-2.5-2" transform="translate(11.665 27.999)"/><path class="d" d="M38.937,45.633,37.771,45.3h-.833l-3,.833A2.667,2.667,0,0,0,32.271,47.3a2.333,2.333,0,0,0-.333,2,2.667,2.667,0,0,0,2.5,2.167h.5l3.667-1a2.667,2.667,0,0,0,1.5-1.333,3,3,0,0,0,.167-2,2.833,2.833,0,0,0-1.333-1.5" transform="translate(21.229 30.2)"/><path class="d" d="M30.56,46.394l-3.167-.667a2.667,2.667,0,0,0-2,.333,2.5,2.5,0,0,0-1.167,1.667,2.667,2.667,0,0,0,.333,2,2.5,2.5,0,0,0,1.667,1.167l3.833.667a3,3,0,0,0,2-.5,2.667,2.667,0,0,0,1-1.833,2.584,2.584,0,0,0-2.333-3" transform="translate(16.106 30.44)"/></g></g></svg>