<svg xmlns="http://www.w3.org/2000/svg" xmlns:xlink="http://www.w3.org/1999/xlink" width="40" height="40" viewBox="0 0 40 40"><defs><style>.a{fill:none;}.b{clip-path:url(#a);}.c{fill:#0185b6;fill-rule:evenodd;}</style><clipPath id="a"><rect class="a" width="40" height="40"/></clipPath></defs><g transform="translate(20 20)"><g class="b" transform="translate(-20 -20)"><path class="c" d="M20.667,2A18.667,18.667,0,1,0,39.333,20.667,18.667,18.667,0,0,0,20.667,2M28.6,26.667A1.367,1.367,0,0,1,26.667,28.6l-6-6-6,6a1.367,1.367,0,1,1-1.933-1.933l6-6-6-6a1.367,1.367,0,0,1,1.933-1.933l6,6,6-6A1.367,1.367,0,1,1,28.6,14.667l-6,6Z" transform="translate(-0.667 -0.667)"/></g></g></svg>