<svg xmlns="http://www.w3.org/2000/svg" xmlns:xlink="http://www.w3.org/1999/xlink" width="30" height="30" viewBox="0 0 30 30"><defs><style>.a{fill:none;}.b{clip-path:url(#a);}.c{fill:#f80259;}</style><clipPath id="a"><rect class="a" width="30" height="30"/></clipPath></defs><g transform="translate(15 15)"><g class="b" transform="translate(-15 -15)"><path class="c" d="M17,4A13,13,0,1,0,30,17,13,13,0,0,0,17,4m8.35,9.8-7.7,7.7a.9.9,0,0,1-1.25,0L8.65,13.8a.9.9,0,0,1,0-1.25H8.7a.9.9,0,0,1,1.25,0l6.4,6.35a.9.9,0,0,0,1.25,0l6.45-6.4a.9.9,0,0,1,1.25,0h.05a.9.9,0,0,1,0,1.25" transform="translate(-2 -2)"/></g></g></svg>