<svg xmlns="http://www.w3.org/2000/svg" xmlns:xlink="http://www.w3.org/1999/xlink" width="320" height="88.487" viewBox="0 0 320 88.487"><defs><style>.a{fill:none;}.b{fill:#c20a2b;}.c{clip-path:url(#a);}</style><clipPath id="a"><rect class="a" width="320" height="88.487"/></clipPath></defs><g transform="translate(160 44.244)"><g transform="translate(-160 -44.244)"><path class="b" d="M46.3.1V19.9H36.612V.1H29.4V48.105h7.212V26.578H46.3V48.105h7.319V.1Z" transform="translate(2.245 0.008)"/><path class="b" d="M72.624,11.194l3.552,21.635h-7ZM68.964,0,59.6,48.005h7.1l1.4-9.149h9.041l1.4,9.149h7.1L76.5,0Z" transform="translate(4.551)"/><g class="c"><path class="b" d="M114.949,26.255q0,4.521-4.413,4.521H98.912V48.105H91.7V.1h18.836q4.413,0,4.413,4.413ZM107.63,6.235H98.912v18.3h8.826Z" transform="translate(7.002 0.008)"/><path class="b" d="M145.349,26.255q0,4.521-4.413,4.521H129.312V48.105H122.1V.1h18.836q4.413,0,4.413,4.413ZM138.03,6.235H129.2v18.3h8.826Z" transform="translate(9.323 0.008)"/><path class="b" d="M176.755.323,170.4,20.451q-1.184,3.014-3.121,10.01V48.113h-7.212V30.461a40.791,40.791,0,0,0-1.4-5.059l-1.722-4.951L150.6.323V0h7.427l5.7,20.881,5.7-20.774h7.319Z" transform="translate(11.499)"/><path class="b" d="M206.072,43.692q0,4.413-4.413,4.413H182.5V.1h19.051q4.305,0,4.305,4.413V16.891a4.844,4.844,0,0,1-1.507,3.767l-3.767,2.368,3.875,2.476a4.951,4.951,0,0,1,1.615,3.983Zm-7.427-25.94V6.128H189.6v14.1h5.489Zm.215,24.326V28.408l-3.552-2.368h-5.6V42.078Z" transform="translate(13.935 0.008)"/><path class="b" d="M237.918,43.692q0,4.413-4.413,4.413h-15.5q-4.305,0-4.305-4.413V4.513Q213.7.1,218.005.1h15.607q4.413,0,4.413,4.413ZM230.706,6.235h-9.9V41.97h9.9Z" transform="translate(16.317 0.008)"/><path class="b" d="M269.74,48.105h-7.75l-5.274-16.9-5.274,16.9H243.8V47.89l8.934-24.326Q244.231.208,244.338.1h7.642l4.844,15.607L261.56.1H269.2V.315l-8.4,23.034Z" transform="translate(18.615 0.008)"/><path class="b" d="M67.536,70a1.614,1.614,0,0,0,0-.323v-.215l-.215-.215-.431-.215-.538.538-.646.646-.646.538-.538.431-1.4,1.076-1.615,1.184-1.83,1.076-1.937.861-1.83.646-1.722.215-1.4-.108-.753-.538a2.26,2.26,0,0,1-.431-.861,4.521,4.521,0,0,1-.108-1.076,7.535,7.535,0,0,1,.108-1.184,10.979,10.979,0,0,1,.215-1.184l.431-1.184.431-1.076a10.978,10.978,0,0,1,1.507-2.583,17.007,17.007,0,0,1,2.045-2.045l.969-.646,1.184-.646,1.184-.431.969-.215h.646l-.215.431-.431.431-.753.969a1.4,1.4,0,0,0-.215.538,1.292,1.292,0,0,0,.323.969,1.4,1.4,0,0,0,1.076.431,1.722,1.722,0,0,0,1.292-.646l.215-.323.323-.538.323-.538.323-.538.215-.538v-.431a1.291,1.291,0,0,0-.108-.538l-.323-.646-.431-.538-.431-.431-.861-.431H60.432l-1.076.215-1.292.431-1.184.538-.969.538-1.076.753-1.184.969-1.076.969-.861.969-1.184,1.83a15.284,15.284,0,0,0-.969,2.045,13.454,13.454,0,0,0-.646,2.153,9.58,9.58,0,0,0-.215,2.045,7.319,7.319,0,0,0,.323,2.26,4.413,4.413,0,0,0,.969,1.722,4.305,4.305,0,0,0,1.615,1.076,6.566,6.566,0,0,0,2.368.431,8.933,8.933,0,0,0,2.368-.323l2.476-.969,2.476-1.292,2.26-1.615,1.507-1.184,1.292-1.184.861-1.076a1.83,1.83,0,0,0,.323-.969" transform="translate(3.718 4.589)"/><path class="b" d="M133.21,71.109h-.431l-.431.431-1.292,1.292-1.4.969-1.507.646-1.507.215h-.861l-.538-.431-.323-.538a1.615,1.615,0,0,1-.108-.538h.323l2.153-1.4,1.722-1.4a6.028,6.028,0,0,0,1.076-1.507,3.767,3.767,0,0,0,.431-1.722,2.045,2.045,0,0,0-.215-.753l-.431-.753-.753-.538-.969-.215-1.292.215-1.076.538-.861.646-.753.753-.861,1.292a8.611,8.611,0,0,0-.646,1.4,9.365,9.365,0,0,0-.431,1.507,7.86,7.86,0,0,0-.108,1.292h0l-.215.215-.323.215-.861.538-1.076.538-1.076.538-.753.431a2.369,2.369,0,0,0-.108-.646l-.323-.646-.323-.646-.323-.538-.538-.753-.538-.861-.215-.646a4.2,4.2,0,0,1-.108-.646h.215a7.427,7.427,0,0,0,1.4-1.292,1.83,1.83,0,0,0,.431-1.076,1.292,1.292,0,0,0-1.507-1.507l-.753.215-.861.646-.753.969-.431.861H109.53l-1.184-.323-.969-.323-.538-.323-.215-.323-.538-.538-.538-.431-.538-.215h-.753l-1.076.215L102.1,66.7l-.969.753-.861.861L99.09,69.818l-.969,1.615-.323.753h-.861l-1.292-.215-.861-.431L94.246,71l-.215-.538V69.6l-.323-.861-.753-1.184-.753-.431h-.108l-.215-.215-.215-.215-.323-.215h-.861l-1.292.323-1.4.753-1.292.969L85.635,69.6l-.538.969-.431.323-.969.861-.861.646-.861.646-1.076.646-.538.215h-1.83a.577.577,0,0,1-.431-.323l-.323-.861-.215-1.184-.215-1.292-.215-1.292a6.242,6.242,0,0,0-.215-1.076l-.108-.323-.323-.323-.431-.215h-.323l-1.076.215-1.076.538-.969.753-.861.753-.538.646-.538.753-.538.753-.431.646-.215.323-.323.538-.323.538-.323.431V68.526l.215-1.4.215-1.4V61.422a3.661,3.661,0,0,0,0-.431,1.292,1.292,0,0,0-.323-.969,1.184,1.184,0,0,0-.861-.323h-.431l-.431.215-.323.323-.215.323-.215.646-.215.538V67.88a15.091,15.091,0,0,1-.108,1.615l-.215,1.83-.215,1.83.646,1.507v3.014a1.184,1.184,0,0,0,.108.431l.323.431.431.323h.969l.323-.215.323-.323.431-.753.431-.861.538-.861.538-.753,1.292-1.83,1.292-1.507,1.076-1.076.753-.538h-.215l.215.215v2.26l.215,1.076.215.969.215.646a2.045,2.045,0,0,0,.969.969,3.229,3.229,0,0,0,1.4.323l1.83-.323,1.722-.753,1.937-1.507.323-.323v.861a4.09,4.09,0,0,0,.108,1.076,3.552,3.552,0,0,0,.431,1.076,2.8,2.8,0,0,0,.861.861,2.26,2.26,0,0,0,1.184.323H88l1.292-.538,1.292-.861,1.4-1.4.861-1.292.323-.538.215-.215h.323l.646.215.861.215h1.937a6.567,6.567,0,0,0,0,.753,2.691,2.691,0,0,0,.215,1.076,3.552,3.552,0,0,0,.646.969l.861.753,1.076.323h1.292l1.292-.215,1.184-.431.969-.538,1.184-1.076.969-1.292a7,7,0,0,0,.753-1.4,4.521,4.521,0,0,0,.215-1.507v-1.4l.753.323.753.215h1.507l1.937-.215h.108a3.443,3.443,0,0,0,.108.538l.215.753.431.753.538.861.861,1.292a1.614,1.614,0,0,1,.323.861,1.076,1.076,0,0,1-.108.538l-.323.323-.753.323-.969.215-1.184.323-.753.538-.431.646a1.829,1.829,0,0,0-.108.646.753.753,0,0,0,.108.431l.323.323.431.215h1.4l.538-.215.753-.323,1.507-.753,1.722-.969,1.4-.861,1.4-.861,1.292-.861.861-.753v.431a4.09,4.09,0,0,0,.861,1.507,3.444,3.444,0,0,0,1.292.969,4.736,4.736,0,0,0,1.722.323l1.615-.215,1.722-.646,1.615-.969,1.4-1.184.969-1.184a1.938,1.938,0,0,0,.323-.969.969.969,0,0,0-.108-.646L133.533,71M91.125,72.4l-.646.969-.646.753-.969.861-.969.646-.969.323H86.6l-.323-.215-.215-.323a.969.969,0,0,1-.108-.431,5.6,5.6,0,0,1,.215-1.507,9.8,9.8,0,0,1,.538-1.507l.753-1.4.969-1.184.969-.861.861-.323h.215v1.292l.215.538.215.431v.753a2.26,2.26,0,0,1-.215,1.076m14.531-1.83V71.97l-.323.538-.431.538-.431.431-.431.431-.753.538-.646.323-.646.215h-1.292l-.215-.323v-.323a1.83,1.83,0,0,1,0-.431,6.029,6.029,0,0,1,.108-1.076,3.337,3.337,0,0,1,.323-.969l.431-.753.431-.646.431-.646.431-.646.431-.538.431-.538.431-.431h.323l.215.215.431.215.646.215.431.323.215.431a2.583,2.583,0,0,1,.108.646v.646Zm19.482-.969a8.825,8.825,0,0,1,.646-1.4,4.09,4.09,0,0,1,.753-1.076,1.4,1.4,0,0,1,.969-.431h.323V66.8a.646.646,0,0,1,.108.323,1.722,1.722,0,0,1-.215.969l-.753.861-1.076.861-1.292.969.431-1.507" transform="translate(4.994 4.558)"/><path class="b" d="M150.518,65.523l-.431-.323h-.753a1.184,1.184,0,0,0-.861.323,2.368,2.368,0,0,0-.538.969v3.444a2.691,2.691,0,0,1-.431.969l-.861.969-1.076.753-1.184.646-1.076.431h-1.184l-.215-.323-.215-.538a2.693,2.693,0,0,1-.108-.646,4.305,4.305,0,0,1,.215-1.4l.538-1.507.215-.431.323-.646.323-.646v-.431q.01-.215,0-.431a1.4,1.4,0,0,0-.215-.538l-.431-.431h-1.292l-.538.323-.323.538-.323.753v.323l-.215.646-.215.538v.323l-.215.861-.215.969v.969a7.642,7.642,0,0,0-.108.861,4.412,4.412,0,0,0,.108,1.184,3.122,3.122,0,0,0,.431.969l.861.753,1.184.323h.969l1.076-.323,1.076-.538,1.076-.646.969-.646.861-.646v1.292q-.108.646-.215,1.184l-.215,1.076-.323,1.184-.431,1.076-.538.969-.646.646-.753.215h-1.292l-1.076-.323-.969-.538-.969-.861-.323-.215h-.753L139,79.3v.431a2.693,2.693,0,0,0,0,.431,1.076,1.076,0,0,0,.323.646l.753.753.969.646,1.076.538a7.858,7.858,0,0,0,2.906.538,3.983,3.983,0,0,0,3.552-1.937l.538-.969.538-1.184.431-1.184.323-1.184.323-1.507.323-1.615.215-1.615a13.056,13.056,0,0,0,.108-1.615v-3.66a4.848,4.848,0,0,0,0-.753,1.292,1.292,0,0,0-.215-.538" transform="translate(10.613 4.978)"/><path class="b" d="M195.862,65.992l-.753-.538-1.184-.215a3.552,3.552,0,0,0-1.615.323l-1.292.861-1.076,1.184-.753,1.184-.215.431-.323.646-.323.646-.215.431a6.883,6.883,0,0,1,.108-.861l.215-.969.215-.969.215-.861V66.53a1.184,1.184,0,0,0-.108-.538l-.323-.323L188,65.454h-.969l-.538.323-.431.538-.323.646v.431l-.431.538-.861,1.076-.861,1.076-.969.969-.969.861-.969.538-.861.215a.861.861,0,0,1-.861-.646,3.768,3.768,0,0,1-.323-1.615,11.611,11.611,0,0,1,.108-1.292l.215-1.4.215-1.184v-.753a1.108,1.108,0,0,0-1.184-1.076h-.323l-.323.215-.323.215-.215.215v1.615l-.215.646-.323.646-.215.538-.538.861-.753.969-.861.969-.753.753-.646.538-.646.431-.753.323h-.753a.538.538,0,0,1-.431-.323,1.615,1.615,0,0,1-.215-.753,9.9,9.9,0,0,1,.108-1.83l.323-1.507.323-1.076a2.259,2.259,0,0,0,.108-.646,1.829,1.829,0,0,0-.108-.431l-.215-.431-.431-.323h-1.83l-.646.215-.861.215-.861.215-.646.215h-3.229l-.215-.215.108.215-.323-.323-.753-.646-.753-.323h-.323l-.215-.215-.215-.215h-.646l-1.292.323-1.184.861-1.076,1.184-.969,1.292-.753,1.292-.431,1.184V73.1a4.2,4.2,0,0,0,0,.431,5.92,5.92,0,0,0,.108,1.4,4.091,4.091,0,0,0,.431,1.184,2.583,2.583,0,0,0,.753.861,1.83,1.83,0,0,0,1.076.323h1.184l1.507-.431,1.184-.646.969-.646.753-.753.646-.969.215-.538.215-.646v-.646a3.654,3.654,0,0,0,0-.538v-.646a1.614,1.614,0,0,0-.108-.646h3.121l1.076-.215.861-.215.431-.215.538-.323.431-.323-.215,1.076-.215,1.076v1.937a10.341,10.341,0,0,0,.108,1.292,3.23,3.23,0,0,0,.323,1.184,2.26,2.26,0,0,0,.861.861,3.014,3.014,0,0,0,1.507.323l1.4-.323,1.184-.538.969-.646.753-.646.646-.646.646-.753.538-.753.431-.646a5.812,5.812,0,0,0,.215,1.722,3.229,3.229,0,0,0,.646,1.184,2.368,2.368,0,0,0,.969.646l1.184.215a3.337,3.337,0,0,0,1.4-.323l1.507-.969,1.507-1.4,1.4-1.615v3.66c0,.323.108.646.108.969a3.552,3.552,0,0,0,.108.969,1.507,1.507,0,0,0,.431.646,1.4,1.4,0,0,0,.969.323H188l.323-.431.215-.646V74.71l.215-.753.323-.753.323-.646.431-.753.431-.753.538-.753.431-.646.538-.646.538-.538.538-.431h.861l.431.215.431.215h.538a1.1,1.1,0,0,0,1.076-1.076,2.368,2.368,0,0,0-.108-.861,2.045,2.045,0,0,0-.431-.753m-36.488,5.166a7.211,7.211,0,0,1-.753,1.937,4.305,4.305,0,0,1-1.292,1.4,2.906,2.906,0,0,1-1.722.538h-.323l-.215-.215V74.28a1.184,1.184,0,0,1-.108-.323,5.6,5.6,0,0,1,.108-.861l.215-.969.323-1.076.431-.969.538-.861.538-.646.646-.431.646-.215h.431l.431.215.323.323.215.323a9.364,9.364,0,0,1-.323,2.26" transform="translate(11.659 4.94)"/><path class="b" d="M212.248,65.115l-.861-.215h-.861l-1.076.215-1.292.753-1.4,1.076-1.292,1.292-.861,1.4-.753,1.722a15.6,15.6,0,0,0-.538,1.83,6.352,6.352,0,0,0-.215,1.507.754.754,0,0,0,.215.538l.538.323.646.215h1.83l1.4-.431,1.292-.753,1.076-.861a10.642,10.642,0,0,0-.108,1.507l-.215,1.615h0l-.215,1.4a5.813,5.813,0,0,1-.431,1.292,2.583,2.583,0,0,1-.753.969,1.722,1.722,0,0,1-1.076.323h-1.076l-1.076-.323-.969-.538-1.076-.753V79l-.215-.215-.215-.215h-.323a.646.646,0,0,0-.646.646,1.829,1.829,0,0,0,.215.753l.646.861.969.861,1.184.753,1.4.538,1.4.215,1.507-.323,1.184-.753.969-1.076a6.886,6.886,0,0,0,.646-1.292,13.564,13.564,0,0,0,.431-1.615l.323-1.937a11.859,11.859,0,0,0,.215-1.937L213,72.542q.108-1.184.108-2.045V66.3a1.076,1.076,0,0,0-.323-.753l-.646-.431m-1.507,3.014V70.6l-.215.538-.431.646-.538.538-.646.431-1.292.538-1.4.431V72.434l.215-.646.215-.538,1.076-1.722,1.076-1.4.969-.969.646-.323h.323v1.292" transform="translate(15.401 4.955)"/><path class="b" d="M217.231,61.845V62.6h0v.538l.215.215h.861l.538-.215.538-.323.323-.323.215-.431.215-.538v-.861a.43.43,0,0,0-.215-.323l-.431-.323-.431-.215h-1.076l-.646.431-.431.538a.969.969,0,0,0-.108.538,1.292,1.292,0,0,0,0,.323v.215" transform="translate(16.553 4.566)"/><path class="b" d="M242.347,66.681l-.431-.323h-2.368l-1.4.215-1.937.215.215-.969.323-1.076V63.56q.011-.215,0-.431a1.722,1.722,0,0,0,0-.323v-.323l-.323-.215h-.969l-.538.215-.431.323-.323.646-.323,1.076-.323,1.184-.323,1.076-.215.753-1.615.215-1.615.215-1.4.215h-1.722v-.215c0-.323.108-.753.108-1.076l.215-1.184.323-1.292.323-.969.323-.538.323-.538.323-.431.323-.215.323.215.215.538v1.184a6.461,6.461,0,0,1-.108.969l-.215,1.076h.215a1.614,1.614,0,0,0,1.292-.861,6.889,6.889,0,0,0,.646-1.292,3.444,3.444,0,0,0,.215-1.184,2.26,2.26,0,0,0-.753-1.722A2.368,2.368,0,0,0,229,59.9l-.969.215-.969.538-.753.753-.646.861-.646,1.4a9.9,9.9,0,0,0-.431,1.4v2.368a3.012,3.012,0,0,1-.108.538l-.215.538-.431.646-.538.753a.969.969,0,0,0-.215.431.538.538,0,0,0,.108.323l.215.323.215.215v2.476h0a1.507,1.507,0,0,0-.861.323l-1.076.861-.646.431-.753.323-.861.215h-.861l-.646-.215a1.507,1.507,0,0,1-.323-.646,3.659,3.659,0,0,1-.108-.861c0-.323,0-.538,0-.861a8.179,8.179,0,0,1,.108-1.076l.215-1.076.215-.969.215-.861.215-.861a2.583,2.583,0,0,0,.108-.646.753.753,0,0,0-.108-.323l-.323-.323-.538-.323h-.753l-.646.215-.431.431-.215.646a3.013,3.013,0,0,0-.108.538V69.8l-.215.969-.215,1.076v1.184q-.081.535-.108,1.076a5.489,5.489,0,0,0,.215,1.507,3.983,3.983,0,0,0,.646,1.292,3.229,3.229,0,0,0,1.076.969,3.337,3.337,0,0,0,1.615.323h1.4l1.184-.323.861-.431.646-.431.861-.753.431-.538v.646l-.215,1.4-.323,1.507v.753l-.215.753-.215.646-.323.431h-.861l-.431.215-.323.431-.215.538a1.506,1.506,0,0,0-.108.431.753.753,0,0,0,.108.431l.431.323.538.215h.538l1.184-.215.969-.753.753-1.076.538-1.184.215-.538V75.722l.215-1.292.215-1.292v-2.26l.646-.215,1.076-.215,1.292-.215,1.292-.215h1.722l-.215.969-.215,1.292-.215,1.292a6.781,6.781,0,0,0-.108,1.076V75.4a5.7,5.7,0,0,0,.108.861,4.2,4.2,0,0,0,.323.861l.538.753.861.538,1.292.215a3.66,3.66,0,0,0,1.507-.323l1.292-.753,1.076-.861.646-.646.323-.431.215-.431v-.431a1.615,1.615,0,0,0,0-.431.431.431,0,0,0-.215-.431h-.538l-.646.215-.538.431a7.642,7.642,0,0,1-1.615,1.292,2.583,2.583,0,0,1-1.184.431l-.431-.215-.323-.431v-.538a3.552,3.552,0,0,1,0-.538,5.6,5.6,0,0,1,.108-.969l.323-1.4.323-1.4.323-1.292h.538l1.184-.215,1.615-.215,1.722-.215h.431l.538-.323.431-.431a.753.753,0,0,0,.215-.538.538.538,0,0,0-.108-.431" transform="translate(16.408 4.574)"/><path class="b" d="M245.675,60.746l-.323-.323a1.292,1.292,0,0,0-.861-.323h-.431l-.431.215-.431.323-.215.323v.861a4.52,4.52,0,0,0-.108.861,10.982,10.982,0,0,1-.215,1.83l-.431,2.045a14.855,14.855,0,0,0-.323,2.045c0,.646-.108,1.292-.108,1.83v.753l.753.323h1.076l.215-.538V70a19.911,19.911,0,0,1,.538-2.476l.646-2.476.323-1.184.215-1.184.215-.969v-.538a.754.754,0,0,0-.108-.431" transform="translate(18.462 4.589)"/><path class="b" d="M243.283,73.423l-.538-.323h-.431l-.646.215-.538.538-.323.646a1.614,1.614,0,0,0-.108.538q0,1.4,1.292,1.4a1.937,1.937,0,0,0,1.076-.431,2.4,2.4,0,0,0,.753-.861l.215-1.076-.215-.323-.431-.323" transform="translate(18.378 5.581)"/><path class="b" d="M3.875,69.206V26.583H26.586V22.6H0V73.081H40.148V69.206Z" transform="translate(0 1.726)"/><path class="b" d="M296.273,69.206V26.583h-22.6V22.6h26.478V73.081H260V69.206Z" transform="translate(19.852 1.726)"/></g></g></g></svg>