<svg xmlns="http://www.w3.org/2000/svg" xmlns:xlink="http://www.w3.org/1999/xlink" width="120" height="42.686" viewBox="0 0 120 42.686"><defs><style>.a{fill:none;}.b{fill:#0185b6;}.c{fill:#189ed0;}.d,.g{fill:#fff;}.d{font-size:18px;font-family:Calibri-Bold, Calibri;font-weight:700;}.e{fill:#00acb3;}.f{clip-path:url(#e);}.g{fill-rule:evenodd;}.h{filter:url(#c);}.i{filter:url(#a);}</style><filter id="a" x="3" y="1" width="89" height="41.686" filterUnits="userSpaceOnUse"><feOffset dy="3" input="SourceAlpha"/><feGaussianBlur stdDeviation="3" result="b"/><feFlood flood-opacity="0.161"/><feComposite operator="in" in2="b"/><feComposite in="SourceGraphic"/></filter><filter id="c" x="14.676" y="0.863" width="65" height="40" filterUnits="userSpaceOnUse"><feOffset dy="3" input="SourceAlpha"/><feGaussianBlur stdDeviation="3" result="d"/><feFlood flood-opacity="0.161"/><feComposite operator="in" in2="d"/><feComposite in="SourceGraphic"/></filter><clipPath id="e"><rect class="a" width="29" height="29"/></clipPath></defs><g transform="translate(-127 -347)"><path class="b" d="M13,0H82a0,0,0,0,1,0,0V37.686a0,0,0,0,1,0,0H13a13,13,0,0,1-13-13V13A13,13,0,0,1,13,0Z" transform="translate(127 347)"/><g class="i" transform="matrix(1, 0, 0, 1, 127, 347)"><path class="c" d="M10,0H71a0,0,0,0,1,0,0V23.686a0,0,0,0,1,0,0H10a10,10,0,0,1-10-10V10A10,10,0,0,1,10,0Z" transform="translate(12 7)"/></g><g class="h" transform="matrix(1, 0, 0, 1, 127, 347)"><text class="d" transform="translate(23.68 23.86)"><tspan x="0" y="0">OKAY!</tspan></text></g><path class="e" d="M0,0H25A13,13,0,0,1,38,13V24.686a13,13,0,0,1-13,13H0a0,0,0,0,1,0,0V0A0,0,0,0,1,0,0Z" transform="translate(209 347)"/><g transform="translate(214 352)"><g transform="translate(14.5 14.5)"><g class="f" transform="translate(-14.5 -14.5)"><path class="g" d="M15.521,29.343A13.821,13.821,0,1,1,29.343,15.521,13.821,13.821,0,0,1,15.521,29.343m6.251-18.363a1.026,1.026,0,0,0-1.465,0l-6.593,6.789-2.93-3.028a1.026,1.026,0,0,0-1.465,0,1.074,1.074,0,0,0,0,1.514l3.712,3.809a1.026,1.026,0,0,0,1.465,0l7.326-7.521a1.123,1.123,0,0,0-.049-1.514" transform="translate(-0.87 -0.87)"/></g></g></g></g></svg>