<svg xmlns="http://www.w3.org/2000/svg" width="335" height="112" viewBox="0 0 335 112"><defs><style>.a{fill:rgba(244,239,20,0.05);stroke:#f4ef14;stroke-width:2px;}.b{fill:#f4ef14;font-size:24px;font-family:SegoeScript-Bold, Segoe Script;font-weight:700;}.c{stroke:none;}.d{fill:none;}</style></defs><g transform="translate(-20 -212)"><g class="a" transform="translate(20 212)"><path class="c" d="M0,0H335a0,0,0,0,1,0,0V99a13,13,0,0,1-13,13H13A13,13,0,0,1,0,99V0A0,0,0,0,1,0,0Z"/><path class="d" d="M2,1H333a1,1,0,0,1,1,1V99a12,12,0,0,1-12,12H13A12,12,0,0,1,1,99V2A1,1,0,0,1,2,1Z"/></g><text class="b" transform="translate(187 257)"><tspan x="-119.619" y="0">Need to disconnect</tspan><tspan x="-89.496" y="39">and recharge?</tspan></text></g></svg>