<svg xmlns="http://www.w3.org/2000/svg" xmlns:xlink="http://www.w3.org/1999/xlink" width="243" height="48" viewBox="0 0 243 48"><defs><style>.a,.d{fill:none;}.b{fill:#c20a2b;}.c,.g{fill:#fff;}.c{font-size:18px;font-family:SegoeScript-Bold, Segoe Script;font-weight:700;}.d{stroke:#fff;stroke-width:0.5px;opacity:0.3;}.e{fill:#00acb3;}.f{clip-path:url(#i);}.h{stroke:none;}.i{filter:url(#g);}.j{filter:url(#e);}.k{filter:url(#c);}.l{filter:url(#a);}</style><filter id="a" x="0" y="0" width="213" height="48" filterUnits="userSpaceOnUse"><feOffset dy="3" input="SourceAlpha"/><feGaussianBlur stdDeviation="3" result="b"/><feFlood flood-opacity="0.161"/><feComposite operator="in" in2="b"/><feComposite in="SourceGraphic"/></filter><filter id="c" x="56" y="0" width="144" height="47" filterUnits="userSpaceOnUse"><feOffset dy="3" input="SourceAlpha"/><feGaussianBlur stdDeviation="3" result="d"/><feFlood flood-opacity="0.161"/><feComposite operator="in" in2="d"/><feComposite in="SourceGraphic"/></filter><filter id="e" x="0" y="1" width="217" height="46" filterUnits="userSpaceOnUse"><feOffset dy="3" input="SourceAlpha"/><feGaussianBlur stdDeviation="3" result="f"/><feFlood flood-opacity="0.161"/><feComposite operator="in" in2="f"/><feComposite in="SourceGraphic"/></filter><filter id="g" x="195" y="0" width="48" height="48" filterUnits="userSpaceOnUse"><feOffset dy="3" input="SourceAlpha"/><feGaussianBlur stdDeviation="3" result="h"/><feFlood flood-opacity="0.161"/><feComposite operator="in" in2="h"/><feComposite in="SourceGraphic"/></filter><clipPath id="i"><rect class="a" width="23" height="23"/></clipPath></defs><g transform="translate(9 -3076)"><g class="l" transform="matrix(1, 0, 0, 1, -9, 3076)"><rect class="b" width="195" height="30" transform="translate(9 6)"/></g><g class="k" transform="matrix(1, 0, 0, 1, -9, 3076)"><text class="c" transform="translate(65 26)"><tspan x="0" y="0">Our Partners</tspan></text></g><g class="j" transform="matrix(1, 0, 0, 1, -9, 3076)"><g class="d" transform="translate(9 7)"><rect class="h" width="199" height="28"/><rect class="a" x="0.25" y="0.25" width="198.5" height="27.5"/></g></g><g class="i" transform="matrix(1, 0, 0, 1, -9, 3076)"><path class="e" d="M0,0H22a8,8,0,0,1,8,8V22a8,8,0,0,1-8,8H0a0,0,0,0,1,0,0V0A0,0,0,0,1,0,0Z" transform="translate(204 6)"/></g><g transform="translate(210.5 3097.5)"><g class="f" transform="translate(-11.5 -11.5)"><path class="g" d="M11.5,0A11.5,11.5,0,1,0,23,11.5,11.5,11.5,0,0,0,11.5,0m5.948,6.266a1.983,1.983,0,1,1-1.983,1.983,1.983,1.983,0,0,1,1.983-1.983M11.5,5A2.657,2.657,0,1,1,8.843,7.653,2.657,2.657,0,0,1,11.5,5M5.552,6.266A1.983,1.983,0,1,1,3.569,8.248,1.983,1.983,0,0,1,5.552,6.266m0,9.993c-2.181,0-4.124-.357-3.966-1.348.436-2.5,1.705-3.966,3.926-3.966a3.569,3.569,0,0,1,2.141.634l-.2.2a7.664,7.664,0,0,0-1.9,4.322.436.436,0,0,0-.04.2M11.46,18c-2.895,0-5.472-.516-5.274-1.784.555-3.371,2.3-5.314,5.274-5.314s4.719,1.983,5.274,5.314c.2,1.269-2.34,1.784-5.274,1.784m6.028-1.745a1.718,1.718,0,0,1-.04-.2,8.1,8.1,0,0,0-1.9-4.283l-.238-.2a3.529,3.529,0,0,1,2.141-.634c2.221,0,3.529,1.507,3.926,3.966.159.991-1.745,1.348-3.926,1.309"/></g></g></g></svg>