<svg xmlns="http://www.w3.org/2000/svg" xmlns:xlink="http://www.w3.org/1999/xlink" width="659" height="95" viewBox="0 0 659 95"><defs><style>.a,.d{fill:none;}.b{fill:#c20a2b;}.c,.g{fill:#fff;}.c{font-size:45px;font-family:SegoeScript-Bold, Segoe Script;font-weight:700;}.d{stroke:rgba(255,255,255,0.2);stroke-width:2px;}.e{fill:#00acb3;}.f{clip-path:url(#i);}.h{stroke:none;}.i{filter:url(#g);}.j{filter:url(#e);}.k{filter:url(#c);}.l{filter:url(#a);}</style><filter id="a" x="83" y="0" width="499" height="95" filterUnits="userSpaceOnUse"><feOffset dy="3" input="SourceAlpha"/><feGaussianBlur stdDeviation="3" result="b"/><feFlood flood-opacity="0.161"/><feComposite operator="in" in2="b"/><feComposite in="SourceGraphic"/></filter><filter id="c" x="216" y="1" width="333" height="89" filterUnits="userSpaceOnUse"><feOffset dy="3" input="SourceAlpha"/><feGaussianBlur stdDeviation="3" result="d"/><feFlood flood-opacity="0.161"/><feComposite operator="in" in2="d"/><feComposite in="SourceGraphic"/></filter><filter id="e" x="0" y="5" width="592" height="85" filterUnits="userSpaceOnUse"><feOffset dy="3" input="SourceAlpha"/><feGaussianBlur stdDeviation="3" result="f"/><feFlood flood-opacity="0.161"/><feComposite operator="in" in2="f"/><feComposite in="SourceGraphic"/></filter><filter id="g" x="564" y="0" width="95" height="95" filterUnits="userSpaceOnUse"><feOffset dy="3" input="SourceAlpha"/><feGaussianBlur stdDeviation="3" result="h"/><feFlood flood-opacity="0.161"/><feComposite operator="in" in2="h"/><feComposite in="SourceGraphic"/></filter><clipPath id="i"><rect class="a" width="56" height="56" transform="translate(0)"/></clipPath></defs><g transform="translate(112 -3387)"><g class="l" transform="matrix(1, 0, 0, 1, -112, 3387)"><rect class="b" width="481" height="77" transform="translate(92 6)"/></g><g class="k" transform="matrix(1, 0, 0, 1, -112, 3387)"><text class="c" transform="translate(225 56)"><tspan x="0" y="0">Our Partners</tspan></text></g><g class="j" transform="matrix(1, 0, 0, 1, -112, 3387)"><g class="d" transform="translate(9 11)"><rect class="h" width="574" height="67"/><rect class="a" x="1" y="1" width="572" height="65"/></g></g><g class="i" transform="matrix(1, 0, 0, 1, -112, 3387)"><path class="e" d="M0,0H64A13,13,0,0,1,77,13V64A13,13,0,0,1,64,77H0a0,0,0,0,1,0,0V0A0,0,0,0,1,0,0Z" transform="translate(573 6)"/></g><g transform="translate(471 3403)"><g transform="translate(28 28)"><g class="f" transform="translate(-28 -28)"><path class="g" d="M27.977,0A27.977,27.977,0,1,0,55.954,27.977,27.977,27.977,0,0,0,27.977,0M42.448,15.243a4.824,4.824,0,1,1-4.824,4.824,4.824,4.824,0,0,1,4.824-4.824M27.977,12.155a6.464,6.464,0,1,1-6.464,6.464,6.464,6.464,0,0,1,6.464-6.464M13.506,15.243a4.824,4.824,0,1,1-4.824,4.824,4.824,4.824,0,0,1,4.824-4.824m0,24.311c-5.306,0-10.033-.868-9.647-3.28C4.92,30.2,8.007,26.626,13.41,26.626a8.682,8.682,0,0,1,5.209,1.544l-.482.482c-2.412,2.508-3.955,5.981-4.631,10.515a1.061,1.061,0,0,0-.1.482M27.88,43.8c-7.042,0-13.313-1.254-12.831-4.341,1.351-8.2,5.6-12.927,12.831-12.927s11.48,4.824,12.831,12.927c.482,3.087-5.692,4.341-12.831,4.341m14.664-4.245a4.178,4.178,0,0,1-.1-.482c-.772-4.438-2.315-8.007-4.631-10.419l-.579-.482a8.586,8.586,0,0,1,5.209-1.544c5.4,0,8.586,3.666,9.551,9.647.386,2.412-4.245,3.28-9.551,3.184" transform="translate(0)"/></g></g></g></g></svg>