<svg xmlns="http://www.w3.org/2000/svg" xmlns:xlink="http://www.w3.org/1999/xlink" width="692" height="134" viewBox="0 0 692 134"><defs><style>.a{fill:none;}.b{fill:#c20a2b;}.c{fill:#00acb3;}.d{clip-path:url(#e);}.e,.g,.i{fill:#fff;}.f{fill:#dd3a57;}.g{font-size:26px;font-family:Calibri-Bold, Calibri;}.g,.i{font-weight:700;}.h{fill:#0185b6;}.i{font-size:34px;font-family:SegoeScript-Bold, Segoe Script;}.j{clip-path:url(#n);}.k{filter:url(#l);}.l{filter:url(#j);}.m{filter:url(#h);}.n{filter:url(#f);}.o{filter:url(#c);}.p{filter:url(#a);}</style><filter id="a" x="0" y="58" width="321" height="76" filterUnits="userSpaceOnUse"><feOffset dy="3" input="SourceAlpha"/><feGaussianBlur stdDeviation="3" result="b"/><feFlood flood-opacity="0.161"/><feComposite operator="in" in2="b"/><feComposite in="SourceGraphic"/></filter><filter id="c" x="303" y="58" width="76" height="76" filterUnits="userSpaceOnUse"><feOffset dy="3" input="SourceAlpha"/><feGaussianBlur stdDeviation="3" result="d"/><feFlood flood-opacity="0.161"/><feComposite operator="in" in2="d"/><feComposite in="SourceGraphic"/></filter><clipPath id="e"><rect class="a" width="39.8" height="39.8" transform="translate(0 0)"/></clipPath><filter id="f" x="18" y="65" width="303" height="63" filterUnits="userSpaceOnUse"><feOffset dy="3" input="SourceAlpha"/><feGaussianBlur stdDeviation="3" result="g"/><feFlood flood-opacity="0.161"/><feComposite operator="in" in2="g"/><feComposite in="SourceGraphic"/></filter><filter id="h" x="0" y="0" width="692" height="76" filterUnits="userSpaceOnUse"><feOffset dy="3" input="SourceAlpha"/><feGaussianBlur stdDeviation="3" result="i"/><feFlood flood-opacity="0.161"/><feComposite operator="in" in2="i"/><feComposite in="SourceGraphic"/></filter><filter id="j" x="0" y="0" width="76" height="76" filterUnits="userSpaceOnUse"><feOffset dy="3" input="SourceAlpha"/><feGaussianBlur stdDeviation="3" result="k"/><feFlood flood-opacity="0.161"/><feComposite operator="in" in2="k"/><feComposite in="SourceGraphic"/></filter><filter id="l" x="78" y="3" width="442" height="72" filterUnits="userSpaceOnUse"><feOffset dy="3" input="SourceAlpha"/><feGaussianBlur stdDeviation="3" result="m"/><feFlood flood-opacity="0.161"/><feComposite operator="in" in2="m"/><feComposite in="SourceGraphic"/></filter><clipPath id="n"><rect class="a" width="38" height="38"/></clipPath></defs><g transform="translate(-1039 -443)"><g class="p" transform="matrix(1, 0, 0, 1, 1039, 443)"><rect class="b" width="303" height="58" transform="translate(312 122) rotate(180)"/></g><g class="o" transform="matrix(1, 0, 0, 1, 1039, 443)"><path class="c" d="M0,0H58a0,0,0,0,1,0,0V45A13,13,0,0,1,45,58H0a0,0,0,0,1,0,0V0A0,0,0,0,1,0,0Z" transform="translate(312 64)"/></g><g transform="translate(1360 516)"><g transform="translate(19.9 19.9)"><g class="d" transform="translate(-19.9 -19.9)"><path class="e" d="M20.917,2.2A18.717,18.717,0,1,0,39.635,20.917,18.717,18.717,0,0,0,20.917,2.2m-.269,6.867A2.828,2.828,0,1,1,17.82,11.9a2.828,2.828,0,0,1,2.828-2.828m4.376,23.767H16.81V29.468h1.818v-9.7h-.135a1.683,1.683,0,0,1,0-3.3h4.78V29.468h1.818Z" transform="translate(-0.719 -0.719)"/></g></g></g><g class="n" transform="matrix(1, 0, 0, 1, 1039, 443)"><path class="f" d="M13,0H285a0,0,0,0,1,0,0V45a0,0,0,0,1,0,0H13A13,13,0,0,1,0,32V13A13,13,0,0,1,13,0Z" transform="translate(27 71)"/></g><text class="g" transform="translate(1084 545)"><tspan x="0" y="0">THIS IS HOW IT WORKS</tspan></text><g transform="translate(425 -184)"><g class="m" transform="matrix(1, 0, 0, 1, 614, 627)"><rect class="h" width="674" height="58" rx="13" transform="translate(9 6)"/></g><g class="l" transform="matrix(1, 0, 0, 1, 614, 627)"><path class="c" d="M0,0H58a0,0,0,0,1,0,0V45A13,13,0,0,1,45,58H0a0,0,0,0,1,0,0V0A0,0,0,0,1,0,0Z" transform="translate(67 64) rotate(180)"/></g><g class="k" transform="matrix(1, 0, 0, 1, 614, 627)"><text class="i" transform="translate(87 46)"><tspan x="0" y="0">I want to use my box …</tspan></text></g><g transform="translate(633 643)"><g transform="translate(19 19)"><g class="j" transform="translate(-19 -19)"><path class="e" d="M26.573,10.864l.95-.443a4.813,4.813,0,0,0,1.583-6.65h-.063A4.5,4.5,0,0,0,25.243,2a5.32,5.32,0,0,0-2.977.887A8.613,8.613,0,0,0,19.8,6.747,8.993,8.993,0,0,0,17.263,2.82,5.32,5.32,0,0,0,14.287,2,4.5,4.5,0,0,0,10.55,3.77a4.813,4.813,0,0,0,1.457,6.587h.063l.823.507H2v7.41H4.85V34.487a2.977,2.977,0,0,0,2.913,3.04H16.82V17.957h5.763v19.57H31.64a2.977,2.977,0,0,0,2.977-2.977V18.337h2.85V10.864Zm-9.88-1.52a7.093,7.093,0,0,1-3.547-.57A2.85,2.85,0,0,1,12.133,4.91a2.533,2.533,0,0,1,2.153-1.077,3.293,3.293,0,0,1,1.773.633A11.907,11.907,0,0,1,18.467,9.28l-1.773.127Zm6.65-4.877a3.293,3.293,0,0,1,1.773-.633A2.533,2.533,0,0,1,27.27,4.91a2.85,2.85,0,0,1-1.013,3.863,6.9,6.9,0,0,1-3.547.57H20.937A10.7,10.7,0,0,1,23.343,4.4" transform="translate(-0.733 -0.73)"/></g></g></g></g></g></svg>