<svg xmlns="http://www.w3.org/2000/svg" xmlns:xlink="http://www.w3.org/1999/xlink" width="30" height="30" viewBox="0 0 30 30"><defs><style>.a{fill:none;}.b{clip-path:url(#a);}</style><clipPath id="a"><rect class="a" width="30" height="30"/></clipPath></defs><g class="b"><path d="M45.6,42.05,39.45,35.9a11.85,11.85,0,0,1-3.55,3.55l6.15,6.15a2.51,2.51,0,0,0,3.55-3.55" transform="translate(-17.95 -17.95)"/><path d="M23.3,13.25A10.05,10.05,0,1,0,13.25,23.3,10.05,10.05,0,0,0,23.3,13.25M13.25,20.8a7.55,7.55,0,1,1,7.55-7.55,7.55,7.55,0,0,1-7.55,7.55" transform="translate(-1.6 -1.6)"/><path d="M11.6,17.45h1.7a4.2,4.2,0,0,1,4.2-4.2V11.6a5.85,5.85,0,0,0-5.9,5.85" transform="translate(-5.8 -5.8)"/></g></svg>