<svg xmlns="http://www.w3.org/2000/svg" xmlns:xlink="http://www.w3.org/1999/xlink" width="75" height="75" viewBox="0 0 75 75"><defs><style>.a{fill:none;}.b{clip-path:url(#a);}.c{fill:#fff;}</style><clipPath id="a"><rect class="a" width="75" height="75" transform="translate(0 0)"/></clipPath></defs><g transform="translate(37.5 37.5) rotate(-90)"><g class="b" transform="translate(-37.5 -37.5)"><path class="c" d="M.84.715H.715a2.5,2.5,0,0,0,0,3.5l18,18.125a2.5,2.5,0,0,1,0,3.5l-18,18a2.5,2.5,0,0,0,0,3.5H.84a2.5,2.5,0,0,0,3.5,0l21.625-21.5a2.5,2.5,0,0,0,0-3.5L4.34.715a2.5,2.5,0,0,0-3.5,0" transform="translate(24.16 13.41)"/></g></g></svg>